M48
; DRILL file {KiCad 9.0.6} date 2026-01-03T00:51:59-0800
; FORMAT={-:-/ absolute / metric / decimal}
; #@! TF.CreationDate,2026-01-03T00:51:59-08:00
; #@! TF.GenerationSoftware,Kicad,Pcbnew,9.0.6
; #@! TF.FileFunction,Plated,1,2,PTH
FMAT,2
METRIC
; #@! TA.AperFunction,Plated,PTH,ComponentDrill
T1C0.750
; #@! TA.AperFunction,Plated,PTH,ComponentDrill
T2C0.991
; #@! TA.AperFunction,Plated,PTH,ComponentDrill
T3C1.000
; #@! TA.AperFunction,Plated,PTH,ComponentDrill
T4C1.016
%
G90
G05
T1
X178.2Y-160.19
X178.2Y-162.19
T2
X87.0Y-110.09
X87.0Y-117.71
X87.0Y-129.14
X87.0Y-136.76
X87.0Y-148.19
X87.0Y-155.81
X106.05Y-102.47
X106.05Y-110.09
X106.05Y-121.52
X106.05Y-129.14
X106.05Y-140.57
X106.05Y-148.19
X125.1Y-98.66
X125.1Y-106.28
X125.1Y-117.71
X125.1Y-125.33
X125.1Y-136.76
X125.1Y-144.38
X128.91Y-167.24
X128.91Y-174.86
X144.15Y-102.47
X144.15Y-110.09
X144.15Y-121.52
X144.15Y-129.14
X144.15Y-140.57
X144.15Y-148.19
X148.221Y-176.314
X148.885Y-168.723
X163.2Y-106.28
X163.2Y-113.9
X163.2Y-125.33
X163.2Y-132.95
X163.2Y-144.38
X163.2Y-152.0
X167.336Y-180.924
X169.308Y-173.564
X185.36Y-188.783
X188.581Y-181.877
T3
X168.58Y-139.57
X168.58Y-154.81
X171.12Y-139.57
X171.12Y-154.81
X173.66Y-139.57
X173.66Y-154.81
X176.2Y-139.57
X176.2Y-154.81
X178.74Y-139.57
X178.74Y-154.81
X181.28Y-139.57
X181.28Y-154.81
X183.82Y-139.57
X183.82Y-154.81
T4
X176.517Y-151.635
X178.422Y-151.635
X182.232Y-145.92
X182.232Y-148.46
X184.772Y-145.92
X184.772Y-148.46
M30
