%TF.GenerationSoftware,KiCad,Pcbnew,9.0.6*%
%TF.CreationDate,2026-01-03T00:52:00-08:00*%
%TF.ProjectId,pcb_left,7063625f-6c65-4667-942e-6b696361645f,4.2.1*%
%TF.SameCoordinates,Original*%
%TF.FileFunction,Copper,L2,Bot*%
%TF.FilePolarity,Positive*%
%FSLAX46Y46*%
G04 Gerber Fmt 4.6, Leading zero omitted, Abs format (unit mm)*
G04 Created by KiCad (PCBNEW 9.0.6) date 2026-01-03 00:52:00*
%MOMM*%
%LPD*%
G01*
G04 APERTURE LIST*
G04 Aperture macros list*
%AMRotRect*
0 Rectangle, with rotation*
0 The origin of the aperture is its center*
0 $1 length*
0 $2 width*
0 $3 Rotation angle, in degrees counterclockwise*
0 Add horizontal line*
21,1,$1,$2,0,0,$3*%
G04 Aperture macros list end*
%TA.AperFunction,SMDPad,CuDef*%
%ADD10R,0.900000X0.900000*%
%TD*%
%TA.AperFunction,WasherPad*%
%ADD11C,1.000000*%
%TD*%
%TA.AperFunction,SMDPad,CuDef*%
%ADD12R,1.250000X0.900000*%
%TD*%
%TA.AperFunction,ComponentPad*%
%ADD13R,1.778000X1.778000*%
%TD*%
%TA.AperFunction,SMDPad,CuDef*%
%ADD14R,1.200000X0.900000*%
%TD*%
%TA.AperFunction,ComponentPad*%
%ADD15C,1.905000*%
%TD*%
%TA.AperFunction,SMDPad,CuDef*%
%ADD16R,2.550000X2.500000*%
%TD*%
%TA.AperFunction,ComponentPad*%
%ADD17RotRect,1.778000X1.778000X65.000000*%
%TD*%
%TA.AperFunction,SMDPad,CuDef*%
%ADD18RotRect,0.900000X1.200000X65.000000*%
%TD*%
%TA.AperFunction,SMDPad,CuDef*%
%ADD19RotRect,2.550000X2.500000X355.000000*%
%TD*%
%TA.AperFunction,SMDPad,CuDef*%
%ADD20RotRect,2.550000X2.500000X345.000000*%
%TD*%
%TA.AperFunction,WasherPad*%
%ADD21C,4.000000*%
%TD*%
%TA.AperFunction,ComponentPad*%
%ADD22RotRect,1.778000X1.778000X85.000000*%
%TD*%
%TA.AperFunction,SMDPad,CuDef*%
%ADD23RotRect,0.900000X1.200000X85.000000*%
%TD*%
%TA.AperFunction,ComponentPad*%
%ADD24R,1.700000X1.200000*%
%TD*%
%TA.AperFunction,ComponentPad*%
%ADD25O,1.700000X1.200000*%
%TD*%
%TA.AperFunction,SMDPad,CuDef*%
%ADD26RotRect,2.550000X2.500000X335.000000*%
%TD*%
%TA.AperFunction,ComponentPad*%
%ADD27O,1.800000X2.750000*%
%TD*%
%TA.AperFunction,ComponentPad*%
%ADD28C,1.397000*%
%TD*%
%TA.AperFunction,ComponentPad*%
%ADD29RotRect,1.778000X1.778000X75.000000*%
%TD*%
%TA.AperFunction,SMDPad,CuDef*%
%ADD30RotRect,0.900000X1.200000X75.000000*%
%TD*%
%TA.AperFunction,Conductor*%
%ADD31C,0.200000*%
%TD*%
G04 APERTURE END LIST*
D10*
%TO.P,T1,*%
%TO.N,*%
X185800000Y-157490000D03*
X183600000Y-157490000D03*
D11*
X184700000Y-159690000D03*
X184700000Y-162690000D03*
D10*
X185800000Y-164890000D03*
X183600000Y-164890000D03*
D12*
%TO.P,T1,1*%
%TO.N,pos*%
X182625000Y-158940000D03*
%TO.P,T1,2*%
%TO.N,RAW*%
X182625000Y-161940000D03*
%TO.P,T1,3*%
%TO.N,N/C*%
X182625000Y-163440000D03*
%TD*%
D13*
%TO.P,D1,1*%
%TO.N,P8*%
X87000000Y-155810000D03*
D14*
X87000000Y-153650000D03*
%TO.P,D1,2*%
%TO.N,c1_r1*%
X87000000Y-150350000D03*
D15*
X87000000Y-148190000D03*
%TD*%
D13*
%TO.P,D16,1*%
%TO.N,P7*%
X128910000Y-174860000D03*
D14*
X128910000Y-172700000D03*
%TO.P,D16,2*%
%TO.N,t1_r*%
X128910000Y-169400000D03*
D15*
X128910000Y-167240000D03*
%TD*%
D13*
%TO.P,D12,1*%
%TO.N,P10*%
X144150000Y-110090000D03*
D14*
X144150000Y-107930000D03*
%TO.P,D12,2*%
%TO.N,c4_r3*%
X144150000Y-104630000D03*
D15*
X144150000Y-102470000D03*
%TD*%
D16*
%TO.P,S10,1*%
%TO.N,P5*%
X130065000Y-139840000D03*
%TO.P,S10,2*%
%TO.N,c4_r1*%
X142992000Y-137300000D03*
%TD*%
D13*
%TO.P,D5,1*%
%TO.N,P9*%
X106050000Y-129140000D03*
D14*
X106050000Y-126980000D03*
%TO.P,D5,2*%
%TO.N,c2_r2*%
X106050000Y-123680000D03*
D15*
X106050000Y-121520000D03*
%TD*%
D13*
%TO.P,D2,1*%
%TO.N,P9*%
X87000000Y-136760000D03*
D14*
X87000000Y-134600000D03*
%TO.P,D2,2*%
%TO.N,c1_r2*%
X87000000Y-131300000D03*
D15*
X87000000Y-129140000D03*
%TD*%
D13*
%TO.P,D11,1*%
%TO.N,P9*%
X144150000Y-129140000D03*
D14*
X144150000Y-126980000D03*
%TO.P,D11,2*%
%TO.N,c4_r2*%
X144150000Y-123680000D03*
D15*
X144150000Y-121520000D03*
%TD*%
D16*
%TO.P,S12,1*%
%TO.N,P5*%
X130065000Y-101740000D03*
%TO.P,S12,2*%
%TO.N,c4_r3*%
X142992000Y-99200000D03*
%TD*%
D17*
%TO.P,D19,1*%
%TO.N,P7*%
X185360159Y-188782653D03*
D18*
X186273015Y-186825028D03*
%TO.P,D19,2*%
%TO.N,t4_r*%
X187667655Y-183834212D03*
D15*
X188580511Y-181876587D03*
%TD*%
D16*
%TO.P,S1,1*%
%TO.N,P2*%
X72915000Y-147460000D03*
%TO.P,S1,2*%
%TO.N,c1_r1*%
X85842000Y-144920000D03*
%TD*%
D13*
%TO.P,D8,1*%
%TO.N,P9*%
X125100000Y-125330000D03*
D14*
X125100000Y-123170000D03*
%TO.P,D8,2*%
%TO.N,c3_r2*%
X125100000Y-119870000D03*
D15*
X125100000Y-117710000D03*
%TD*%
D13*
%TO.P,D9,1*%
%TO.N,P10*%
X125100000Y-106280000D03*
D14*
X125100000Y-104120000D03*
%TO.P,D9,2*%
%TO.N,c3_r3*%
X125100000Y-100820000D03*
D15*
X125100000Y-98660000D03*
%TD*%
D16*
%TO.P,S16,1*%
%TO.N,P3*%
X114825000Y-166510000D03*
%TO.P,S16,2*%
%TO.N,t1_r*%
X127752000Y-163970000D03*
%TD*%
D19*
%TO.P,S17,1*%
%TO.N,P4*%
X134917249Y-166768571D03*
%TO.P,S17,2*%
%TO.N,t2_r*%
X148016434Y-165364899D03*
%TD*%
D20*
%TO.P,S18,1*%
%TO.N,P5*%
X155892020Y-169212940D03*
%TO.P,S18,2*%
%TO.N,t3_r*%
X169035943Y-170105243D03*
%TD*%
D13*
%TO.P,D10,1*%
%TO.N,P8*%
X144150000Y-148190000D03*
D14*
X144150000Y-146030000D03*
%TO.P,D10,2*%
%TO.N,c4_r1*%
X144150000Y-142730000D03*
D15*
X144150000Y-140570000D03*
%TD*%
D16*
%TO.P,S8,1*%
%TO.N,P4*%
X111015000Y-116980000D03*
%TO.P,S8,2*%
%TO.N,c3_r2*%
X123942000Y-114440000D03*
%TD*%
%TO.P,S7,1*%
%TO.N,P4*%
X111015000Y-136030000D03*
%TO.P,S7,2*%
%TO.N,c3_r1*%
X123942000Y-133490000D03*
%TD*%
%TO.P,S6,1*%
%TO.N,P3*%
X91965000Y-101740000D03*
%TO.P,S6,2*%
%TO.N,c2_r3*%
X104892000Y-99200000D03*
%TD*%
D21*
%TO.P,,*%
%TO.N,*%
X137150000Y-151880000D03*
%TD*%
D22*
%TO.P,D17,1*%
%TO.N,P7*%
X148220901Y-176314386D03*
D23*
X148409157Y-174162605D03*
%TO.P,D17,2*%
%TO.N,t2_r*%
X148696771Y-170875163D03*
D15*
X148885027Y-168723382D03*
%TD*%
D16*
%TO.P,S9,1*%
%TO.N,P4*%
X111015000Y-97930000D03*
%TO.P,S9,2*%
%TO.N,c3_r3*%
X123942000Y-95390000D03*
%TD*%
D24*
%TO.P,JST1,1*%
%TO.N,pos*%
X178200000Y-160190000D03*
D25*
%TO.P,JST1,2*%
%TO.N,GND*%
X178200000Y-162190000D03*
%TD*%
D26*
%TO.P,S19,1*%
%TO.N,P6*%
X176123677Y-175262405D03*
%TO.P,S19,2*%
%TO.N,t4_r*%
X188912968Y-178423569D03*
%TD*%
D13*
%TO.P,D6,1*%
%TO.N,P10*%
X106050000Y-110090000D03*
D14*
X106050000Y-107930000D03*
%TO.P,D6,2*%
%TO.N,c2_r3*%
X106050000Y-104630000D03*
D15*
X106050000Y-102470000D03*
%TD*%
D16*
%TO.P,S11,1*%
%TO.N,P5*%
X130065000Y-120790000D03*
%TO.P,S11,2*%
%TO.N,c4_r2*%
X142992000Y-118250000D03*
%TD*%
D13*
%TO.P,D15,1*%
%TO.N,P10*%
X163200000Y-113900000D03*
D14*
X163200000Y-111740000D03*
%TO.P,D15,2*%
%TO.N,c5_r3*%
X163200000Y-108440000D03*
D15*
X163200000Y-106280000D03*
%TD*%
D13*
%TO.P,D7,1*%
%TO.N,P8*%
X125100000Y-144380000D03*
D14*
X125100000Y-142220000D03*
%TO.P,D7,2*%
%TO.N,c3_r1*%
X125100000Y-138920000D03*
D15*
X125100000Y-136760000D03*
%TD*%
D16*
%TO.P,S3,1*%
%TO.N,P2*%
X72915000Y-109360000D03*
%TO.P,S3,2*%
%TO.N,c1_r3*%
X85842000Y-106820000D03*
%TD*%
D13*
%TO.P,D3,1*%
%TO.N,P10*%
X87000000Y-117710000D03*
D14*
X87000000Y-115550000D03*
%TO.P,D3,2*%
%TO.N,c1_r3*%
X87000000Y-112250000D03*
D15*
X87000000Y-110090000D03*
%TD*%
D13*
%TO.P,D13,1*%
%TO.N,P8*%
X163200000Y-152000000D03*
D14*
X163200000Y-149840000D03*
%TO.P,D13,2*%
%TO.N,c5_r1*%
X163200000Y-146540000D03*
D15*
X163200000Y-144380000D03*
%TD*%
D21*
%TO.P,,*%
%TO.N,*%
X80000000Y-140500000D03*
%TD*%
%TO.P,,*%
%TO.N,*%
X99050000Y-113830000D03*
%TD*%
D16*
%TO.P,S14,1*%
%TO.N,P6*%
X149115000Y-124600000D03*
%TO.P,S14,2*%
%TO.N,c5_r2*%
X162042000Y-122060000D03*
%TD*%
%TO.P,S4,1*%
%TO.N,P3*%
X91965000Y-139840000D03*
%TO.P,S4,2*%
%TO.N,c2_r1*%
X104892000Y-137300000D03*
%TD*%
D13*
%TO.P,D4,1*%
%TO.N,P8*%
X106050000Y-148190000D03*
D14*
X106050000Y-146030000D03*
%TO.P,D4,2*%
%TO.N,c2_r1*%
X106050000Y-142730000D03*
D15*
X106050000Y-140570000D03*
%TD*%
D13*
%TO.P,D14,1*%
%TO.N,P9*%
X163200000Y-132950000D03*
D14*
X163200000Y-130790000D03*
%TO.P,D14,2*%
%TO.N,c5_r2*%
X163200000Y-127490000D03*
D15*
X163200000Y-125330000D03*
%TD*%
D27*
%TO.P,_1,1*%
%TO.N,VCC5*%
X183820000Y-139095000D03*
%TO.P,_1,2*%
%TO.N,GND*%
X181280000Y-139095000D03*
%TO.P,_1,3*%
%TO.N,VCC3*%
X178740000Y-139095000D03*
%TO.P,_1,4*%
%TO.N,P10*%
X176200000Y-139095000D03*
%TO.P,_1,5*%
%TO.N,P9*%
X173660000Y-139095000D03*
%TO.P,_1,6*%
%TO.N,P8*%
X171120000Y-139095000D03*
%TO.P,_1,7*%
%TO.N,P7*%
X168580000Y-139095000D03*
D28*
%TO.P,_1,8*%
%TO.N,CLK*%
X184772000Y-145920000D03*
%TO.P,_1,9*%
%TO.N,GND*%
X182232000Y-145920000D03*
D27*
%TO.P,_1,12*%
%TO.N,P6*%
X168580000Y-155285000D03*
%TO.P,_1,13*%
%TO.N,P5*%
X171120000Y-155285000D03*
%TO.P,_1,14*%
%TO.N,P4*%
X173660000Y-155285000D03*
%TO.P,_1,15*%
%TO.N,P3*%
X176200000Y-155285000D03*
%TO.P,_1,16*%
%TO.N,P2*%
X178740000Y-155285000D03*
%TO.P,_1,17*%
%TO.N,P1*%
X181280000Y-155285000D03*
%TO.P,_1,18*%
%TO.N,P0*%
X183820000Y-155285000D03*
D28*
%TO.P,_1,19*%
%TO.N,DIO*%
X184772000Y-148460000D03*
%TO.P,_1,20*%
%TO.N,RST*%
X182232000Y-148460000D03*
%TO.P,_1,21*%
%TO.N,RAW*%
X176517000Y-151635000D03*
%TO.P,_1,22*%
%TO.N,GND*%
X178422000Y-151635000D03*
%TD*%
D16*
%TO.P,S2,1*%
%TO.N,P2*%
X72915000Y-128410000D03*
%TO.P,S2,2*%
%TO.N,c1_r2*%
X85842000Y-125870000D03*
%TD*%
%TO.P,S15,1*%
%TO.N,P6*%
X149115000Y-105550000D03*
%TO.P,S15,2*%
%TO.N,c5_r3*%
X162042000Y-103010000D03*
%TD*%
D21*
%TO.P,,*%
%TO.N,*%
X156200000Y-117640000D03*
%TD*%
D16*
%TO.P,S13,1*%
%TO.N,P6*%
X149115000Y-143650000D03*
%TO.P,S13,2*%
%TO.N,c5_r1*%
X162042000Y-141110000D03*
%TD*%
D21*
%TO.P,,*%
%TO.N,*%
X172772738Y-172224612D03*
%TD*%
D16*
%TO.P,S5,1*%
%TO.N,P3*%
X91965000Y-120790000D03*
%TO.P,S5,2*%
%TO.N,c2_r2*%
X104892000Y-118250000D03*
%TD*%
D29*
%TO.P,D18,1*%
%TO.N,P7*%
X167335945Y-180923887D03*
D30*
X167894997Y-178837488D03*
%TO.P,D18,2*%
%TO.N,t3_r*%
X168749097Y-175649932D03*
D15*
X169308149Y-173563533D03*
%TD*%
D31*
%TO.N,P2*%
X107833900Y-96599000D02*
X112234900Y-92198000D01*
X163823400Y-99396000D02*
X166604000Y-102176600D01*
X166604000Y-143515530D02*
X177898470Y-154810000D01*
X72915000Y-128410000D02*
X72915000Y-147460000D01*
X78275000Y-104000000D02*
X86000000Y-104000000D01*
X72915000Y-109360000D02*
X72915000Y-128410000D01*
X166604000Y-102176600D02*
X166604000Y-143515530D01*
X148097300Y-99396000D02*
X163823400Y-99396000D01*
X112234900Y-92198000D02*
X125332200Y-92198000D01*
X144498300Y-95797000D02*
X148097300Y-99396000D01*
X93401000Y-96599000D02*
X107833900Y-96599000D01*
X125332200Y-92198000D02*
X128931200Y-95797000D01*
X72915000Y-109360000D02*
X78275000Y-104000000D01*
X128931200Y-95797000D02*
X144498300Y-95797000D01*
X177898470Y-154810000D02*
X178740000Y-154810000D01*
X86000000Y-104000000D02*
X93401000Y-96599000D01*
%TO.N,c1_r1*%
X87000000Y-148190000D02*
X87000000Y-150350000D01*
X85842000Y-147032000D02*
X87000000Y-148190000D01*
X85842000Y-144920000D02*
X85842000Y-147032000D01*
%TO.N,c1_r2*%
X85842000Y-125870000D02*
X85842000Y-127982000D01*
X87000000Y-129140000D02*
X87000000Y-131300000D01*
X85842000Y-127982000D02*
X87000000Y-129140000D01*
%TO.N,c1_r3*%
X87000000Y-110090000D02*
X87000000Y-112250000D01*
X85842000Y-106820000D02*
X85842000Y-108932000D01*
X85842000Y-108932000D02*
X87000000Y-110090000D01*
%TO.N,P3*%
X144332200Y-96198000D02*
X147931200Y-99797000D01*
X112401000Y-92599000D02*
X125166100Y-92599000D01*
X91965000Y-120790000D02*
X91965000Y-139840000D01*
X163657300Y-99797000D02*
X166203000Y-102342700D01*
X91965000Y-101740000D02*
X96705000Y-97000000D01*
X91965000Y-101740000D02*
X91965000Y-120790000D01*
X114825000Y-166510000D02*
X114825000Y-163825000D01*
X114825000Y-163825000D02*
X107000000Y-156000000D01*
X108000000Y-97000000D02*
X112401000Y-92599000D01*
X96705000Y-97000000D02*
X108000000Y-97000000D01*
X125166100Y-92599000D02*
X128765100Y-96198000D01*
X147931200Y-99797000D02*
X163657300Y-99797000D01*
X166203000Y-102342700D02*
X166203000Y-144813000D01*
X91965000Y-142965000D02*
X91965000Y-139840000D01*
X107000000Y-156000000D02*
X105000000Y-156000000D01*
X128765100Y-96198000D02*
X144332200Y-96198000D01*
X105000000Y-156000000D02*
X91965000Y-142965000D01*
X166203000Y-144813000D02*
X176200000Y-154810000D01*
%TO.N,c2_r1*%
X104892000Y-137300000D02*
X104892000Y-139412000D01*
X106050000Y-140570000D02*
X106050000Y-142730000D01*
X104892000Y-139412000D02*
X106050000Y-140570000D01*
%TO.N,c2_r2*%
X106050000Y-121520000D02*
X106050000Y-123680000D01*
X104892000Y-120362000D02*
X106050000Y-121520000D01*
X104892000Y-118250000D02*
X104892000Y-120362000D01*
%TO.N,c2_r3*%
X104892000Y-99200000D02*
X104892000Y-101312000D01*
X104892000Y-101312000D02*
X106050000Y-102470000D01*
X106050000Y-102470000D02*
X106050000Y-104630000D01*
%TO.N,P4*%
X115945000Y-93000000D02*
X125000000Y-93000000D01*
X165802000Y-146952000D02*
X173660000Y-154810000D01*
X111015000Y-136030000D02*
X111015000Y-139015000D01*
X111015000Y-97930000D02*
X111015000Y-116980000D01*
X144166100Y-96599000D02*
X147765100Y-100198000D01*
X111015000Y-97930000D02*
X115945000Y-93000000D01*
X128599000Y-96599000D02*
X144166100Y-96599000D01*
X147765100Y-100198000D02*
X163491200Y-100198000D01*
X165802000Y-102508800D02*
X165802000Y-146952000D01*
X125000000Y-93000000D02*
X128599000Y-96599000D01*
X163491200Y-100198000D02*
X165802000Y-102508800D01*
X134917249Y-162917249D02*
X134917249Y-166768571D01*
X111015000Y-116980000D02*
X111015000Y-136030000D01*
X111015000Y-139015000D02*
X134917249Y-162917249D01*
%TO.N,c3_r1*%
X123942000Y-135602000D02*
X125100000Y-136760000D01*
X123942000Y-133490000D02*
X123942000Y-135602000D01*
X125100000Y-136760000D02*
X125100000Y-138920000D01*
%TO.N,c3_r2*%
X123942000Y-116552000D02*
X125100000Y-117710000D01*
X123942000Y-114440000D02*
X123942000Y-116552000D01*
X125100000Y-117710000D02*
X125100000Y-119870000D01*
%TO.N,c3_r3*%
X123942000Y-95390000D02*
X123942000Y-97502000D01*
X123942000Y-97502000D02*
X125100000Y-98660000D01*
X125100000Y-98660000D02*
X125100000Y-100820000D01*
%TO.N,P5*%
X134805000Y-97000000D02*
X144000000Y-97000000D01*
X163325100Y-100599000D02*
X165401000Y-102674900D01*
X136000000Y-156000000D02*
X142679080Y-156000000D01*
X130065000Y-150065000D02*
X136000000Y-156000000D01*
X130065000Y-139840000D02*
X130065000Y-150065000D01*
X130065000Y-139840000D02*
X130065000Y-120790000D01*
X165401000Y-149091000D02*
X171120000Y-154810000D01*
X165401000Y-102674900D02*
X165401000Y-149091000D01*
X147599000Y-100599000D02*
X163325100Y-100599000D01*
X144000000Y-97000000D02*
X147599000Y-100599000D01*
X142679080Y-156000000D02*
X155892020Y-169212940D01*
X130065000Y-101740000D02*
X134805000Y-97000000D01*
X130065000Y-120790000D02*
X130065000Y-101740000D01*
%TO.N,c4_r1*%
X144150000Y-140570000D02*
X144150000Y-142730000D01*
X142992000Y-139412000D02*
X144150000Y-140570000D01*
X142992000Y-137300000D02*
X142992000Y-139412000D01*
%TO.N,c4_r2*%
X142992000Y-118250000D02*
X142992000Y-120362000D01*
X142992000Y-120362000D02*
X144150000Y-121520000D01*
X144150000Y-121520000D02*
X144150000Y-123680000D01*
%TO.N,c4_r3*%
X144150000Y-102470000D02*
X144150000Y-104630000D01*
X142992000Y-99200000D02*
X142992000Y-101312000D01*
X142992000Y-101312000D02*
X144150000Y-102470000D01*
%TO.N,P6*%
X149115000Y-105550000D02*
X149115000Y-124600000D01*
X149115000Y-143650000D02*
X149115000Y-155115000D01*
X170000000Y-164000000D02*
X176123677Y-170123677D01*
X158000000Y-164000000D02*
X170000000Y-164000000D01*
X163159000Y-101000000D02*
X165000000Y-102841000D01*
X149115000Y-105550000D02*
X153665000Y-101000000D01*
X153665000Y-101000000D02*
X163159000Y-101000000D01*
X176123677Y-170123677D02*
X176123677Y-175262405D01*
X165000000Y-102841000D02*
X165000000Y-151230000D01*
X149115000Y-155115000D02*
X158000000Y-164000000D01*
X165000000Y-151230000D02*
X168580000Y-154810000D01*
X149115000Y-124600000D02*
X149115000Y-143650000D01*
%TO.N,c5_r1*%
X163200000Y-144380000D02*
X163200000Y-146540000D01*
X162042000Y-143222000D02*
X163200000Y-144380000D01*
X162042000Y-141110000D02*
X162042000Y-143222000D01*
%TO.N,c5_r2*%
X162042000Y-124172000D02*
X163200000Y-125330000D01*
X162042000Y-122060000D02*
X162042000Y-124172000D01*
X163200000Y-125330000D02*
X163200000Y-127490000D01*
%TO.N,c5_r3*%
X163200000Y-106280000D02*
X163200000Y-108440000D01*
X162042000Y-105122000D02*
X163200000Y-106280000D01*
X162042000Y-103010000D02*
X162042000Y-105122000D01*
%TO.N,t1_r*%
X127752000Y-163970000D02*
X127752000Y-166082000D01*
X127752000Y-166082000D02*
X128910000Y-167240000D01*
X128910000Y-167240000D02*
X128910000Y-169400000D01*
%TO.N,t2_r*%
X148885027Y-168723382D02*
X148885027Y-170686907D01*
X148016434Y-165364899D02*
X148016434Y-167854789D01*
X148885027Y-170686907D02*
X148696771Y-170875163D01*
X148016434Y-167854789D02*
X148885027Y-168723382D01*
%TO.N,t3_r*%
X169308148Y-175090882D02*
X168749098Y-175649932D01*
X169035943Y-173291328D02*
X169308148Y-173563533D01*
X169308148Y-173563533D02*
X169308148Y-175090882D01*
X169035943Y-170105243D02*
X169035943Y-173291328D01*
%TO.N,t4_r*%
X188580511Y-181876587D02*
X187667655Y-182789443D01*
X188912968Y-181544130D02*
X188580511Y-181876587D01*
X188912968Y-178423569D02*
X188912968Y-181544130D01*
X187667655Y-182789443D02*
X187667655Y-183834212D01*
%TO.N,pos*%
X179450000Y-158940000D02*
X178200000Y-160190000D01*
X182625000Y-158940000D02*
X179450000Y-158940000D01*
%TO.N,RAW*%
X185021000Y-157571000D02*
X185021000Y-154312530D01*
X183551000Y-161014000D02*
X183551000Y-159041000D01*
X183708470Y-153000000D02*
X182000000Y-153000000D01*
X179635500Y-150635500D02*
X177516500Y-150635500D01*
X182000000Y-153000000D02*
X179635500Y-150635500D01*
X177516500Y-150635500D02*
X176517000Y-151635000D01*
X185021000Y-154312530D02*
X183708470Y-153000000D01*
X182625000Y-161940000D02*
X183551000Y-161014000D01*
X183551000Y-159041000D02*
X185021000Y-157571000D01*
%TO.N,P8*%
X125100000Y-142220000D02*
X125100000Y-144380000D01*
X163200000Y-149840000D02*
X163200000Y-152000000D01*
X144150000Y-146030000D02*
X144150000Y-148190000D01*
X87000000Y-155810000D02*
X87000000Y-153650000D01*
X106050000Y-146030000D02*
X106050000Y-148190000D01*
%TO.N,P9*%
X144150000Y-129140000D02*
X144150000Y-126980000D01*
X87000000Y-134600000D02*
X87000000Y-136760000D01*
X106050000Y-126980000D02*
X106050000Y-129140000D01*
X125100000Y-123170000D02*
X125100000Y-125330000D01*
X163200000Y-132950000D02*
X163200000Y-130790000D01*
%TO.N,P10*%
X144150000Y-107930000D02*
X144150000Y-110090000D01*
X163200000Y-111740000D02*
X163200000Y-113900000D01*
X87000000Y-115550000D02*
X87000000Y-117710000D01*
X125100000Y-106280000D02*
X125100000Y-104120000D01*
X106050000Y-110090000D02*
X106050000Y-107930000D01*
%TO.N,P7*%
X167335946Y-180923887D02*
X167335946Y-179396538D01*
X167335946Y-179396538D02*
X167894996Y-178837488D01*
X186273015Y-186825028D02*
X186273015Y-187869797D01*
X148409157Y-176126130D02*
X148220901Y-176314386D01*
X186273015Y-187869797D02*
X185360159Y-188782653D01*
X128910000Y-172700000D02*
X128910000Y-174860000D01*
X148409157Y-174162605D02*
X148409157Y-176126130D01*
%TO.N,GND*%
X178200000Y-162190000D02*
X177049000Y-161039000D01*
X179941000Y-153154000D02*
X178422000Y-151635000D01*
X177049000Y-161039000D02*
X177049000Y-159289000D01*
X179941000Y-156397000D02*
X179941000Y-153154000D01*
X177049000Y-159289000D02*
X179941000Y-156397000D01*
%TD*%
M02*
