%TF.GenerationSoftware,KiCad,Pcbnew,9.0.6*%
%TF.CreationDate,2026-01-03T00:52:00-08:00*%
%TF.ProjectId,pcb_left,7063625f-6c65-4667-942e-6b696361645f,4.2.1*%
%TF.SameCoordinates,Original*%
%TF.FileFunction,Copper,L1,Top*%
%TF.FilePolarity,Positive*%
%FSLAX46Y46*%
G04 Gerber Fmt 4.6, Leading zero omitted, Abs format (unit mm)*
G04 Created by KiCad (PCBNEW 9.0.6) date 2026-01-03 00:52:00*
%MOMM*%
%LPD*%
G01*
G04 APERTURE LIST*
G04 Aperture macros list*
%AMRotRect*
0 Rectangle, with rotation*
0 The origin of the aperture is its center*
0 $1 length*
0 $2 width*
0 $3 Rotation angle, in degrees counterclockwise*
0 Add horizontal line*
21,1,$1,$2,0,0,$3*%
G04 Aperture macros list end*
%TA.AperFunction,WasherPad*%
%ADD10C,1.000000*%
%TD*%
%TA.AperFunction,ComponentPad*%
%ADD11R,1.778000X1.778000*%
%TD*%
%TA.AperFunction,SMDPad,CuDef*%
%ADD12R,1.200000X0.900000*%
%TD*%
%TA.AperFunction,ComponentPad*%
%ADD13C,1.905000*%
%TD*%
%TA.AperFunction,ComponentPad*%
%ADD14RotRect,1.778000X1.778000X65.000000*%
%TD*%
%TA.AperFunction,SMDPad,CuDef*%
%ADD15RotRect,0.900000X1.200000X65.000000*%
%TD*%
%TA.AperFunction,WasherPad*%
%ADD16C,4.000000*%
%TD*%
%TA.AperFunction,ComponentPad*%
%ADD17RotRect,1.778000X1.778000X85.000000*%
%TD*%
%TA.AperFunction,SMDPad,CuDef*%
%ADD18RotRect,0.900000X1.200000X85.000000*%
%TD*%
%TA.AperFunction,ComponentPad*%
%ADD19R,1.700000X1.200000*%
%TD*%
%TA.AperFunction,ComponentPad*%
%ADD20O,1.700000X1.200000*%
%TD*%
%TA.AperFunction,ComponentPad*%
%ADD21O,1.800000X2.750000*%
%TD*%
%TA.AperFunction,ComponentPad*%
%ADD22C,1.397000*%
%TD*%
%TA.AperFunction,ComponentPad*%
%ADD23RotRect,1.778000X1.778000X75.000000*%
%TD*%
%TA.AperFunction,SMDPad,CuDef*%
%ADD24RotRect,0.900000X1.200000X75.000000*%
%TD*%
%TA.AperFunction,Conductor*%
%ADD25C,0.200000*%
%TD*%
G04 APERTURE END LIST*
D10*
%TO.P,T1,*%
%TO.N,*%
X184700000Y-159690000D03*
X184700000Y-162690000D03*
%TD*%
D11*
%TO.P,D1,1*%
%TO.N,P8*%
X87000000Y-155810000D03*
D12*
X87000000Y-153650000D03*
%TO.P,D1,2*%
%TO.N,c1_r1*%
X87000000Y-150350000D03*
D13*
X87000000Y-148190000D03*
%TD*%
D11*
%TO.P,D16,1*%
%TO.N,P7*%
X128910000Y-174860000D03*
D12*
X128910000Y-172700000D03*
%TO.P,D16,2*%
%TO.N,t1_r*%
X128910000Y-169400000D03*
D13*
X128910000Y-167240000D03*
%TD*%
D11*
%TO.P,D12,1*%
%TO.N,P10*%
X144150000Y-110090000D03*
D12*
X144150000Y-107930000D03*
%TO.P,D12,2*%
%TO.N,c4_r3*%
X144150000Y-104630000D03*
D13*
X144150000Y-102470000D03*
%TD*%
D11*
%TO.P,D5,1*%
%TO.N,P9*%
X106050000Y-129140000D03*
D12*
X106050000Y-126980000D03*
%TO.P,D5,2*%
%TO.N,c2_r2*%
X106050000Y-123680000D03*
D13*
X106050000Y-121520000D03*
%TD*%
D11*
%TO.P,D2,1*%
%TO.N,P9*%
X87000000Y-136760000D03*
D12*
X87000000Y-134600000D03*
%TO.P,D2,2*%
%TO.N,c1_r2*%
X87000000Y-131300000D03*
D13*
X87000000Y-129140000D03*
%TD*%
D11*
%TO.P,D11,1*%
%TO.N,P9*%
X144150000Y-129140000D03*
D12*
X144150000Y-126980000D03*
%TO.P,D11,2*%
%TO.N,c4_r2*%
X144150000Y-123680000D03*
D13*
X144150000Y-121520000D03*
%TD*%
D14*
%TO.P,D19,1*%
%TO.N,P7*%
X185360159Y-188782653D03*
D15*
X186273015Y-186825028D03*
%TO.P,D19,2*%
%TO.N,t4_r*%
X187667655Y-183834212D03*
D13*
X188580511Y-181876587D03*
%TD*%
D11*
%TO.P,D8,1*%
%TO.N,P9*%
X125100000Y-125330000D03*
D12*
X125100000Y-123170000D03*
%TO.P,D8,2*%
%TO.N,c3_r2*%
X125100000Y-119870000D03*
D13*
X125100000Y-117710000D03*
%TD*%
D11*
%TO.P,D9,1*%
%TO.N,P10*%
X125100000Y-106280000D03*
D12*
X125100000Y-104120000D03*
%TO.P,D9,2*%
%TO.N,c3_r3*%
X125100000Y-100820000D03*
D13*
X125100000Y-98660000D03*
%TD*%
D11*
%TO.P,D10,1*%
%TO.N,P8*%
X144150000Y-148190000D03*
D12*
X144150000Y-146030000D03*
%TO.P,D10,2*%
%TO.N,c4_r1*%
X144150000Y-142730000D03*
D13*
X144150000Y-140570000D03*
%TD*%
D16*
%TO.P,,*%
%TO.N,*%
X137150000Y-151880000D03*
%TD*%
D17*
%TO.P,D17,1*%
%TO.N,P7*%
X148220901Y-176314386D03*
D18*
X148409157Y-174162605D03*
%TO.P,D17,2*%
%TO.N,t2_r*%
X148696771Y-170875163D03*
D13*
X148885027Y-168723382D03*
%TD*%
D19*
%TO.P,JST1,1*%
%TO.N,pos*%
X178200000Y-160190000D03*
D20*
%TO.P,JST1,2*%
%TO.N,GND*%
X178200000Y-162190000D03*
%TD*%
D11*
%TO.P,D6,1*%
%TO.N,P10*%
X106050000Y-110090000D03*
D12*
X106050000Y-107930000D03*
%TO.P,D6,2*%
%TO.N,c2_r3*%
X106050000Y-104630000D03*
D13*
X106050000Y-102470000D03*
%TD*%
D11*
%TO.P,D15,1*%
%TO.N,P10*%
X163200000Y-113900000D03*
D12*
X163200000Y-111740000D03*
%TO.P,D15,2*%
%TO.N,c5_r3*%
X163200000Y-108440000D03*
D13*
X163200000Y-106280000D03*
%TD*%
D11*
%TO.P,D7,1*%
%TO.N,P8*%
X125100000Y-144380000D03*
D12*
X125100000Y-142220000D03*
%TO.P,D7,2*%
%TO.N,c3_r1*%
X125100000Y-138920000D03*
D13*
X125100000Y-136760000D03*
%TD*%
D11*
%TO.P,D3,1*%
%TO.N,P10*%
X87000000Y-117710000D03*
D12*
X87000000Y-115550000D03*
%TO.P,D3,2*%
%TO.N,c1_r3*%
X87000000Y-112250000D03*
D13*
X87000000Y-110090000D03*
%TD*%
D11*
%TO.P,D13,1*%
%TO.N,P8*%
X163200000Y-152000000D03*
D12*
X163200000Y-149840000D03*
%TO.P,D13,2*%
%TO.N,c5_r1*%
X163200000Y-146540000D03*
D13*
X163200000Y-144380000D03*
%TD*%
D16*
%TO.P,,*%
%TO.N,*%
X80000000Y-140500000D03*
%TD*%
%TO.P,,*%
%TO.N,*%
X99050000Y-113830000D03*
%TD*%
D11*
%TO.P,D4,1*%
%TO.N,P8*%
X106050000Y-148190000D03*
D12*
X106050000Y-146030000D03*
%TO.P,D4,2*%
%TO.N,c2_r1*%
X106050000Y-142730000D03*
D13*
X106050000Y-140570000D03*
%TD*%
D11*
%TO.P,D14,1*%
%TO.N,P9*%
X163200000Y-132950000D03*
D12*
X163200000Y-130790000D03*
%TO.P,D14,2*%
%TO.N,c5_r2*%
X163200000Y-127490000D03*
D13*
X163200000Y-125330000D03*
%TD*%
D21*
%TO.P,_1,1*%
%TO.N,VCC5*%
X183820000Y-139095000D03*
%TO.P,_1,2*%
%TO.N,GND*%
X181280000Y-139095000D03*
%TO.P,_1,3*%
%TO.N,VCC3*%
X178740000Y-139095000D03*
%TO.P,_1,4*%
%TO.N,P10*%
X176200000Y-139095000D03*
%TO.P,_1,5*%
%TO.N,P9*%
X173660000Y-139095000D03*
%TO.P,_1,6*%
%TO.N,P8*%
X171120000Y-139095000D03*
%TO.P,_1,7*%
%TO.N,P7*%
X168580000Y-139095000D03*
D22*
%TO.P,_1,8*%
%TO.N,CLK*%
X184772000Y-145920000D03*
%TO.P,_1,9*%
%TO.N,GND*%
X182232000Y-145920000D03*
D21*
%TO.P,_1,12*%
%TO.N,P6*%
X168580000Y-155285000D03*
%TO.P,_1,13*%
%TO.N,P5*%
X171120000Y-155285000D03*
%TO.P,_1,14*%
%TO.N,P4*%
X173660000Y-155285000D03*
%TO.P,_1,15*%
%TO.N,P3*%
X176200000Y-155285000D03*
%TO.P,_1,16*%
%TO.N,P2*%
X178740000Y-155285000D03*
%TO.P,_1,17*%
%TO.N,P1*%
X181280000Y-155285000D03*
%TO.P,_1,18*%
%TO.N,P0*%
X183820000Y-155285000D03*
D22*
%TO.P,_1,19*%
%TO.N,DIO*%
X184772000Y-148460000D03*
%TO.P,_1,20*%
%TO.N,RST*%
X182232000Y-148460000D03*
%TO.P,_1,21*%
%TO.N,RAW*%
X176517000Y-151635000D03*
%TO.P,_1,22*%
%TO.N,GND*%
X178422000Y-151635000D03*
%TD*%
D16*
%TO.P,,*%
%TO.N,*%
X156200000Y-117640000D03*
%TD*%
%TO.P,,*%
%TO.N,*%
X172772738Y-172224612D03*
%TD*%
D23*
%TO.P,D18,1*%
%TO.N,P7*%
X167335945Y-180923887D03*
D24*
X167894997Y-178837488D03*
%TO.P,D18,2*%
%TO.N,t3_r*%
X168749097Y-175649932D03*
D13*
X169308149Y-173563533D03*
%TD*%
D25*
%TO.N,c1_r1*%
X87000000Y-148190000D02*
X87000000Y-150350000D01*
%TO.N,c1_r2*%
X87000000Y-129140000D02*
X87000000Y-131300000D01*
%TO.N,c1_r3*%
X87000000Y-110090000D02*
X87000000Y-112250000D01*
%TO.N,c2_r1*%
X106050000Y-140570000D02*
X106050000Y-142730000D01*
%TO.N,c2_r2*%
X106050000Y-121520000D02*
X106050000Y-123680000D01*
%TO.N,c2_r3*%
X106050000Y-102470000D02*
X106050000Y-104630000D01*
%TO.N,c3_r1*%
X125100000Y-136760000D02*
X125100000Y-138920000D01*
%TO.N,c3_r2*%
X125100000Y-117710000D02*
X125100000Y-119870000D01*
%TO.N,c3_r3*%
X125100000Y-98660000D02*
X125100000Y-100820000D01*
%TO.N,c4_r1*%
X144150000Y-140570000D02*
X144150000Y-142730000D01*
%TO.N,c4_r2*%
X144150000Y-121520000D02*
X144150000Y-123680000D01*
%TO.N,c4_r3*%
X144150000Y-102470000D02*
X144150000Y-104630000D01*
%TO.N,c5_r1*%
X163200000Y-144380000D02*
X163200000Y-146540000D01*
%TO.N,c5_r2*%
X163200000Y-125330000D02*
X163200000Y-127490000D01*
%TO.N,c5_r3*%
X163200000Y-106280000D02*
X163200000Y-108440000D01*
%TO.N,t1_r*%
X128910000Y-169400000D02*
X128910000Y-167240000D01*
%TO.N,t2_r*%
X148885027Y-168723382D02*
X148885027Y-170686907D01*
X148885027Y-170686907D02*
X148696771Y-170875163D01*
%TO.N,t3_r*%
X169308148Y-175090882D02*
X168749098Y-175649932D01*
X169308148Y-173563533D02*
X169308148Y-175090882D01*
%TO.N,t4_r*%
X188580511Y-181876587D02*
X187667655Y-182789443D01*
X187667655Y-182789443D02*
X187667655Y-183834212D01*
%TO.N,P8*%
X167000000Y-138000000D02*
X167000000Y-148200000D01*
X171120000Y-138120000D02*
X170401000Y-137401000D01*
X94620000Y-148190000D02*
X87000000Y-155810000D01*
X106050000Y-148190000D02*
X94620000Y-148190000D01*
X121290000Y-148190000D02*
X125100000Y-144380000D01*
X147960000Y-152000000D02*
X163200000Y-152000000D01*
X144150000Y-148190000D02*
X144150000Y-146030000D01*
X128910000Y-148190000D02*
X144150000Y-148190000D01*
X167000000Y-148200000D02*
X163200000Y-152000000D01*
X170401000Y-137401000D02*
X167599000Y-137401000D01*
X106050000Y-148190000D02*
X106050000Y-146030000D01*
X87000000Y-155810000D02*
X87000000Y-153650000D01*
X144150000Y-148190000D02*
X147960000Y-152000000D01*
X163200000Y-152000000D02*
X163200000Y-149840000D01*
X171120000Y-139570000D02*
X171120000Y-138120000D01*
X167599000Y-137401000D02*
X167000000Y-138000000D01*
X125100000Y-144380000D02*
X125100000Y-142220000D01*
X125100000Y-144380000D02*
X128910000Y-148190000D01*
X106050000Y-148190000D02*
X121290000Y-148190000D01*
%TO.N,P9*%
X94620000Y-129140000D02*
X87000000Y-136760000D01*
X128910000Y-129140000D02*
X125100000Y-125330000D01*
X125100000Y-125330000D02*
X125100000Y-123170000D01*
X147960000Y-132950000D02*
X144150000Y-129140000D01*
X144150000Y-129140000D02*
X144150000Y-126980000D01*
X172000000Y-137000000D02*
X167250000Y-137000000D01*
X121290000Y-129140000D02*
X125100000Y-125330000D01*
X167250000Y-137000000D02*
X163200000Y-132950000D01*
X173660000Y-139570000D02*
X173660000Y-138660000D01*
X106050000Y-129140000D02*
X94620000Y-129140000D01*
X163200000Y-132950000D02*
X163200000Y-130790000D01*
X106050000Y-129140000D02*
X106050000Y-126980000D01*
X87000000Y-136760000D02*
X87000000Y-134600000D01*
X106050000Y-129140000D02*
X121290000Y-129140000D01*
X173660000Y-138660000D02*
X172000000Y-137000000D01*
X144150000Y-129140000D02*
X128910000Y-129140000D01*
X163200000Y-132950000D02*
X147960000Y-132950000D01*
%TO.N,P10*%
X106050000Y-110090000D02*
X94620000Y-110090000D01*
X125100000Y-106280000D02*
X128910000Y-110090000D01*
X144150000Y-110090000D02*
X144150000Y-107930000D01*
X106050000Y-110090000D02*
X106050000Y-107930000D01*
X176200000Y-138200000D02*
X176200000Y-139570000D01*
X174599000Y-136599000D02*
X176200000Y-138200000D01*
X106050000Y-110090000D02*
X121290000Y-110090000D01*
X167599000Y-136599000D02*
X174599000Y-136599000D01*
X87000000Y-115550000D02*
X87000000Y-117710000D01*
X144150000Y-110090000D02*
X147960000Y-113900000D01*
X94620000Y-110090000D02*
X87000000Y-117710000D01*
X147960000Y-113900000D02*
X163200000Y-113900000D01*
X166000000Y-116700000D02*
X166000000Y-135000000D01*
X163200000Y-113900000D02*
X166000000Y-116700000D01*
X128910000Y-110090000D02*
X144150000Y-110090000D01*
X166000000Y-135000000D02*
X167599000Y-136599000D01*
X121290000Y-110090000D02*
X125100000Y-106280000D01*
X163200000Y-113900000D02*
X163200000Y-111740000D01*
X125100000Y-106280000D02*
X125100000Y-104120000D01*
%TO.N,P7*%
X148220901Y-176314386D02*
X165000000Y-159535287D01*
X148220901Y-176314386D02*
X162726445Y-176314386D01*
X167335946Y-180923887D02*
X167335946Y-179396538D01*
X146766515Y-174860000D02*
X148220901Y-176314386D01*
X162726445Y-176314386D02*
X167335946Y-180923887D01*
X148409157Y-174162605D02*
X148409157Y-176126130D01*
X128910000Y-174860000D02*
X146766515Y-174860000D01*
X186273015Y-187869797D02*
X185360159Y-188782653D01*
X181782653Y-188782653D02*
X185360159Y-188782653D01*
X148409157Y-176126130D02*
X148220901Y-176314386D01*
X168580000Y-149420000D02*
X165000000Y-153000000D01*
X167335946Y-180923887D02*
X173923887Y-180923887D01*
X186273015Y-186825028D02*
X186273015Y-187869797D01*
X165000000Y-159535287D02*
X165000000Y-153000000D01*
X128910000Y-174860000D02*
X128910000Y-172700000D01*
X168580000Y-139570000D02*
X168580000Y-149420000D01*
X173923887Y-180923887D02*
X181782653Y-188782653D01*
X167335946Y-179396538D02*
X167894996Y-178837488D01*
%TO.N,GND*%
X178422000Y-149730000D02*
X182232000Y-145920000D01*
X182232000Y-140522000D02*
X181280000Y-139570000D01*
X182232000Y-145920000D02*
X182232000Y-140522000D01*
X178422000Y-151635000D02*
X178422000Y-149730000D01*
%TD*%
M02*
