M48
; DRILL file {KiCad 9.0.6} date 2026-01-03T00:51:59-0800
; FORMAT={-:-/ absolute / metric / decimal}
; #@! TF.CreationDate,2026-01-03T00:51:59-08:00
; #@! TF.GenerationSoftware,Kicad,Pcbnew,9.0.6
; #@! TF.FileFunction,NonPlated,1,2,NPTH
FMAT,2
METRIC
; #@! TA.AperFunction,NonPlated,NPTH,ComponentDrill
T1C0.900
; #@! TA.AperFunction,NonPlated,NPTH,ComponentDrill
T2C1.702
; #@! TA.AperFunction,NonPlated,NPTH,ComponentDrill
T3C2.200
; #@! TA.AperFunction,NonPlated,NPTH,ComponentDrill
T4C3.000
; #@! TA.AperFunction,NonPlated,NPTH,ComponentDrill
T5C3.988
%
G90
G05
T1
X184.7Y-159.69
X184.7Y-162.69
T2
X74.92Y-111.9
X74.92Y-130.95
X74.92Y-150.0
X85.08Y-111.9
X85.08Y-130.95
X85.08Y-150.0
X93.97Y-104.28
X93.97Y-123.33
X93.97Y-142.38
X104.13Y-104.28
X104.13Y-123.33
X104.13Y-142.38
X113.02Y-100.47
X113.02Y-119.52
X113.02Y-138.57
X116.83Y-169.05
X123.18Y-100.47
X123.18Y-119.52
X123.18Y-138.57
X126.99Y-169.05
X132.07Y-104.28
X132.07Y-123.33
X132.07Y-142.38
X136.693Y-169.474
X142.23Y-104.28
X142.23Y-123.33
X142.23Y-142.38
X146.815Y-170.359
X151.12Y-108.09
X151.12Y-127.14
X151.12Y-146.19
X157.171Y-172.185
X161.28Y-108.09
X161.28Y-127.14
X161.28Y-146.19
X166.985Y-174.815
X176.867Y-178.412
X186.075Y-182.706
T3
X80.0Y-140.5
X99.05Y-113.83
X137.15Y-151.88
X156.2Y-117.64
X172.773Y-172.225
T4
X76.19Y-109.36
X76.19Y-128.41
X76.19Y-147.46
X82.54Y-106.82
X82.54Y-125.87
X82.54Y-144.92
X95.24Y-101.74
X95.24Y-120.79
X95.24Y-139.84
X101.59Y-99.2
X101.59Y-118.25
X101.59Y-137.3
X114.29Y-97.93
X114.29Y-116.98
X114.29Y-136.03
X118.1Y-166.51
X120.64Y-95.39
X120.64Y-114.44
X120.64Y-133.49
X124.45Y-163.97
X133.34Y-101.74
X133.34Y-120.79
X133.34Y-139.84
X138.18Y-167.054
X139.69Y-99.2
X139.69Y-118.25
X139.69Y-137.3
X144.727Y-165.077
X152.39Y-105.55
X152.39Y-124.6
X152.39Y-143.65
X158.74Y-103.01
X158.74Y-122.06
X158.74Y-141.11
X159.055Y-170.061
X165.846Y-169.251
X179.092Y-176.646
X185.92Y-177.028
T5
X80.0Y-111.9
X80.0Y-130.95
X80.0Y-150.0
X99.05Y-104.28
X99.05Y-123.33
X99.05Y-142.38
X118.1Y-100.47
X118.1Y-119.52
X118.1Y-138.57
X121.91Y-169.05
X137.15Y-104.28
X137.15Y-123.33
X137.15Y-142.38
X141.754Y-169.916
X156.2Y-108.09
X156.2Y-127.14
X156.2Y-146.19
X162.078Y-173.5
X181.471Y-180.559
M30
