<svg width="270.9mm" height="101.631mm" viewBox="0 0 270.9 101.631" xmlns="http://www.w3.org/2000/svg"><g id="svgGroup" stroke-linecap="round" fill-rule="evenodd" font-size="9pt" stroke="#000" stroke-width="0.25mm" fill="none" style="stroke:#000;stroke-width:0.25mm;fill:none"><path d="M 106.247 77.046 L 123.014 84.865 L 115.196 101.631 L 98.429 93.813 L 106.247 77.046 Z M 147.886 84.865 L 164.653 77.046 L 172.471 93.813 L 155.704 101.631 L 147.886 84.865 Z M 168.243 75.739 L 186.113 70.951 L 190.901 88.821 L 173.031 93.609 L 168.243 75.739 Z M 84.787 70.951 L 102.657 75.739 L 97.869 93.609 L 79.999 88.821 L 84.787 70.951 Z M 0 49.53 L 18.5 49.53 L 18.5 68.03 L 0 68.03 L 0 49.53 Z M 0 30.48 L 18.5 30.48 L 18.5 48.98 L 0 48.98 L 0 30.48 Z M 0 11.43 L 18.5 11.43 L 18.5 29.93 L 0 29.93 L 0 11.43 Z M 19.05 41.91 L 37.55 41.91 L 37.55 60.41 L 19.05 60.41 L 19.05 41.91 Z M 19.05 22.86 L 37.55 22.86 L 37.55 41.36 L 19.05 41.36 L 19.05 22.86 Z M 19.05 3.81 L 37.55 3.81 L 37.55 22.31 L 19.05 22.31 L 19.05 3.81 Z M 38.1 38.1 L 56.6 38.1 L 56.6 56.6 L 38.1 56.6 L 38.1 38.1 Z M 38.1 19.05 L 56.6 19.05 L 56.6 37.55 L 38.1 37.55 L 38.1 19.05 Z M 38.1 0 L 56.6 0 L 56.6 18.5 L 38.1 18.5 L 38.1 0 Z M 57.15 41.91 L 75.65 41.91 L 75.65 60.41 L 57.15 60.41 L 57.15 41.91 Z M 57.15 22.86 L 75.65 22.86 L 75.65 41.36 L 57.15 41.36 L 57.15 22.86 Z M 57.15 3.81 L 75.65 3.81 L 75.65 22.31 L 57.15 22.31 L 57.15 3.81 Z M 76.2 45.72 L 94.7 45.72 L 94.7 64.22 L 76.2 64.22 L 76.2 45.72 Z M 76.2 26.67 L 94.7 26.67 L 94.7 45.17 L 76.2 45.17 L 76.2 26.67 Z M 76.2 7.62 L 94.7 7.62 L 94.7 26.12 L 76.2 26.12 L 76.2 7.62 Z M 41.91 68.58 L 60.41 68.58 L 60.41 87.08 L 41.91 87.08 L 41.91 68.58 Z M 252.4 49.53 L 270.9 49.53 L 270.9 68.03 L 252.4 68.03 L 252.4 49.53 Z M 252.4 30.48 L 270.9 30.48 L 270.9 48.98 L 252.4 48.98 L 252.4 30.48 Z M 252.4 11.43 L 270.9 11.43 L 270.9 29.93 L 252.4 29.93 L 252.4 11.43 Z M 233.35 41.91 L 251.85 41.91 L 251.85 60.41 L 233.35 60.41 L 233.35 41.91 Z M 233.35 22.86 L 251.85 22.86 L 251.85 41.36 L 233.35 41.36 L 233.35 22.86 Z M 233.35 3.81 L 251.85 3.81 L 251.85 22.31 L 233.35 22.31 L 233.35 3.81 Z M 214.3 38.1 L 232.8 38.1 L 232.8 56.6 L 214.3 56.6 L 214.3 38.1 Z M 214.3 19.05 L 232.8 19.05 L 232.8 37.55 L 214.3 37.55 L 214.3 19.05 Z M 214.3 0 L 232.8 0 L 232.8 18.5 L 214.3 18.5 L 214.3 0 Z M 195.25 41.91 L 213.75 41.91 L 213.75 60.41 L 195.25 60.41 L 195.25 41.91 Z M 195.25 22.86 L 213.75 22.86 L 213.75 41.36 L 195.25 41.36 L 195.25 22.86 Z M 195.25 3.81 L 213.75 3.81 L 213.75 22.31 L 195.25 22.31 L 195.25 3.81 Z M 176.2 45.72 L 194.7 45.72 L 194.7 64.22 L 176.2 64.22 L 176.2 45.72 Z M 176.2 26.67 L 194.7 26.67 L 194.7 45.17 L 176.2 45.17 L 176.2 26.67 Z M 176.2 7.62 L 194.7 7.62 L 194.7 26.12 L 176.2 26.12 L 176.2 7.62 Z M 210.49 68.58 L 228.99 68.58 L 228.99 87.08 L 210.49 87.08 L 210.49 68.58 Z M 189.875 70.288 L 208.305 68.675 L 209.917 87.105 L 191.487 88.717 L 189.875 70.288 Z M 62.595 68.675 L 81.025 70.288 L 79.413 88.717 L 60.983 87.105 L 62.595 68.675 Z" vector-effect="non-scaling-stroke"/></g></svg>