%TF.GenerationSoftware,KiCad,Pcbnew,9.0.6*%
%TF.CreationDate,2026-01-03T00:52:40-08:00*%
%TF.ProjectId,pcb_right,7063625f-7269-4676-9874-2e6b69636164,4.2.1*%
%TF.SameCoordinates,Original*%
%TF.FileFunction,Legend,Top*%
%TF.FilePolarity,Positive*%
%FSLAX46Y46*%
G04 Gerber Fmt 4.6, Leading zero omitted, Abs format (unit mm)*
G04 Created by KiCad (PCBNEW 9.0.6) date 2026-01-03 00:52:40*
%MOMM*%
%LPD*%
G01*
G04 APERTURE LIST*
%ADD10C,0.100000*%
%ADD11C,4.000000*%
G04 APERTURE END LIST*
D10*
%TO.C,D5*%
X319950000Y-125080000D02*
X320750000Y-125080000D01*
X320350000Y-125080000D02*
X320350000Y-124580000D01*
X320350000Y-125680000D02*
X319800000Y-125680000D01*
X320350000Y-125680000D02*
X319950000Y-125080000D01*
X320350000Y-125680000D02*
X320900000Y-125680000D01*
X320350000Y-126080000D02*
X320350000Y-125680000D01*
X320750000Y-125080000D02*
X320350000Y-125680000D01*
%TO.C,D2*%
X339000000Y-132700000D02*
X339800000Y-132700000D01*
X339400000Y-132700000D02*
X339400000Y-132200000D01*
X339400000Y-133300000D02*
X338850000Y-133300000D01*
X339400000Y-133300000D02*
X339000000Y-132700000D01*
X339400000Y-133300000D02*
X339950000Y-133300000D01*
X339400000Y-133700000D02*
X339400000Y-133300000D01*
X339800000Y-132700000D02*
X339400000Y-133300000D01*
%TO.C,D9*%
X300900000Y-102220000D02*
X301700000Y-102220000D01*
X301300000Y-102220000D02*
X301300000Y-101720000D01*
X301300000Y-102820000D02*
X300750000Y-102820000D01*
X301300000Y-102820000D02*
X300900000Y-102220000D01*
X301300000Y-102820000D02*
X301850000Y-102820000D01*
X301300000Y-103220000D02*
X301300000Y-102820000D01*
X301700000Y-102220000D02*
X301300000Y-102820000D01*
%TO.C,D14*%
X262800000Y-128890000D02*
X263600000Y-128890000D01*
X263200000Y-128890000D02*
X263200000Y-128390000D01*
X263200000Y-129490000D02*
X262650000Y-129490000D01*
X263200000Y-129490000D02*
X262800000Y-128890000D01*
X263200000Y-129490000D02*
X263750000Y-129490000D01*
X263200000Y-129890000D02*
X263200000Y-129490000D01*
X263600000Y-128890000D02*
X263200000Y-129490000D01*
%TO.C,D3*%
X339000000Y-113650000D02*
X339800000Y-113650000D01*
X339400000Y-113650000D02*
X339400000Y-113150000D01*
X339400000Y-114250000D02*
X338850000Y-114250000D01*
X339400000Y-114250000D02*
X339000000Y-113650000D01*
X339400000Y-114250000D02*
X339950000Y-114250000D01*
X339400000Y-114650000D02*
X339400000Y-114250000D01*
X339800000Y-113650000D02*
X339400000Y-114250000D01*
%TO.C,D18*%
X257149840Y-173482289D02*
X257922581Y-173275234D01*
X257536210Y-173378762D02*
X257406801Y-172895799D01*
X257691502Y-173958317D02*
X257149840Y-173482289D01*
X257691502Y-173958317D02*
X257160241Y-174100668D01*
X257691502Y-173958317D02*
X258222761Y-173815967D01*
X257795029Y-174344687D02*
X257691502Y-173958317D01*
X257922581Y-173275234D02*
X257691502Y-173958317D01*
%TO.C,D15*%
X262800000Y-109840000D02*
X263600000Y-109840000D01*
X263200000Y-109840000D02*
X263200000Y-109340000D01*
X263200000Y-110440000D02*
X262650000Y-110440000D01*
X263200000Y-110440000D02*
X262800000Y-109840000D01*
X263200000Y-110440000D02*
X263750000Y-110440000D01*
X263200000Y-110840000D02*
X263200000Y-110440000D01*
X263600000Y-109840000D02*
X263200000Y-110440000D01*
%TO.C,D11*%
X281850000Y-125080000D02*
X282650000Y-125080000D01*
X282250000Y-125080000D02*
X282250000Y-124580000D01*
X282250000Y-125680000D02*
X281700000Y-125680000D01*
X282250000Y-125680000D02*
X281850000Y-125080000D01*
X282250000Y-125680000D02*
X282800000Y-125680000D01*
X282250000Y-126080000D02*
X282250000Y-125680000D01*
X282650000Y-125080000D02*
X282250000Y-125680000D01*
%TO.C,D4*%
X319950000Y-144130000D02*
X320750000Y-144130000D01*
X320350000Y-144130000D02*
X320350000Y-143630000D01*
X320350000Y-144730000D02*
X319800000Y-144730000D01*
X320350000Y-144730000D02*
X319950000Y-144130000D01*
X320350000Y-144730000D02*
X320900000Y-144730000D01*
X320350000Y-145130000D02*
X320350000Y-144730000D01*
X320750000Y-144130000D02*
X320350000Y-144730000D01*
%TO.C,D16*%
X297090000Y-170800000D02*
X297890000Y-170800000D01*
X297490000Y-170800000D02*
X297490000Y-170300000D01*
X297490000Y-171400000D02*
X296940000Y-171400000D01*
X297490000Y-171400000D02*
X297090000Y-170800000D01*
X297490000Y-171400000D02*
X298040000Y-171400000D01*
X297490000Y-171800000D02*
X297490000Y-171400000D01*
X297890000Y-170800000D02*
X297490000Y-171400000D01*
%TO.C,D8*%
X300900000Y-121270000D02*
X301700000Y-121270000D01*
X301300000Y-121270000D02*
X301300000Y-120770000D01*
X301300000Y-121870000D02*
X300750000Y-121870000D01*
X301300000Y-121870000D02*
X300900000Y-121270000D01*
X301300000Y-121870000D02*
X301850000Y-121870000D01*
X301300000Y-122270000D02*
X301300000Y-121870000D01*
X301700000Y-121270000D02*
X301300000Y-121870000D01*
%TO.C,D1*%
X339000000Y-151750000D02*
X339800000Y-151750000D01*
X339400000Y-151750000D02*
X339400000Y-151250000D01*
X339400000Y-152350000D02*
X338850000Y-152350000D01*
X339400000Y-152350000D02*
X339000000Y-151750000D01*
X339400000Y-152350000D02*
X339950000Y-152350000D01*
X339400000Y-152750000D02*
X339400000Y-152350000D01*
X339800000Y-151750000D02*
X339400000Y-152350000D01*
%TO.C,D10*%
X281850000Y-144130000D02*
X282650000Y-144130000D01*
X282250000Y-144130000D02*
X282250000Y-143630000D01*
X282250000Y-144730000D02*
X281700000Y-144730000D01*
X282250000Y-144730000D02*
X281850000Y-144130000D01*
X282250000Y-144730000D02*
X282800000Y-144730000D01*
X282250000Y-145130000D02*
X282250000Y-144730000D01*
X282650000Y-144130000D02*
X282250000Y-144730000D01*
%TO.C,D13*%
X262800000Y-147940000D02*
X263600000Y-147940000D01*
X263200000Y-147940000D02*
X263200000Y-147440000D01*
X263200000Y-148540000D02*
X262650000Y-148540000D01*
X263200000Y-148540000D02*
X262800000Y-147940000D01*
X263200000Y-148540000D02*
X263750000Y-148540000D01*
X263200000Y-148940000D02*
X263200000Y-148540000D01*
X263600000Y-147940000D02*
X263200000Y-148540000D01*
%TO.C,D17*%
X277373494Y-171084517D02*
X278170450Y-171014792D01*
X277771972Y-171049654D02*
X277728394Y-170551557D01*
X277824267Y-171647371D02*
X277276358Y-171695307D01*
X277824267Y-171647371D02*
X277373494Y-171084517D01*
X277824267Y-171647371D02*
X278372173Y-171599435D01*
X277859128Y-172045849D02*
X277824267Y-171647371D01*
X278170450Y-171014792D02*
X277824267Y-171647371D01*
%TO.C,D6*%
X319950000Y-106030000D02*
X320750000Y-106030000D01*
X320350000Y-106030000D02*
X320350000Y-105530000D01*
X320350000Y-106630000D02*
X319800000Y-106630000D01*
X320350000Y-106630000D02*
X319950000Y-106030000D01*
X320350000Y-106630000D02*
X320900000Y-106630000D01*
X320350000Y-107030000D02*
X320350000Y-106630000D01*
X320750000Y-106030000D02*
X320350000Y-106630000D01*
%TO.C,D7*%
X300900000Y-140320000D02*
X301700000Y-140320000D01*
X301300000Y-140320000D02*
X301300000Y-139820000D01*
X301300000Y-140920000D02*
X300750000Y-140920000D01*
X301300000Y-140920000D02*
X300900000Y-140320000D01*
X301300000Y-140920000D02*
X301850000Y-140920000D01*
X301300000Y-141320000D02*
X301300000Y-140920000D01*
X301700000Y-140320000D02*
X301300000Y-140920000D01*
%TO.C,D12*%
X281850000Y-106030000D02*
X282650000Y-106030000D01*
X282250000Y-106030000D02*
X282250000Y-105530000D01*
X282250000Y-106630000D02*
X281700000Y-106630000D01*
X282250000Y-106630000D02*
X281850000Y-106030000D01*
X282250000Y-106630000D02*
X282800000Y-106630000D01*
X282250000Y-107030000D02*
X282250000Y-106630000D01*
X282650000Y-106030000D02*
X282250000Y-106630000D01*
%TO.C,D19*%
X237649796Y-179355435D02*
X238374843Y-179017341D01*
X238012319Y-179186388D02*
X237801010Y-178733234D01*
X238265890Y-179730173D02*
X237649796Y-179355435D01*
X238265890Y-179730173D02*
X237767421Y-179962613D01*
X238265890Y-179730173D02*
X238764360Y-179497733D01*
X238374843Y-179017341D02*
X238265890Y-179730173D01*
X238434938Y-180092696D02*
X238265890Y-179730173D01*
%TD*%
D11*
%TO.C,*%
X313350000Y-113830000D03*
%TD*%
%TO.C,*%
X238661336Y-172483431D03*
%TD*%
%TO.C,*%
X332400000Y-140500000D03*
%TD*%
%TO.C,*%
X275250000Y-151880000D03*
%TD*%
%TO.C,*%
X256200000Y-117640000D03*
%TD*%
M02*
