%TF.GenerationSoftware,KiCad,Pcbnew,9.0.6*%
%TF.CreationDate,2026-01-03T00:52:40-08:00*%
%TF.ProjectId,pcb_right,7063625f-7269-4676-9874-2e6b69636164,4.2.1*%
%TF.SameCoordinates,Original*%
%TF.FileFunction,Copper,L1,Top*%
%TF.FilePolarity,Positive*%
%FSLAX46Y46*%
G04 Gerber Fmt 4.6, Leading zero omitted, Abs format (unit mm)*
G04 Created by KiCad (PCBNEW 9.0.6) date 2026-01-03 00:52:40*
%MOMM*%
%LPD*%
G01*
G04 APERTURE LIST*
G04 Aperture macros list*
%AMRotRect*
0 Rectangle, with rotation*
0 The origin of the aperture is its center*
0 $1 length*
0 $2 width*
0 $3 Rotation angle, in degrees counterclockwise*
0 Add horizontal line*
21,1,$1,$2,0,0,$3*%
G04 Aperture macros list end*
%TA.AperFunction,WasherPad*%
%ADD10C,1.000000*%
%TD*%
%TA.AperFunction,ComponentPad*%
%ADD11R,1.778000X1.778000*%
%TD*%
%TA.AperFunction,SMDPad,CuDef*%
%ADD12R,1.200000X0.900000*%
%TD*%
%TA.AperFunction,ComponentPad*%
%ADD13C,1.905000*%
%TD*%
%TA.AperFunction,ComponentPad*%
%ADD14O,1.800000X2.750000*%
%TD*%
%TA.AperFunction,ComponentPad*%
%ADD15C,1.397000*%
%TD*%
%TA.AperFunction,WasherPad*%
%ADD16C,4.000000*%
%TD*%
%TA.AperFunction,ComponentPad*%
%ADD17RotRect,1.778000X1.778000X105.000000*%
%TD*%
%TA.AperFunction,SMDPad,CuDef*%
%ADD18RotRect,0.900000X1.200000X105.000000*%
%TD*%
%TA.AperFunction,ComponentPad*%
%ADD19R,1.700000X1.200000*%
%TD*%
%TA.AperFunction,ComponentPad*%
%ADD20O,1.700000X1.200000*%
%TD*%
%TA.AperFunction,ComponentPad*%
%ADD21RotRect,1.778000X1.778000X95.000000*%
%TD*%
%TA.AperFunction,SMDPad,CuDef*%
%ADD22RotRect,0.900000X1.200000X95.000000*%
%TD*%
%TA.AperFunction,ComponentPad*%
%ADD23RotRect,1.778000X1.778000X115.000000*%
%TD*%
%TA.AperFunction,SMDPad,CuDef*%
%ADD24RotRect,0.900000X1.200000X115.000000*%
%TD*%
%TA.AperFunction,Conductor*%
%ADD25C,0.200000*%
%TD*%
G04 APERTURE END LIST*
D10*
%TO.P,T1,*%
%TO.N,*%
X227700000Y-162690000D03*
X227700000Y-159690000D03*
%TD*%
D11*
%TO.P,D5,1*%
%TO.N,P9*%
X320350000Y-129140000D03*
D12*
X320350000Y-126980000D03*
%TO.P,D5,2*%
%TO.N,mirror_c2_r2*%
X320350000Y-123680000D03*
D13*
X320350000Y-121520000D03*
%TD*%
D11*
%TO.P,D2,1*%
%TO.N,P9*%
X339400000Y-136760000D03*
D12*
X339400000Y-134600000D03*
%TO.P,D2,2*%
%TO.N,mirror_c1_r2*%
X339400000Y-131300000D03*
D13*
X339400000Y-129140000D03*
%TD*%
D11*
%TO.P,D9,1*%
%TO.N,P10*%
X301300000Y-106280000D03*
D12*
X301300000Y-104120000D03*
%TO.P,D9,2*%
%TO.N,mirror_c3_r3*%
X301300000Y-100820000D03*
D13*
X301300000Y-98660000D03*
%TD*%
D14*
%TO.P,_1,1*%
%TO.N,VCC5*%
X228580000Y-155285000D03*
%TO.P,_1,2*%
%TO.N,GND*%
X231120000Y-155285000D03*
%TO.P,_1,3*%
%TO.N,VCC3*%
X233660000Y-155285000D03*
%TO.P,_1,4*%
%TO.N,P10*%
X236200000Y-155285000D03*
%TO.P,_1,5*%
%TO.N,P9*%
X238740000Y-155285000D03*
%TO.P,_1,6*%
%TO.N,P8*%
X241280000Y-155285000D03*
%TO.P,_1,7*%
%TO.N,P7*%
X243820000Y-155285000D03*
D15*
%TO.P,_1,8*%
%TO.N,CLK*%
X227628000Y-148460000D03*
%TO.P,_1,9*%
%TO.N,GND*%
X230168000Y-148460000D03*
D14*
%TO.P,_1,12*%
%TO.N,P6*%
X243820000Y-139095000D03*
%TO.P,_1,13*%
%TO.N,P5*%
X241280000Y-139095000D03*
%TO.P,_1,14*%
%TO.N,P4*%
X238740000Y-139095000D03*
%TO.P,_1,15*%
%TO.N,P3*%
X236200000Y-139095000D03*
%TO.P,_1,16*%
%TO.N,P2*%
X233660000Y-139095000D03*
%TO.P,_1,17*%
%TO.N,P1*%
X231120000Y-139095000D03*
%TO.P,_1,18*%
%TO.N,P0*%
X228580000Y-139095000D03*
D15*
%TO.P,_1,19*%
%TO.N,DIO*%
X227628000Y-145920000D03*
%TO.P,_1,20*%
%TO.N,RST*%
X230168000Y-145920000D03*
%TO.P,_1,21*%
%TO.N,RAW*%
X235883000Y-142745000D03*
%TO.P,_1,22*%
%TO.N,GND*%
X233978000Y-142745000D03*
%TD*%
D16*
%TO.P,,*%
%TO.N,*%
X313350000Y-113830000D03*
%TD*%
D11*
%TO.P,D14,1*%
%TO.N,P9*%
X263200000Y-132950000D03*
D12*
X263200000Y-130790000D03*
%TO.P,D14,2*%
%TO.N,mirror_c5_r2*%
X263200000Y-127490000D03*
D13*
X263200000Y-125330000D03*
%TD*%
D11*
%TO.P,D3,1*%
%TO.N,P10*%
X339400000Y-117710000D03*
D12*
X339400000Y-115550000D03*
%TO.P,D3,2*%
%TO.N,mirror_c1_r3*%
X339400000Y-112250000D03*
D13*
X339400000Y-110090000D03*
%TD*%
D17*
%TO.P,D18,1*%
%TO.N,P7*%
X258587017Y-177300420D03*
D18*
X258027965Y-175214021D03*
%TO.P,D18,2*%
%TO.N,mirror_t3_r*%
X257173865Y-172026465D03*
D13*
X256614813Y-169940066D03*
%TD*%
D11*
%TO.P,D15,1*%
%TO.N,P10*%
X263200000Y-113900000D03*
D12*
X263200000Y-111740000D03*
%TO.P,D15,2*%
%TO.N,mirror_c5_r3*%
X263200000Y-108440000D03*
D13*
X263200000Y-106280000D03*
%TD*%
D11*
%TO.P,D11,1*%
%TO.N,P9*%
X282250000Y-129140000D03*
D12*
X282250000Y-126980000D03*
%TO.P,D11,2*%
%TO.N,mirror_c4_r2*%
X282250000Y-123680000D03*
D13*
X282250000Y-121520000D03*
%TD*%
D11*
%TO.P,D4,1*%
%TO.N,P8*%
X320350000Y-148190000D03*
D12*
X320350000Y-146030000D03*
%TO.P,D4,2*%
%TO.N,mirror_c2_r1*%
X320350000Y-142730000D03*
D13*
X320350000Y-140570000D03*
%TD*%
D11*
%TO.P,D16,1*%
%TO.N,P7*%
X297490000Y-174860000D03*
D12*
X297490000Y-172700000D03*
%TO.P,D16,2*%
%TO.N,mirror_t1_r*%
X297490000Y-169400000D03*
D13*
X297490000Y-167240000D03*
%TD*%
D11*
%TO.P,D8,1*%
%TO.N,P9*%
X301300000Y-125330000D03*
D12*
X301300000Y-123170000D03*
%TO.P,D8,2*%
%TO.N,mirror_c3_r2*%
X301300000Y-119870000D03*
D13*
X301300000Y-117710000D03*
%TD*%
D11*
%TO.P,D1,1*%
%TO.N,P8*%
X339400000Y-155810000D03*
D12*
X339400000Y-153650000D03*
%TO.P,D1,2*%
%TO.N,mirror_c1_r1*%
X339400000Y-150350000D03*
D13*
X339400000Y-148190000D03*
%TD*%
D11*
%TO.P,D10,1*%
%TO.N,P8*%
X282250000Y-148190000D03*
D12*
X282250000Y-146030000D03*
%TO.P,D10,2*%
%TO.N,mirror_c4_r1*%
X282250000Y-142730000D03*
D13*
X282250000Y-140570000D03*
%TD*%
D16*
%TO.P,,*%
%TO.N,*%
X238661336Y-172483431D03*
%TD*%
%TO.P,,*%
%TO.N,*%
X332400000Y-140500000D03*
%TD*%
D19*
%TO.P,JST1,1*%
%TO.N,pos*%
X234200000Y-162190000D03*
D20*
%TO.P,JST1,2*%
%TO.N,GND*%
X234200000Y-160190000D03*
%TD*%
D16*
%TO.P,,*%
%TO.N,*%
X275250000Y-151880000D03*
%TD*%
D11*
%TO.P,D13,1*%
%TO.N,P8*%
X263200000Y-152000000D03*
D12*
X263200000Y-149840000D03*
%TO.P,D13,2*%
%TO.N,mirror_c5_r1*%
X263200000Y-146540000D03*
D13*
X263200000Y-144380000D03*
%TD*%
D21*
%TO.P,D17,1*%
%TO.N,P7*%
X278125824Y-175094205D03*
D22*
X277937568Y-172942424D03*
%TO.P,D17,2*%
%TO.N,mirror_t2_r*%
X277649954Y-169654982D03*
D13*
X277461698Y-167503201D03*
%TD*%
D11*
%TO.P,D6,1*%
%TO.N,P10*%
X320350000Y-110090000D03*
D12*
X320350000Y-107930000D03*
%TO.P,D6,2*%
%TO.N,mirror_c2_r3*%
X320350000Y-104630000D03*
D13*
X320350000Y-102470000D03*
%TD*%
D11*
%TO.P,D7,1*%
%TO.N,P8*%
X301300000Y-144380000D03*
D12*
X301300000Y-142220000D03*
%TO.P,D7,2*%
%TO.N,mirror_c3_r1*%
X301300000Y-138920000D03*
D13*
X301300000Y-136760000D03*
%TD*%
D11*
%TO.P,D12,1*%
%TO.N,P10*%
X282250000Y-110090000D03*
D12*
X282250000Y-107930000D03*
%TO.P,D12,2*%
%TO.N,mirror_c4_r3*%
X282250000Y-104630000D03*
D13*
X282250000Y-102470000D03*
%TD*%
D23*
%TO.P,D19,1*%
%TO.N,P7*%
X239728150Y-182865998D03*
D24*
X238815294Y-180908373D03*
%TO.P,D19,2*%
%TO.N,mirror_t4_r*%
X237420654Y-177917557D03*
D13*
X236507798Y-175959932D03*
%TD*%
D16*
%TO.P,,*%
%TO.N,*%
X256200000Y-117640000D03*
%TD*%
D25*
%TO.N,mirror_c1_r1*%
X339400000Y-148190000D02*
X339400000Y-150350000D01*
%TO.N,mirror_c1_r2*%
X339400000Y-129140000D02*
X339400000Y-131300000D01*
%TO.N,mirror_c1_r3*%
X339400000Y-110090000D02*
X339400000Y-112250000D01*
%TO.N,mirror_c2_r1*%
X320350000Y-140570000D02*
X320350000Y-142730000D01*
%TO.N,mirror_c2_r2*%
X320350000Y-121520000D02*
X320350000Y-123680000D01*
%TO.N,mirror_c2_r3*%
X320350000Y-102470000D02*
X320350000Y-104630000D01*
%TO.N,mirror_c3_r1*%
X301300000Y-136760000D02*
X301300000Y-138920000D01*
%TO.N,mirror_c3_r2*%
X301300000Y-117710000D02*
X301300000Y-119870000D01*
%TO.N,mirror_c3_r3*%
X301300000Y-98660000D02*
X301300000Y-100820000D01*
%TO.N,mirror_c4_r1*%
X282250000Y-140570000D02*
X282250000Y-142730000D01*
%TO.N,mirror_c4_r2*%
X282250000Y-121520000D02*
X282250000Y-123680000D01*
%TO.N,mirror_c4_r3*%
X282250000Y-102470000D02*
X282250000Y-104630000D01*
%TO.N,mirror_c5_r1*%
X263200000Y-144380000D02*
X263200000Y-146540000D01*
%TO.N,mirror_c5_r2*%
X263200000Y-125330000D02*
X263200000Y-127490000D01*
%TO.N,mirror_c5_r3*%
X263200000Y-106280000D02*
X263200000Y-108440000D01*
%TO.N,mirror_t1_r*%
X297490000Y-167240000D02*
X297490000Y-169400000D01*
%TO.N,mirror_t2_r*%
X277461698Y-167503201D02*
X277461698Y-169466726D01*
X277461698Y-169466726D02*
X277649954Y-169654982D01*
%TO.N,mirror_t3_r*%
X256614814Y-171467415D02*
X257173864Y-172026465D01*
X256614814Y-169940066D02*
X256614814Y-171467415D01*
%TO.N,mirror_t4_r*%
X237420654Y-176872788D02*
X237420654Y-177917557D01*
X236507798Y-175959932D02*
X237420654Y-176872788D01*
%TO.N,P8*%
X305110000Y-148190000D02*
X301300000Y-144380000D01*
X244090000Y-152000000D02*
X241280000Y-154810000D01*
X339400000Y-155810000D02*
X327970000Y-155810000D01*
X263200000Y-152000000D02*
X263200000Y-149840000D01*
X320350000Y-148190000D02*
X305110000Y-148190000D01*
X297490000Y-148190000D02*
X301300000Y-144380000D01*
X263200000Y-152000000D02*
X244090000Y-152000000D01*
X339400000Y-155810000D02*
X339400000Y-153650000D01*
X327970000Y-155810000D02*
X320350000Y-148190000D01*
X282250000Y-148190000D02*
X297490000Y-148190000D01*
X263200000Y-152000000D02*
X267010000Y-148190000D01*
X282250000Y-148190000D02*
X282250000Y-146030000D01*
X320350000Y-148190000D02*
X320350000Y-146030000D01*
X301300000Y-144380000D02*
X301300000Y-142220000D01*
X267010000Y-148190000D02*
X282250000Y-148190000D01*
%TO.N,P9*%
X238740000Y-154682291D02*
X238740000Y-154810000D01*
X263200000Y-132950000D02*
X263200000Y-130790000D01*
X282250000Y-129140000D02*
X282250000Y-126980000D01*
X320350000Y-129140000D02*
X320350000Y-126980000D01*
X339400000Y-136760000D02*
X327970000Y-136760000D01*
X327970000Y-136760000D02*
X320350000Y-129140000D01*
X282250000Y-129140000D02*
X267010000Y-129140000D01*
X260472291Y-132950000D02*
X238740000Y-154682291D01*
X301300000Y-125330000D02*
X301300000Y-123170000D01*
X305110000Y-129140000D02*
X301300000Y-125330000D01*
X267010000Y-129140000D02*
X263200000Y-132950000D01*
X320350000Y-129140000D02*
X305110000Y-129140000D01*
X282250000Y-129140000D02*
X297490000Y-129140000D01*
X297490000Y-129140000D02*
X301300000Y-125330000D01*
X339400000Y-136760000D02*
X339400000Y-134600000D01*
X263200000Y-132950000D02*
X260472291Y-132950000D01*
%TO.N,P10*%
X301300000Y-106280000D02*
X305110000Y-110090000D01*
X253855100Y-137154900D02*
X236200000Y-154810000D01*
X339400000Y-117710000D02*
X327970000Y-117710000D01*
X254241000Y-125759000D02*
X253855100Y-126144900D01*
X282250000Y-110090000D02*
X267010000Y-110090000D01*
X339400000Y-115550000D02*
X339400000Y-117710000D01*
X263200000Y-113900000D02*
X263200000Y-114800000D01*
X263200000Y-114800000D02*
X254241000Y-123759000D01*
X327970000Y-117710000D02*
X320350000Y-110090000D01*
X297490000Y-110090000D02*
X301300000Y-106280000D01*
X253855100Y-126144900D02*
X253855100Y-137154900D01*
X263200000Y-113900000D02*
X263200000Y-111740000D01*
X282250000Y-110090000D02*
X297490000Y-110090000D01*
X267010000Y-110090000D02*
X263200000Y-113900000D01*
X301300000Y-106280000D02*
X301300000Y-104120000D01*
X320350000Y-110090000D02*
X320350000Y-107930000D01*
X305110000Y-110090000D02*
X320350000Y-110090000D01*
X282250000Y-110090000D02*
X282250000Y-107930000D01*
X254241000Y-123759000D02*
X254241000Y-125759000D01*
%TO.N,P7*%
X248699580Y-177300420D02*
X258587016Y-177300420D01*
X243820000Y-154810000D02*
X261000000Y-171990000D01*
X258027966Y-175214021D02*
X258587016Y-175773071D01*
X239728150Y-182865998D02*
X244594148Y-178000000D01*
X261000000Y-171990000D02*
X261000000Y-175094205D01*
X261000000Y-175094205D02*
X278125824Y-175094205D01*
X297490000Y-174860000D02*
X297490000Y-172700000D01*
X278360029Y-174860000D02*
X278125824Y-175094205D01*
X244594148Y-178000000D02*
X248000000Y-178000000D01*
X238815294Y-181953142D02*
X239728150Y-182865998D01*
X278125824Y-175094205D02*
X278125824Y-173130680D01*
X238815294Y-180908373D02*
X238815294Y-181953142D01*
X297490000Y-174860000D02*
X278360029Y-174860000D01*
X258587016Y-177300420D02*
X260793231Y-175094205D01*
X278125824Y-173130680D02*
X277937568Y-172942424D01*
X258587016Y-175773071D02*
X258587016Y-177300420D01*
X248000000Y-178000000D02*
X248699580Y-177300420D01*
X260793231Y-175094205D02*
X261000000Y-175094205D01*
%TO.N,GND*%
X230168000Y-153858000D02*
X231120000Y-154810000D01*
X233978000Y-142745000D02*
X233978000Y-144650000D01*
X233978000Y-144650000D02*
X230168000Y-148460000D01*
X230168000Y-148460000D02*
X230168000Y-153858000D01*
%TD*%
M02*
