M48
; DRILL file {KiCad 9.0.6} date 2026-01-03T00:52:36-0800
; FORMAT={-:-/ absolute / metric / decimal}
; #@! TF.CreationDate,2026-01-03T00:52:36-08:00
; #@! TF.GenerationSoftware,Kicad,Pcbnew,9.0.6
; #@! TF.FileFunction,NonPlated,1,2,NPTH
FMAT,2
METRIC
; #@! TA.AperFunction,NonPlated,NPTH,ComponentDrill
T1C0.900
; #@! TA.AperFunction,NonPlated,NPTH,ComponentDrill
T2C1.702
; #@! TA.AperFunction,NonPlated,NPTH,ComponentDrill
T3C2.200
; #@! TA.AperFunction,NonPlated,NPTH,ComponentDrill
T4C3.000
; #@! TA.AperFunction,NonPlated,NPTH,ComponentDrill
T5C3.988
%
G90
G05
T1
X227.7Y-159.69
X227.7Y-162.69
T2
X226.325Y-182.706
X235.533Y-178.412
X245.415Y-174.815
X251.12Y-108.09
X251.12Y-127.14
X251.12Y-146.19
X255.229Y-172.185
X261.28Y-108.09
X261.28Y-127.14
X261.28Y-146.19
X265.585Y-170.359
X270.17Y-104.28
X270.17Y-123.33
X270.17Y-142.38
X275.707Y-169.474
X280.33Y-104.28
X280.33Y-123.33
X280.33Y-142.38
X285.41Y-169.05
X289.22Y-100.47
X289.22Y-119.52
X289.22Y-138.57
X295.57Y-169.05
X299.38Y-100.47
X299.38Y-119.52
X299.38Y-138.57
X308.27Y-104.28
X308.27Y-123.33
X308.27Y-142.38
X318.43Y-104.28
X318.43Y-123.33
X318.43Y-142.38
X327.32Y-111.9
X327.32Y-130.95
X327.32Y-150.0
X337.48Y-111.9
X337.48Y-130.95
X337.48Y-150.0
T3
X238.661Y-172.483
X256.2Y-117.64
X275.25Y-151.88
X313.35Y-113.83
X332.4Y-140.5
T4
X226.402Y-179.867
X231.084Y-174.881
X245.984Y-172.033
X251.46Y-167.936
X252.39Y-105.55
X252.39Y-124.6
X252.39Y-143.65
X258.74Y-103.01
X258.74Y-122.06
X258.74Y-141.11
X266.629Y-167.718
X271.44Y-101.74
X271.44Y-120.79
X271.44Y-139.84
X272.734Y-164.634
X277.79Y-99.2
X277.79Y-118.25
X277.79Y-137.3
X286.68Y-166.51
X290.49Y-97.93
X290.49Y-116.98
X290.49Y-136.03
X293.03Y-163.97
X296.84Y-95.39
X296.84Y-114.44
X296.84Y-133.49
X309.54Y-101.74
X309.54Y-120.79
X309.54Y-139.84
X315.89Y-99.2
X315.89Y-118.25
X315.89Y-137.3
X328.59Y-109.36
X328.59Y-128.41
X328.59Y-147.46
X334.94Y-106.82
X334.94Y-125.87
X334.94Y-144.92
T5
X230.929Y-180.559
X250.322Y-173.5
X256.2Y-108.09
X256.2Y-127.14
X256.2Y-146.19
X270.646Y-169.916
X275.25Y-104.28
X275.25Y-123.33
X275.25Y-142.38
X290.49Y-169.05
X294.3Y-100.47
X294.3Y-119.52
X294.3Y-138.57
X313.35Y-104.28
X313.35Y-123.33
X313.35Y-142.38
X332.4Y-111.9
X332.4Y-130.95
X332.4Y-150.0
M30
