%TF.GenerationSoftware,KiCad,Pcbnew,9.0.6*%
%TF.CreationDate,2026-01-03T00:52:40-08:00*%
%TF.ProjectId,pcb_right,7063625f-7269-4676-9874-2e6b69636164,4.2.1*%
%TF.SameCoordinates,Original*%
%TF.FileFunction,Profile,NP*%
%FSLAX46Y46*%
G04 Gerber Fmt 4.6, Leading zero omitted, Abs format (unit mm)*
G04 Created by KiCad (PCBNEW 9.0.6) date 2026-01-03 00:52:40*
%MOMM*%
%LPD*%
G01*
G04 APERTURE LIST*
%TA.AperFunction,Profile*%
%ADD10C,0.150000*%
%TD*%
G04 APERTURE END LIST*
D10*
X343925000Y-102375000D02*
X343925000Y-159525000D01*
X302015000Y-162525000D02*
X302015000Y-178575000D01*
X246675000Y-96565000D02*
X262725000Y-96565000D01*
X225625000Y-136665000D02*
G75*
G02*
X227625000Y-134665000I2000000J0D01*
G01*
X263725000Y-95565000D02*
X263725000Y-94755000D01*
X265725000Y-92755000D02*
X281775000Y-92755000D01*
X244675000Y-98565000D02*
G75*
G02*
X246675000Y-96565000I2000000J0D01*
G01*
X225310948Y-170054129D02*
X225594917Y-168922707D01*
X284775000Y-88945000D02*
X303825000Y-88945000D01*
X324875000Y-94755000D02*
X324875000Y-99375000D01*
X282775000Y-90945000D02*
G75*
G02*
X284775000Y-88945000I2000000J0D01*
G01*
X341925000Y-100375000D02*
G75*
G02*
X343925000Y-102375000I0J-2000000D01*
G01*
X302015000Y-178575000D02*
G75*
G02*
X300015000Y-180575000I-2000000J0D01*
G01*
X325875000Y-100375000D02*
X341925000Y-100375000D01*
X281008827Y-180578805D02*
X262423270Y-182204831D01*
X306825000Y-92755000D02*
X322875000Y-92755000D01*
X227166677Y-195029313D02*
G75*
G02*
X224508821Y-194061936I-845277J1812513D01*
G01*
X263725000Y-94755000D02*
G75*
G02*
X265725000Y-92755000I2000000J0D01*
G01*
X300015000Y-180575000D02*
X281095983Y-180575000D01*
X225625000Y-168679272D02*
G75*
G02*
X225594912Y-168922706I-999600J-28D01*
G01*
X262251607Y-182235100D02*
G75*
G02*
X262423270Y-182204833I258893J-966400D01*
G01*
X216457947Y-176796771D02*
G75*
G02*
X217425319Y-174138905I1812553J845271D01*
G01*
X244675000Y-133665000D02*
X244675000Y-98565000D01*
X244193966Y-187089358D02*
X227166677Y-195029313D01*
X225310948Y-170054129D02*
G75*
G02*
X224763634Y-170716971I-969848J243429D01*
G01*
X225625000Y-168679272D02*
X225625000Y-136665000D01*
X227625000Y-134665000D02*
X243675000Y-134665000D01*
X302015000Y-162525000D02*
G75*
G02*
X303015000Y-161525000I1000000J0D01*
G01*
X343925000Y-159525000D02*
G75*
G02*
X341925000Y-161525000I-2000000J0D01*
G01*
X224508825Y-194061934D02*
X216457947Y-176796771D01*
X322875000Y-92755000D02*
G75*
G02*
X324875000Y-94755000I0J-2000000D01*
G01*
X341925000Y-161525000D02*
X303015000Y-161525000D01*
X306825000Y-92755000D02*
G75*
G02*
X305825000Y-91755000I0J1000000D01*
G01*
X325875000Y-100375000D02*
G75*
G02*
X324875000Y-99375000I0J1000000D01*
G01*
X262251607Y-182235100D02*
X244357765Y-187029740D01*
X303825000Y-88945000D02*
G75*
G02*
X305825000Y-90945000I0J-2000000D01*
G01*
X244675000Y-133665000D02*
G75*
G02*
X243675000Y-134665000I-1000000J0D01*
G01*
X244193966Y-187089358D02*
G75*
G02*
X244357764Y-187029735I422334J-905442D01*
G01*
X217425326Y-174138919D02*
X224763649Y-170717003D01*
X282775000Y-91755000D02*
G75*
G02*
X281775000Y-92755000I-1000000J0D01*
G01*
X305825000Y-90945000D02*
X305825000Y-91755000D01*
X263725000Y-95565000D02*
G75*
G02*
X262725000Y-96565000I-1000000J0D01*
G01*
X281008827Y-180578805D02*
G75*
G02*
X281095983Y-180575000I87173J-996595D01*
G01*
X282775000Y-91755000D02*
X282775000Y-90945000D01*
M02*
