%TF.GenerationSoftware,KiCad,Pcbnew,9.0.6*%
%TF.CreationDate,2026-01-03T00:52:40-08:00*%
%TF.ProjectId,pcb_right,7063625f-7269-4676-9874-2e6b69636164,4.2.1*%
%TF.SameCoordinates,Original*%
%TF.FileFunction,Paste,Bot*%
%TF.FilePolarity,Positive*%
%FSLAX46Y46*%
G04 Gerber Fmt 4.6, Leading zero omitted, Abs format (unit mm)*
G04 Created by KiCad (PCBNEW 9.0.6) date 2026-01-03 00:52:40*
%MOMM*%
%LPD*%
G01*
G04 APERTURE LIST*
G04 Aperture macros list*
%AMRotRect*
0 Rectangle, with rotation*
0 The origin of the aperture is its center*
0 $1 length*
0 $2 width*
0 $3 Rotation angle, in degrees counterclockwise*
0 Add horizontal line*
21,1,$1,$2,0,0,$3*%
G04 Aperture macros list end*
%ADD10R,0.900000X0.900000*%
%ADD11R,1.250000X0.900000*%
%ADD12R,2.550000X2.500000*%
%ADD13R,1.200000X0.900000*%
%ADD14RotRect,0.900000X1.200000X105.000000*%
%ADD15RotRect,2.550000X2.500000X5.000000*%
%ADD16RotRect,2.550000X2.500000X25.000000*%
%ADD17RotRect,0.900000X1.200000X95.000000*%
%ADD18RotRect,2.550000X2.500000X15.000000*%
%ADD19RotRect,0.900000X1.200000X115.000000*%
G04 APERTURE END LIST*
D10*
%TO.C,T1*%
X226600000Y-164890000D03*
X228800000Y-164890000D03*
X226600000Y-157490000D03*
X228800000Y-157490000D03*
D11*
X229775000Y-163440000D03*
X229775000Y-160440000D03*
X229775000Y-158940000D03*
%TD*%
D12*
%TO.C,S15*%
X249115000Y-105550000D03*
X262042000Y-103010000D03*
%TD*%
D13*
%TO.C,D5*%
X320350000Y-126980000D03*
X320350000Y-123680000D03*
%TD*%
%TO.C,D2*%
X339400000Y-134600000D03*
X339400000Y-131300000D03*
%TD*%
%TO.C,D9*%
X301300000Y-104120000D03*
X301300000Y-100820000D03*
%TD*%
D12*
%TO.C,S11*%
X268165000Y-120790000D03*
X281092000Y-118250000D03*
%TD*%
%TO.C,S16*%
X283405000Y-166510000D03*
X296332000Y-163970000D03*
%TD*%
D13*
%TO.C,D14*%
X263200000Y-130790000D03*
X263200000Y-127490000D03*
%TD*%
D12*
%TO.C,S2*%
X325315000Y-128410000D03*
X338242000Y-125870000D03*
%TD*%
%TO.C,S1*%
X325315000Y-147460000D03*
X338242000Y-144920000D03*
%TD*%
%TO.C,S3*%
X325315000Y-109360000D03*
X338242000Y-106820000D03*
%TD*%
D13*
%TO.C,D3*%
X339400000Y-115550000D03*
X339400000Y-112250000D03*
%TD*%
D12*
%TO.C,S6*%
X306265000Y-101740000D03*
X319192000Y-99200000D03*
%TD*%
D14*
%TO.C,D18*%
X258027965Y-175214021D03*
X257173865Y-172026465D03*
%TD*%
D13*
%TO.C,D15*%
X263200000Y-111740000D03*
X263200000Y-108440000D03*
%TD*%
D12*
%TO.C,S7*%
X287215000Y-136030000D03*
X300142000Y-133490000D03*
%TD*%
%TO.C,S10*%
X268165000Y-139840000D03*
X281092000Y-137300000D03*
%TD*%
D13*
%TO.C,D11*%
X282250000Y-126980000D03*
X282250000Y-123680000D03*
%TD*%
%TO.C,D4*%
X320350000Y-146030000D03*
X320350000Y-142730000D03*
%TD*%
%TO.C,D16*%
X297490000Y-172700000D03*
X297490000Y-169400000D03*
%TD*%
D15*
%TO.C,S17*%
X263366672Y-168003568D03*
X276023105Y-164346571D03*
%TD*%
D13*
%TO.C,D8*%
X301300000Y-123170000D03*
X301300000Y-119870000D03*
%TD*%
%TO.C,D1*%
X339400000Y-153650000D03*
X339400000Y-150350000D03*
%TD*%
%TO.C,D10*%
X282250000Y-146030000D03*
X282250000Y-142730000D03*
%TD*%
D16*
%TO.C,S19*%
X223433942Y-181250906D03*
X234076332Y-173485698D03*
%TD*%
D12*
%TO.C,S13*%
X249115000Y-143650000D03*
X262042000Y-141110000D03*
%TD*%
%TO.C,S9*%
X287215000Y-97930000D03*
X300142000Y-95390000D03*
%TD*%
%TO.C,S5*%
X306265000Y-120790000D03*
X319192000Y-118250000D03*
%TD*%
%TO.C,S14*%
X249115000Y-124600000D03*
X262042000Y-122060000D03*
%TD*%
%TO.C,S12*%
X268165000Y-101740000D03*
X281092000Y-99200000D03*
%TD*%
D13*
%TO.C,D13*%
X263200000Y-149840000D03*
X263200000Y-146540000D03*
%TD*%
D17*
%TO.C,D17*%
X277937568Y-172942424D03*
X277649954Y-169654982D03*
%TD*%
D13*
%TO.C,D6*%
X320350000Y-107930000D03*
X320350000Y-104630000D03*
%TD*%
D12*
%TO.C,S8*%
X287215000Y-116980000D03*
X300142000Y-114440000D03*
%TD*%
D18*
%TO.C,S18*%
X242820811Y-172880406D03*
X254649934Y-167081201D03*
%TD*%
D13*
%TO.C,D7*%
X301300000Y-142220000D03*
X301300000Y-138920000D03*
%TD*%
%TO.C,D12*%
X282250000Y-107930000D03*
X282250000Y-104630000D03*
%TD*%
D19*
%TO.C,D19*%
X238815294Y-180908373D03*
X237420654Y-177917557D03*
%TD*%
D12*
%TO.C,S4*%
X306265000Y-139840000D03*
X319192000Y-137300000D03*
%TD*%
M02*
