M48
; DRILL file {KiCad 9.0.6} date 2026-01-03T00:52:36-0800
; FORMAT={-:-/ absolute / metric / decimal}
; #@! TF.CreationDate,2026-01-03T00:52:36-08:00
; #@! TF.GenerationSoftware,Kicad,Pcbnew,9.0.6
; #@! TF.FileFunction,Plated,1,2,PTH
FMAT,2
METRIC
; #@! TA.AperFunction,Plated,PTH,ComponentDrill
T1C0.750
; #@! TA.AperFunction,Plated,PTH,ComponentDrill
T2C0.991
; #@! TA.AperFunction,Plated,PTH,ComponentDrill
T3C1.000
; #@! TA.AperFunction,Plated,PTH,ComponentDrill
T4C1.016
%
G90
G05
T1
X234.2Y-160.19
X234.2Y-162.19
T2
X236.508Y-175.96
X239.728Y-182.866
X256.615Y-169.94
X258.587Y-177.3
X263.2Y-106.28
X263.2Y-113.9
X263.2Y-125.33
X263.2Y-132.95
X263.2Y-144.38
X263.2Y-152.0
X277.462Y-167.503
X278.126Y-175.094
X282.25Y-102.47
X282.25Y-110.09
X282.25Y-121.52
X282.25Y-129.14
X282.25Y-140.57
X282.25Y-148.19
X297.49Y-167.24
X297.49Y-174.86
X301.3Y-98.66
X301.3Y-106.28
X301.3Y-117.71
X301.3Y-125.33
X301.3Y-136.76
X301.3Y-144.38
X320.35Y-102.47
X320.35Y-110.09
X320.35Y-121.52
X320.35Y-129.14
X320.35Y-140.57
X320.35Y-148.19
X339.4Y-110.09
X339.4Y-117.71
X339.4Y-129.14
X339.4Y-136.76
X339.4Y-148.19
X339.4Y-155.81
T3
X228.58Y-139.57
X228.58Y-154.81
X231.12Y-139.57
X231.12Y-154.81
X233.66Y-139.57
X233.66Y-154.81
X236.2Y-139.57
X236.2Y-154.81
X238.74Y-139.57
X238.74Y-154.81
X241.28Y-139.57
X241.28Y-154.81
X243.82Y-139.57
X243.82Y-154.81
T4
X227.628Y-145.92
X227.628Y-148.46
X230.168Y-145.92
X230.168Y-148.46
X233.978Y-142.745
X235.883Y-142.745
M30
