0
SECTION
2
HEADER
9
$INSUNITS
70
4
0
ENDSEC
0
SECTION
2
TABLES
0
TABLE
2
LTYPE
0
LTYPE
72
65
70
64
2
CONTINUOUS
3
______
73
0
40
0
0
ENDTAB
0
TABLE
2
LAYER
0
ENDTAB
0
ENDSEC
0
SECTION
2
ENTITIES
0
LINE
8
0
10
108.385
20
-164.525
11
108.385
21
-178.575
0
ARC
8
0
10
112.385
20
-178.575
40
4
50
180
51
270
0
LINE
8
0
10
112.385
20
-182.575
11
131.2166952
21
-182.575
0
LINE
8
0
10
131.3038509
20
-182.5788053
11
149.6281071
21
-184.18197
0
LINE
8
0
10
149.7997704
20
-184.2122389
11
167.3555816
21
-188.9163043
0
LINE
8
0
10
167.5193809
20
-188.9759223
11
184.3880863
21
-196.8419287
0
ARC
8
0
10
186.0785593
20
-193.2166976
40
4
50
245.012813
51
335.0000001
0
LINE
8
0
10
189.7037905
20
-194.9071707
11
197.7546684
21
-177.6420073
0
ARC
8
0
10
194.1294372
20
-175.9515343
40
4
50
334.9999999
51
65.0000001
0
LINE
8
0
10
195.8199103
20
-172.3263031
11
188.9130077
21
-169.1055616
0
LINE
8
0
10
188.9130077
20
-169.1055616
11
188.775
21
-168.5556962
0
LINE
8
0
10
188.775
20
-168.5556962
11
188.775
21
-136.665
0
ARC
8
0
10
184.775
20
-136.665
40
4
50
0
51
90
0
LINE
8
0
10
184.775
20
-132.665
11
170.725
21
-132.665
0
LINE
8
0
10
169.725
20
-131.665
11
169.725
21
-98.565
0
ARC
8
0
10
165.725
20
-98.565
40
4
50
0
51
90
0
LINE
8
0
10
165.725
20
-94.565
11
151.5313258
21
-94.565
0
ARC
8
0
10
146.675
20
-94.755
40
4
50
13.7685287
51
450
0
LINE
8
0
10
146.675
20
-90.755
11
132.4813258
21
-90.755
0
ARC
8
0
10
127.625
20
-90.945
40
4
50
13.7685287
51
90
0
LINE
8
0
10
127.625
20
-86.945
11
108.575
21
-86.945
0
ARC
8
0
10
108.575
20
-90.945
40
4
50
90
51
166.2314713
0
LINE
8
0
10
103.7186742
20
-90.755
11
89.525
21
-90.755
0
ARC
8
0
10
89.525
20
-94.755
40
4
50
90
51
180
0
LINE
8
0
10
85.525
20
-94.755
11
85.525
21
-97.375
0
LINE
8
0
10
84.525
20
-98.375
11
70.475
21
-98.375
0
ARC
8
0
10
70.475
20
-102.375
40
4
50
90
51
180
0
LINE
8
0
10
66.475
20
-102.375
11
66.475
21
-159.525
0
ARC
8
0
10
70.475
20
-159.525
40
4
50
180
51
270
0
LINE
8
0
10
70.475
20
-163.525
11
107.385
21
-163.525
0
ARC
8
0
10
131.2166952
20
-183.575
40
1
50
85.0000024
51
90
0
ARC
8
0
10
149.5409514
20
-185.1781647
40
1
50
75.0000021
51
85.0000024
0
ARC
8
0
10
167.0967626
20
-189.8822301
40
1
50
64.9999983
51
75.0000021
0
ARC
8
0
10
188.7974827
20
-194.4845524
40
1
50
334.9999983
51
335.0000001
0
ARC
8
0
10
195.397292
20
-173.2326109
40
1
50
64.9999983
51
65.0000001
0
ARC
8
0
10
170.725
20
-131.665
40
1
50
180
51
270
0
ARC
8
0
10
151.5313258
20
-93.565
40
1
50
193.7685287
51
270
0
ARC
8
0
10
132.4813258
20
-89.755
40
1
50
193.7685287
51
270
0
ARC
8
0
10
103.7186742
20
-89.755
40
1
50
270
51
346.2314713
0
ARC
8
0
10
84.525
20
-97.375
40
1
50
270
51
0
0
ARC
8
0
10
107.385
20
-164.525
40
1
50
0
51
90
0
ENDSEC
0
EOF