<svg width="131.654mm" height="110.272mm" viewBox="0 0 131.654 110.272" xmlns="http://www.w3.org/2000/svg"><g id="svgGroup" stroke-linecap="round" fill-rule="evenodd" font-size="9pt" stroke="#000" stroke-width="0.25mm" fill="none" style="stroke:#000;stroke-width:0.25mm;fill:none"><path d="M 41.91 77.58 L 41.91 91.63 A 4 4 0 0 0 45.91 95.63 L 64.742 95.63 A 1 1 0 0 1 64.829 95.634 L 83.153 97.237 A 1 1 0 0 1 83.325 97.267 L 100.881 101.971 A 1 1 0 0 1 101.044 102.031 L 117.913 109.897 A 4 4 0 0 0 123.229 107.962 L 131.28 90.697 A 4 4 0 0 0 129.345 85.381 L 122.438 82.161 L 122.3 81.611 L 122.3 49.72 A 4 4 0 0 0 118.3 45.72 L 104.25 45.72 A 1 1 0 0 1 103.25 44.72 L 103.25 11.62 A 4 4 0 0 0 99.25 7.62 L 85.056 7.62 A 1 1 0 0 1 84.085 6.858 A 4 4 0 0 0 80.2 3.81 L 66.006 3.81 A 1 1 0 0 1 65.035 3.048 A 4 4 0 0 0 61.15 0 L 42.1 0 A 4 4 0 0 0 38.215 3.048 A 1 1 0 0 1 37.244 3.81 L 23.05 3.81 A 4 4 0 0 0 19.05 7.81 L 19.05 10.43 A 1 1 0 0 1 18.05 11.43 L 4 11.43 A 4 4 0 0 0 0 15.43 L 0 72.58 A 4 4 0 0 0 4 76.58 L 40.91 76.58 A 1 1 0 0 1 41.91 77.58 Z" vector-effect="non-scaling-stroke"/></g></svg>