<svg width="127.654mm" height="106.272mm" viewBox="0 0 127.654 106.272" xmlns="http://www.w3.org/2000/svg"><g id="svgGroup" stroke-linecap="round" fill-rule="evenodd" font-size="9pt" stroke="#000" stroke-width="0.25mm" fill="none" style="stroke:#000;stroke-width:0.25mm;fill:none"><path d="M 85.744 73.58 L 85.744 89.63 A 2 2 0 0 1 83.744 91.63 L 64.825 91.63 A 1 1 0 0 0 64.738 91.634 L 46.153 93.26 A 1 1 0 0 0 45.981 93.29 L 28.087 98.085 A 1 1 0 0 0 27.923 98.144 L 10.896 106.084 A 2 2 0 0 1 8.238 105.117 L 0.187 87.852 A 2 2 0 0 1 1.155 85.194 L 8.493 81.772 A 1 1 0 0 0 9.04 81.109 L 9.324 79.978 A 1 1 0 0 0 9.354 79.734 L 9.354 47.72 A 2 2 0 0 1 11.354 45.72 L 27.404 45.72 A 1 1 0 0 0 28.404 44.72 L 28.404 9.62 A 2 2 0 0 1 30.404 7.62 L 46.454 7.62 A 1 1 0 0 0 47.454 6.62 L 47.454 5.81 A 2 2 0 0 1 49.454 3.81 L 65.504 3.81 A 1 1 0 0 0 66.504 2.81 L 66.504 2 A 2 2 0 0 1 68.504 0 L 87.554 0 A 2 2 0 0 1 89.554 2 L 89.554 2.81 A 1 1 0 0 0 90.554 3.81 L 106.604 3.81 A 2 2 0 0 1 108.604 5.81 L 108.604 10.43 A 1 1 0 0 0 109.604 11.43 L 125.654 11.43 A 2 2 0 0 1 127.654 13.43 L 127.654 70.58 A 2 2 0 0 1 125.654 72.58 L 86.744 72.58 A 1 1 0 0 0 85.744 73.58 Z" vector-effect="non-scaling-stroke"/></g></svg>