0
SECTION
2
HEADER
9
$INSUNITS
70
4
0
ENDSEC
0
SECTION
2
TABLES
0
TABLE
2
LTYPE
0
LTYPE
72
65
70
64
2
CONTINUOUS
3
______
73
0
40
0
0
ENDTAB
0
TABLE
2
LAYER
0
ENDTAB
0
ENDSEC
0
SECTION
2
ENTITIES
0
LINE
8
0
10
302.015
20
-162.525
11
302.015
21
-178.575
0
ARC
8
0
10
300.015
20
-178.575
40
2
50
270
51
0
0
LINE
8
0
10
300.015
20
-180.575
11
281.0959829
21
-180.575
0
LINE
8
0
10
281.0088272
20
-180.5788053
11
262.4232698
21
-182.2048309
0
LINE
8
0
10
262.2516065
20
-182.2350998
11
244.357765
21
-187.0297401
0
LINE
8
0
10
244.1939657
20
-187.0893581
11
227.1666772
21
-195.0293132
0
ARC
8
0
10
226.3214407
20
-193.2166976
40
2
50
204.9999991
51
295.0000001
0
LINE
8
0
10
224.5088251
20
-194.0619341
11
216.4579472
21
-176.7967708
0
ARC
8
0
10
218.2705628
20
-175.9515343
40
2
50
114.9999991
51
205.0000001
0
LINE
8
0
10
217.4253263
20
-174.1389187
11
224.7636487
21
-170.7170027
0
LINE
8
0
10
225.3109478
20
-170.0541292
11
225.5949174
21
-168.9227065
0
LINE
8
0
10
225.625
20
-168.6792722
11
225.625
21
-136.665
0
ARC
8
0
10
227.625
20
-136.665
40
2
50
90
51
180
0
LINE
8
0
10
227.625
20
-134.665
11
243.675
21
-134.665
0
LINE
8
0
10
244.675
20
-133.665
11
244.675
21
-98.565
0
ARC
8
0
10
246.675
20
-98.565
40
2
50
90
51
180
0
LINE
8
0
10
246.675
20
-96.565
11
262.725
21
-96.565
0
LINE
8
0
10
263.725
20
-95.565
11
263.725
21
-94.755
0
ARC
8
0
10
265.725
20
-94.755
40
2
50
450
51
180
0
LINE
8
0
10
265.725
20
-92.755
11
281.775
21
-92.755
0
LINE
8
0
10
282.775
20
-91.755
11
282.775
21
-90.945
0
ARC
8
0
10
284.775
20
-90.945
40
2
50
90
51
180
0
LINE
8
0
10
284.775
20
-88.945
11
303.825
21
-88.945
0
ARC
8
0
10
303.825
20
-90.945
40
2
50
360
51
90
0
LINE
8
0
10
305.825
20
-90.945
11
305.825
21
-91.755
0
LINE
8
0
10
306.825
20
-92.755
11
322.875
21
-92.755
0
ARC
8
0
10
322.875
20
-94.755
40
2
50
360
51
90
0
LINE
8
0
10
324.875
20
-94.755
11
324.875
21
-99.375
0
LINE
8
0
10
325.875
20
-100.375
11
341.925
21
-100.375
0
ARC
8
0
10
341.925
20
-102.375
40
2
50
360
51
90
0
LINE
8
0
10
343.925
20
-102.375
11
343.925
21
-159.525
0
ARC
8
0
10
341.925
20
-159.525
40
2
50
270
51
0
0
LINE
8
0
10
341.925
20
-161.525
11
303.015
21
-161.525
0
ARC
8
0
10
281.0959829
20
-181.575
40
1
50
90
51
94.9999976
0
ARC
8
0
10
262.5104255
20
-183.2010256
40
1
50
94.9999976
51
104.9999979
0
ARC
8
0
10
244.616584
20
-187.9956659
40
1
50
104.9999979
51
115.0000017
0
ARC
8
0
10
224.3410304
20
-169.8106949
40
1
50
295.0000017
51
345.9106756
0
ARC
8
0
10
224.625
20
-168.6792722
40
1
50
345.9106756
51
0
0
ARC
8
0
10
243.675
20
-133.665
40
1
50
270
51
0
0
ARC
8
0
10
262.725
20
-95.565
40
1
50
270
51
0
0
ARC
8
0
10
281.775
20
-91.755
40
1
50
270
51
0
0
ARC
8
0
10
306.825
20
-91.755
40
1
50
180
51
270
0
ARC
8
0
10
325.875
20
-99.375
40
1
50
180
51
270
0
ARC
8
0
10
303.015
20
-162.525
40
1
50
90
51
180
0
ENDSEC
0
EOF