<svg width="281.45mm" height="114.272mm" viewBox="0 0 281.45 114.272" xmlns="http://www.w3.org/2000/svg"><g id="svgGroup" stroke-linecap="round" fill-rule="evenodd" font-size="9pt" stroke="#000" stroke-width="0.25mm" fill="none" style="stroke:#000;stroke-width:0.25mm;fill:none"><path d="M 41.91 81.58 L 41.91 93.63 A 6 6 0 0 0 47.91 99.63 L 66.654 99.63 A 1 1 0 0 1 66.742 99.634 L 84.804 101.214 A 1 1 0 0 1 84.976 101.244 L 102.194 105.858 A 1 1 0 0 1 102.358 105.917 L 119.068 113.71 A 6 6 0 0 0 127.041 110.807 L 135.092 93.542 A 6 6 0 0 0 132.19 85.569 L 126.877 83.091 A 1 1 0 0 1 126.3 82.185 L 126.3 51.72 A 6 6 0 0 0 120.3 45.72 L 108.25 45.72 A 1 1 0 0 1 107.25 44.72 L 107.25 13.62 A 6 6 0 0 0 101.25 7.62 L 88.431 7.62 A 1 1 0 0 1 87.541 7.076 A 6 6 0 0 0 82.2 3.81 L 69.381 3.81 A 1 1 0 0 1 68.491 3.266 A 6 6 0 0 0 63.15 0 L 44.1 0 A 6 6 0 0 0 38.759 3.266 A 1 1 0 0 1 37.869 3.81 L 25.05 3.81 A 6 6 0 0 0 19.05 9.81 L 19.05 10.43 A 1 1 0 0 1 18.05 11.43 L 6 11.43 A 6 6 0 0 0 0 17.43 L 0 74.58 A 6 6 0 0 0 6 80.58 L 40.91 80.58 A 1 1 0 0 1 41.91 81.58 Z M 239.54 78.58 L 239.54 93.63 A 4 4 0 0 1 235.54 97.63 L 216.665 97.63 L 198.21 99.245 L 180.485 103.994 L 163.537 111.897 A 4 4 0 0 1 158.221 109.962 L 150.17 92.697 A 4 4 0 0 1 152.105 87.381 L 159.012 84.161 L 159.15 83.611 L 159.15 51.72 A 4 4 0 0 1 163.15 47.72 L 178.2 47.72 L 178.2 13.62 A 4 4 0 0 1 182.2 9.62 L 197.255 9.62 A 4 4 0 0 1 201.25 5.81 L 216.305 5.81 A 4 4 0 0 1 220.3 2 L 239.35 2 A 4 4 0 0 1 243.345 5.81 L 258.4 5.81 A 4 4 0 0 1 262.4 9.81 L 262.4 13.43 L 277.45 13.43 A 4 4 0 0 1 281.45 17.43 L 281.45 74.58 A 4 4 0 0 1 277.45 78.58 L 239.54 78.58 Z M 43.91 79.58 L 43.91 93.63 A 4 4 0 0 0 47.91 97.63 L 66.742 97.63 A 1 1 0 0 1 66.829 97.634 L 85.153 99.237 A 1 1 0 0 1 85.325 99.267 L 102.881 103.971 A 1 1 0 0 1 103.044 104.031 L 119.913 111.897 A 4 4 0 0 0 125.229 109.962 L 133.28 92.697 A 4 4 0 0 0 131.345 87.381 L 124.438 84.161 L 124.3 83.611 L 124.3 51.72 A 4 4 0 0 0 120.3 47.72 L 106.25 47.72 A 1 1 0 0 1 105.25 46.72 L 105.25 13.62 A 4 4 0 0 0 101.25 9.62 L 87.056 9.62 A 1 1 0 0 1 86.085 8.858 A 4 4 0 0 0 82.2 5.81 L 68.006 5.81 A 1 1 0 0 1 67.035 5.048 A 4 4 0 0 0 63.15 2 L 44.1 2 A 4 4 0 0 0 40.215 5.048 A 1 1 0 0 1 39.244 5.81 L 25.05 5.81 A 4 4 0 0 0 21.05 9.81 L 21.05 12.43 A 1 1 0 0 1 20.05 13.43 L 6 13.43 A 4 4 0 0 0 2 17.43 L 2 74.58 A 4 4 0 0 0 6 78.58 L 42.91 78.58 A 1 1 0 0 1 43.91 79.58 Z M 237.54 77.58 L 237.54 93.63 A 2 2 0 0 1 235.54 95.63 L 216.621 95.63 A 1 1 0 0 0 216.534 95.634 L 197.948 97.26 A 1 1 0 0 0 197.777 97.29 L 179.883 102.085 A 1 1 0 0 0 179.719 102.144 L 162.692 110.084 A 2 2 0 0 1 160.034 109.117 L 151.983 91.852 A 2 2 0 0 1 152.95 89.194 L 160.289 85.772 A 1 1 0 0 0 160.836 85.109 L 161.12 83.978 A 1 1 0 0 0 161.15 83.734 L 161.15 51.72 A 2 2 0 0 1 163.15 49.72 L 179.2 49.72 A 1 1 0 0 0 180.2 48.72 L 180.2 13.62 A 2 2 0 0 1 182.2 11.62 L 198.25 11.62 A 1 1 0 0 0 199.25 10.62 L 199.25 9.81 A 2 2 0 0 1 201.25 7.81 L 217.3 7.81 A 1 1 0 0 0 218.3 6.81 L 218.3 6 A 2 2 0 0 1 220.3 4 L 239.35 4 A 2 2 0 0 1 241.35 6 L 241.35 6.81 A 1 1 0 0 0 242.35 7.81 L 258.4 7.81 A 2 2 0 0 1 260.4 9.81 L 260.4 14.43 A 1 1 0 0 0 261.4 15.43 L 277.45 15.43 A 2 2 0 0 1 279.45 17.43 L 279.45 74.58 A 2 2 0 0 1 277.45 76.58 L 238.54 76.58 A 1 1 0 0 0 237.54 77.58 Z M 69.695 91.335 L 83.642 92.555 L 84.862 78.608 L 70.916 77.388 L 69.695 91.335 Z M 199.808 92.555 L 213.755 91.335 L 212.534 77.388 L 198.588 78.608 L 199.808 92.555 Z M 89.03 93.505 L 102.553 97.128 L 106.176 83.605 L 92.653 79.982 L 89.03 93.505 Z M 180.897 97.128 L 194.42 93.505 L 190.797 79.982 L 177.274 83.605 L 180.897 97.128 Z M 8.525 72.055 L 22.525 72.055 L 22.525 58.055 L 8.525 58.055 L 8.525 72.055 Z M 8.525 53.005 L 22.525 53.005 L 22.525 39.005 L 8.525 39.005 L 8.525 53.005 Z M 8.525 33.955 L 22.525 33.955 L 22.525 19.955 L 8.525 19.955 L 8.525 33.955 Z M 27.575 64.435 L 41.575 64.435 L 41.575 50.435 L 27.575 50.435 L 27.575 64.435 Z M 27.575 45.385 L 41.575 45.385 L 41.575 31.385 L 27.575 31.385 L 27.575 45.385 Z M 27.575 26.335 L 41.575 26.335 L 41.575 12.335 L 27.575 12.335 L 27.575 26.335 Z M 46.625 60.625 L 60.625 60.625 L 60.625 46.625 L 46.625 46.625 L 46.625 60.625 Z M 46.625 41.575 L 60.625 41.575 L 60.625 27.575 L 46.625 27.575 L 46.625 41.575 Z M 46.625 22.525 L 60.625 22.525 L 60.625 8.525 L 46.625 8.525 L 46.625 22.525 Z M 65.675 64.435 L 79.675 64.435 L 79.675 50.435 L 65.675 50.435 L 65.675 64.435 Z M 65.675 45.385 L 79.675 45.385 L 79.675 31.385 L 65.675 31.385 L 65.675 45.385 Z M 65.675 26.335 L 79.675 26.335 L 79.675 12.335 L 65.675 12.335 L 65.675 26.335 Z M 84.725 68.245 L 98.725 68.245 L 98.725 54.245 L 84.725 54.245 L 84.725 68.245 Z M 84.725 49.195 L 98.725 49.195 L 98.725 35.195 L 84.725 35.195 L 84.725 49.195 Z M 84.725 30.145 L 98.725 30.145 L 98.725 16.145 L 84.725 16.145 L 84.725 30.145 Z M 50.435 91.105 L 64.435 91.105 L 64.435 77.105 L 50.435 77.105 L 50.435 91.105 Z M 260.925 72.055 L 274.925 72.055 L 274.925 58.055 L 260.925 58.055 L 260.925 72.055 Z M 260.925 53.005 L 274.925 53.005 L 274.925 39.005 L 260.925 39.005 L 260.925 53.005 Z M 260.925 33.955 L 274.925 33.955 L 274.925 19.955 L 260.925 19.955 L 260.925 33.955 Z M 241.875 64.435 L 255.875 64.435 L 255.875 50.435 L 241.875 50.435 L 241.875 64.435 Z M 241.875 45.385 L 255.875 45.385 L 255.875 31.385 L 241.875 31.385 L 241.875 45.385 Z M 241.875 26.335 L 255.875 26.335 L 255.875 12.335 L 241.875 12.335 L 241.875 26.335 Z M 222.825 60.625 L 236.825 60.625 L 236.825 46.625 L 222.825 46.625 L 222.825 60.625 Z M 222.825 41.575 L 236.825 41.575 L 236.825 27.575 L 222.825 27.575 L 222.825 41.575 Z M 222.825 22.525 L 236.825 22.525 L 236.825 8.525 L 222.825 8.525 L 222.825 22.525 Z M 203.775 64.435 L 217.775 64.435 L 217.775 50.435 L 203.775 50.435 L 203.775 64.435 Z M 203.775 45.385 L 217.775 45.385 L 217.775 31.385 L 203.775 31.385 L 203.775 45.385 Z M 203.775 26.335 L 217.775 26.335 L 217.775 12.335 L 203.775 12.335 L 203.775 26.335 Z M 184.725 68.245 L 198.725 68.245 L 198.725 54.245 L 184.725 54.245 L 184.725 68.245 Z M 184.725 49.195 L 198.725 49.195 L 198.725 35.195 L 184.725 35.195 L 184.725 49.195 Z M 184.725 30.145 L 198.725 30.145 L 198.725 16.145 L 184.725 16.145 L 184.725 30.145 Z M 219.015 91.105 L 233.015 91.105 L 233.015 77.105 L 219.015 77.105 L 219.015 91.105 Z M 107.694 99 L 120.382 104.916 L 126.299 92.228 L 113.611 86.311 L 107.694 99 Z M 163.068 104.916 L 175.756 99 L 169.839 86.311 L 157.151 92.228 L 163.068 104.916 Z" vector-effect="non-scaling-stroke"/></g></svg>