0
SECTION
2
HEADER
9
$INSUNITS
70
4
0
ENDSEC
0
SECTION
2
TABLES
0
TABLE
2
LTYPE
0
LTYPE
72
65
70
64
2
CONTINUOUS
3
______
73
0
40
0
0
ENDTAB
0
TABLE
2
LAYER
0
ENDTAB
0
ENDSEC
0
SECTION
2
ENTITIES
0
LINE
8
0
10
108.385
20
-164.525
11
108.385
21
-178.575
0
ARC
8
0
10
112.385
20
-178.575
40
4
50
180
51
270
0
LINE
8
0
10
112.385
20
-182.575
11
131.2166952
21
-182.575
0
LINE
8
0
10
131.3038509
20
-182.5788053
11
149.6281071
21
-184.18197
0
LINE
8
0
10
149.7997704
20
-184.2122389
11
167.3555816
21
-188.9163043
0
LINE
8
0
10
167.5193809
20
-188.9759223
11
184.3880863
21
-196.8419287
0
ARC
8
0
10
186.0785593
20
-193.2166976
40
4
50
245.012813
51
335.0000001
0
LINE
8
0
10
189.7037905
20
-194.9071707
11
197.7546684
21
-177.6420073
0
ARC
8
0
10
194.1294372
20
-175.9515343
40
4
50
334.9999999
51
65.0000001
0
LINE
8
0
10
195.8199103
20
-172.3263031
11
188.9130077
21
-169.1055616
0
LINE
8
0
10
188.9130077
20
-169.1055616
11
188.775
21
-168.5556962
0
LINE
8
0
10
188.775
20
-168.5556962
11
188.775
21
-136.665
0
ARC
8
0
10
184.775
20
-136.665
40
4
50
0
51
90
0
LINE
8
0
10
184.775
20
-132.665
11
170.725
21
-132.665
0
LINE
8
0
10
169.725
20
-131.665
11
169.725
21
-98.565
0
ARC
8
0
10
165.725
20
-98.565
40
4
50
0
51
90
0
LINE
8
0
10
165.725
20
-94.565
11
151.5313258
21
-94.565
0
ARC
8
0
10
146.675
20
-94.755
40
4
50
13.7685287
51
450
0
LINE
8
0
10
146.675
20
-90.755
11
132.4813258
21
-90.755
0
ARC
8
0
10
127.625
20
-90.945
40
4
50
13.7685287
51
90
0
LINE
8
0
10
127.625
20
-86.945
11
108.575
21
-86.945
0
ARC
8
0
10
108.575
20
-90.945
40
4
50
90
51
166.2314713
0
LINE
8
0
10
103.7186742
20
-90.755
11
89.525
21
-90.755
0
ARC
8
0
10
89.525
20
-94.755
40
4
50
90
51
180
0
LINE
8
0
10
85.525
20
-94.755
11
85.525
21
-97.375
0
LINE
8
0
10
84.525
20
-98.375
11
70.475
21
-98.375
0
ARC
8
0
10
70.475
20
-102.375
40
4
50
90
51
180
0
LINE
8
0
10
66.475
20
-102.375
11
66.475
21
-159.525
0
ARC
8
0
10
70.475
20
-159.525
40
4
50
180
51
270
0
LINE
8
0
10
70.475
20
-163.525
11
107.385
21
-163.525
0
ARC
8
0
10
131.2166952
20
-183.575
40
1
50
85.0000024
51
90
0
ARC
8
0
10
149.5409514
20
-185.1781647
40
1
50
75.0000021
51
85.0000024
0
ARC
8
0
10
167.0967626
20
-189.8822301
40
1
50
64.9999983
51
75.0000021
0
ARC
8
0
10
188.7974827
20
-194.4845524
40
1
50
334.9999983
51
335.0000001
0
ARC
8
0
10
195.397292
20
-173.2326109
40
1
50
64.9999983
51
65.0000001
0
ARC
8
0
10
170.725
20
-131.665
40
1
50
180
51
270
0
ARC
8
0
10
151.5313258
20
-93.565
40
1
50
193.7685287
51
270
0
ARC
8
0
10
132.4813258
20
-89.755
40
1
50
193.7685287
51
270
0
ARC
8
0
10
103.7186742
20
-89.755
40
1
50
270
51
346.2314713
0
ARC
8
0
10
84.525
20
-97.375
40
1
50
270
51
0
0
ARC
8
0
10
107.385
20
-164.525
40
1
50
0
51
90
0
LINE
8
0
10
302.015
20
-162.525
11
302.015
21
-178.575
0
ARC
8
0
10
300.015
20
-178.575
40
2
50
270
51
0
0
LINE
8
0
10
300.015
20
-180.575
11
281.0959829
21
-180.575
0
LINE
8
0
10
281.0088272
20
-180.5788053
11
262.4232698
21
-182.2048309
0
LINE
8
0
10
262.2516065
20
-182.2350998
11
244.357765
21
-187.0297401
0
LINE
8
0
10
244.1939657
20
-187.0893581
11
227.1666772
21
-195.0293132
0
ARC
8
0
10
226.3214407
20
-193.2166976
40
2
50
204.9999991
51
295.0000001
0
LINE
8
0
10
224.5088251
20
-194.0619341
11
216.4579472
21
-176.7967708
0
ARC
8
0
10
218.2705628
20
-175.9515343
40
2
50
114.9999991
51
205.0000001
0
LINE
8
0
10
217.4253263
20
-174.1389187
11
224.7636487
21
-170.7170027
0
LINE
8
0
10
225.3109478
20
-170.0541292
11
225.5949174
21
-168.9227065
0
LINE
8
0
10
225.625
20
-168.6792722
11
225.625
21
-136.665
0
ARC
8
0
10
227.625
20
-136.665
40
2
50
90
51
180
0
LINE
8
0
10
227.625
20
-134.665
11
243.675
21
-134.665
0
LINE
8
0
10
244.675
20
-133.665
11
244.675
21
-98.565
0
ARC
8
0
10
246.675
20
-98.565
40
2
50
90
51
180
0
LINE
8
0
10
246.675
20
-96.565
11
262.725
21
-96.565
0
LINE
8
0
10
263.725
20
-95.565
11
263.725
21
-94.755
0
ARC
8
0
10
265.725
20
-94.755
40
2
50
450
51
180
0
LINE
8
0
10
265.725
20
-92.755
11
281.775
21
-92.755
0
LINE
8
0
10
282.775
20
-91.755
11
282.775
21
-90.945
0
ARC
8
0
10
284.775
20
-90.945
40
2
50
90
51
180
0
LINE
8
0
10
284.775
20
-88.945
11
303.825
21
-88.945
0
ARC
8
0
10
303.825
20
-90.945
40
2
50
360
51
90
0
LINE
8
0
10
305.825
20
-90.945
11
305.825
21
-91.755
0
LINE
8
0
10
306.825
20
-92.755
11
322.875
21
-92.755
0
ARC
8
0
10
322.875
20
-94.755
40
2
50
360
51
90
0
LINE
8
0
10
324.875
20
-94.755
11
324.875
21
-99.375
0
LINE
8
0
10
325.875
20
-100.375
11
341.925
21
-100.375
0
ARC
8
0
10
341.925
20
-102.375
40
2
50
360
51
90
0
LINE
8
0
10
343.925
20
-102.375
11
343.925
21
-159.525
0
ARC
8
0
10
341.925
20
-159.525
40
2
50
270
51
0
0
LINE
8
0
10
341.925
20
-161.525
11
303.015
21
-161.525
0
ARC
8
0
10
281.0959829
20
-181.575
40
1
50
90
51
94.9999976
0
ARC
8
0
10
262.5104255
20
-183.2010256
40
1
50
94.9999976
51
104.9999979
0
ARC
8
0
10
244.616584
20
-187.9956659
40
1
50
104.9999979
51
115.0000017
0
ARC
8
0
10
224.3410304
20
-169.8106949
40
1
50
295.0000017
51
345.9106756
0
ARC
8
0
10
224.625
20
-168.6792722
40
1
50
345.9106756
51
0
0
ARC
8
0
10
243.675
20
-133.665
40
1
50
270
51
0
0
ARC
8
0
10
262.725
20
-95.565
40
1
50
270
51
0
0
ARC
8
0
10
281.775
20
-91.755
40
1
50
270
51
0
0
ARC
8
0
10
306.825
20
-91.755
40
1
50
180
51
270
0
ARC
8
0
10
325.875
20
-99.375
40
1
50
180
51
270
0
ARC
8
0
10
303.015
20
-162.525
40
1
50
90
51
180
0
LINE
8
0
10
73
20
-157
11
87
21
-157
0
LINE
8
0
10
87
20
-157
11
87
21
-143
0
LINE
8
0
10
73
20
-143
11
87
21
-143
0
LINE
8
0
10
73
20
-157
11
73
21
-143
0
LINE
8
0
10
73
20
-137.95
11
87
21
-137.95
0
LINE
8
0
10
87
20
-137.95
11
87
21
-123.95
0
LINE
8
0
10
73
20
-123.95
11
87
21
-123.95
0
LINE
8
0
10
73
20
-137.95
11
73
21
-123.95
0
LINE
8
0
10
73
20
-118.9
11
87
21
-118.9
0
LINE
8
0
10
87
20
-118.9
11
87
21
-104.9
0
LINE
8
0
10
73
20
-104.9
11
87
21
-104.9
0
LINE
8
0
10
73
20
-118.9
11
73
21
-104.9
0
LINE
8
0
10
92.05
20
-149.38
11
106.05
21
-149.38
0
LINE
8
0
10
106.05
20
-149.38
11
106.05
21
-135.38
0
LINE
8
0
10
92.05
20
-135.38
11
106.05
21
-135.38
0
LINE
8
0
10
92.05
20
-149.38
11
92.05
21
-135.38
0
LINE
8
0
10
92.05
20
-130.33
11
106.05
21
-130.33
0
LINE
8
0
10
106.05
20
-130.33
11
106.05
21
-116.33
0
LINE
8
0
10
92.05
20
-116.33
11
106.05
21
-116.33
0
LINE
8
0
10
92.05
20
-130.33
11
92.05
21
-116.33
0
LINE
8
0
10
92.05
20
-111.28
11
106.05
21
-111.28
0
LINE
8
0
10
106.05
20
-111.28
11
106.05
21
-97.28
0
LINE
8
0
10
92.05
20
-97.28
11
106.05
21
-97.28
0
LINE
8
0
10
92.05
20
-111.28
11
92.05
21
-97.28
0
LINE
8
0
10
111.1
20
-145.57
11
125.1
21
-145.57
0
LINE
8
0
10
125.1
20
-145.57
11
125.1
21
-131.57
0
LINE
8
0
10
111.1
20
-131.57
11
125.1
21
-131.57
0
LINE
8
0
10
111.1
20
-145.57
11
111.1
21
-131.57
0
LINE
8
0
10
111.1
20
-126.52
11
125.1
21
-126.52
0
LINE
8
0
10
125.1
20
-126.52
11
125.1
21
-112.52
0
LINE
8
0
10
111.1
20
-112.52
11
125.1
21
-112.52
0
LINE
8
0
10
111.1
20
-126.52
11
111.1
21
-112.52
0
LINE
8
0
10
111.1
20
-107.47
11
125.1
21
-107.47
0
LINE
8
0
10
125.1
20
-107.47
11
125.1
21
-93.47
0
LINE
8
0
10
111.1
20
-93.47
11
125.1
21
-93.47
0
LINE
8
0
10
111.1
20
-107.47
11
111.1
21
-93.47
0
LINE
8
0
10
130.15
20
-149.38
11
144.15
21
-149.38
0
LINE
8
0
10
144.15
20
-149.38
11
144.15
21
-135.38
0
LINE
8
0
10
130.15
20
-135.38
11
144.15
21
-135.38
0
LINE
8
0
10
130.15
20
-149.38
11
130.15
21
-135.38
0
LINE
8
0
10
130.15
20
-130.33
11
144.15
21
-130.33
0
LINE
8
0
10
144.15
20
-130.33
11
144.15
21
-116.33
0
LINE
8
0
10
130.15
20
-116.33
11
144.15
21
-116.33
0
LINE
8
0
10
130.15
20
-130.33
11
130.15
21
-116.33
0
LINE
8
0
10
130.15
20
-111.28
11
144.15
21
-111.28
0
LINE
8
0
10
144.15
20
-111.28
11
144.15
21
-97.28
0
LINE
8
0
10
130.15
20
-97.28
11
144.15
21
-97.28
0
LINE
8
0
10
130.15
20
-111.28
11
130.15
21
-97.28
0
LINE
8
0
10
149.2
20
-153.19
11
163.2
21
-153.19
0
LINE
8
0
10
163.2
20
-153.19
11
163.2
21
-139.19
0
LINE
8
0
10
149.2
20
-139.19
11
163.2
21
-139.19
0
LINE
8
0
10
149.2
20
-153.19
11
149.2
21
-139.19
0
LINE
8
0
10
149.2
20
-134.14
11
163.2
21
-134.14
0
LINE
8
0
10
163.2
20
-134.14
11
163.2
21
-120.14
0
LINE
8
0
10
149.2
20
-120.14
11
163.2
21
-120.14
0
LINE
8
0
10
149.2
20
-134.14
11
149.2
21
-120.14
0
LINE
8
0
10
149.2
20
-115.09
11
163.2
21
-115.09
0
LINE
8
0
10
163.2
20
-115.09
11
163.2
21
-101.09
0
LINE
8
0
10
149.2
20
-101.09
11
163.2
21
-101.09
0
LINE
8
0
10
149.2
20
-115.09
11
149.2
21
-101.09
0
LINE
8
0
10
114.91
20
-176.05
11
128.91
21
-176.05
0
LINE
8
0
10
128.91
20
-176.05
11
128.91
21
-162.05
0
LINE
8
0
10
114.91
20
-162.05
11
128.91
21
-162.05
0
LINE
8
0
10
114.91
20
-176.05
11
114.91
21
-162.05
0
LINE
8
0
10
134.1704598
20
-176.2796767
11
148.1171856
21
-177.4998571
0
LINE
8
0
10
148.1171856
20
-177.4998571
11
149.337366
21
-163.5531313
0
LINE
8
0
10
135.3906402
20
-162.3329509
11
149.337366
21
-163.5531313
0
LINE
8
0
10
134.1704598
20
-176.2796767
11
135.3906402
21
-162.3329509
0
LINE
8
0
10
153.5049898
20
-178.4498723
11
167.0279514
21
-182.0733389
0
LINE
8
0
10
167.0279514
20
-182.0733389
11
170.651418
21
-168.5503773
0
LINE
8
0
10
157.1284564
20
-164.9269107
11
170.651418
21
-168.5503773
0
LINE
8
0
10
153.5049898
20
-178.4498723
11
157.1284564
21
-164.9269107
0
LINE
8
0
10
172.1689343
20
-183.9445037
11
184.8572433
21
-189.8611593
0
LINE
8
0
10
184.8572433
20
-189.8611593
11
190.7738989
21
-177.1728503
0
LINE
8
0
10
178.0855899
20
-171.2561947
11
190.7738989
21
-177.1728503
0
LINE
8
0
10
172.1689343
20
-183.9445037
11
178.0855899
21
-171.2561947
0
LINE
8
0
10
325.4
20
-157
11
339.4
21
-157
0
LINE
8
0
10
339.4
20
-157
11
339.4
21
-143
0
LINE
8
0
10
325.4
20
-143
11
339.4
21
-143
0
LINE
8
0
10
325.4
20
-157
11
325.4
21
-143
0
LINE
8
0
10
325.4
20
-137.95
11
339.4
21
-137.95
0
LINE
8
0
10
339.4
20
-137.95
11
339.4
21
-123.95
0
LINE
8
0
10
325.4
20
-123.95
11
339.4
21
-123.95
0
LINE
8
0
10
325.4
20
-137.95
11
325.4
21
-123.95
0
LINE
8
0
10
325.4
20
-118.9
11
339.4
21
-118.9
0
LINE
8
0
10
339.4
20
-118.9
11
339.4
21
-104.9
0
LINE
8
0
10
325.4
20
-104.9
11
339.4
21
-104.9
0
LINE
8
0
10
325.4
20
-118.9
11
325.4
21
-104.9
0
LINE
8
0
10
306.35
20
-149.38
11
320.35
21
-149.38
0
LINE
8
0
10
320.35
20
-149.38
11
320.35
21
-135.38
0
LINE
8
0
10
306.35
20
-135.38
11
320.35
21
-135.38
0
LINE
8
0
10
306.35
20
-149.38
11
306.35
21
-135.38
0
LINE
8
0
10
306.35
20
-130.33
11
320.35
21
-130.33
0
LINE
8
0
10
320.35
20
-130.33
11
320.35
21
-116.33
0
LINE
8
0
10
306.35
20
-116.33
11
320.35
21
-116.33
0
LINE
8
0
10
306.35
20
-130.33
11
306.35
21
-116.33
0
LINE
8
0
10
306.35
20
-111.28
11
320.35
21
-111.28
0
LINE
8
0
10
320.35
20
-111.28
11
320.35
21
-97.28
0
LINE
8
0
10
306.35
20
-97.28
11
320.35
21
-97.28
0
LINE
8
0
10
306.35
20
-111.28
11
306.35
21
-97.28
0
LINE
8
0
10
287.3
20
-145.57
11
301.3
21
-145.57
0
LINE
8
0
10
301.3
20
-145.57
11
301.3
21
-131.57
0
LINE
8
0
10
287.3
20
-131.57
11
301.3
21
-131.57
0
LINE
8
0
10
287.3
20
-145.57
11
287.3
21
-131.57
0
LINE
8
0
10
287.3
20
-126.52
11
301.3
21
-126.52
0
LINE
8
0
10
301.3
20
-126.52
11
301.3
21
-112.52
0
LINE
8
0
10
287.3
20
-112.52
11
301.3
21
-112.52
0
LINE
8
0
10
287.3
20
-126.52
11
287.3
21
-112.52
0
LINE
8
0
10
287.3
20
-107.47
11
301.3
21
-107.47
0
LINE
8
0
10
301.3
20
-107.47
11
301.3
21
-93.47
0
LINE
8
0
10
287.3
20
-93.47
11
301.3
21
-93.47
0
LINE
8
0
10
287.3
20
-107.47
11
287.3
21
-93.47
0
LINE
8
0
10
268.25
20
-149.38
11
282.25
21
-149.38
0
LINE
8
0
10
282.25
20
-149.38
11
282.25
21
-135.38
0
LINE
8
0
10
268.25
20
-135.38
11
282.25
21
-135.38
0
LINE
8
0
10
268.25
20
-149.38
11
268.25
21
-135.38
0
LINE
8
0
10
268.25
20
-130.33
11
282.25
21
-130.33
0
LINE
8
0
10
282.25
20
-130.33
11
282.25
21
-116.33
0
LINE
8
0
10
268.25
20
-116.33
11
282.25
21
-116.33
0
LINE
8
0
10
268.25
20
-130.33
11
268.25
21
-116.33
0
LINE
8
0
10
268.25
20
-111.28
11
282.25
21
-111.28
0
LINE
8
0
10
282.25
20
-111.28
11
282.25
21
-97.28
0
LINE
8
0
10
268.25
20
-97.28
11
282.25
21
-97.28
0
LINE
8
0
10
268.25
20
-111.28
11
268.25
21
-97.28
0
LINE
8
0
10
249.2
20
-153.19
11
263.2
21
-153.19
0
LINE
8
0
10
263.2
20
-153.19
11
263.2
21
-139.19
0
LINE
8
0
10
249.2
20
-139.19
11
263.2
21
-139.19
0
LINE
8
0
10
249.2
20
-153.19
11
249.2
21
-139.19
0
LINE
8
0
10
249.2
20
-134.14
11
263.2
21
-134.14
0
LINE
8
0
10
263.2
20
-134.14
11
263.2
21
-120.14
0
LINE
8
0
10
249.2
20
-120.14
11
263.2
21
-120.14
0
LINE
8
0
10
249.2
20
-134.14
11
249.2
21
-120.14
0
LINE
8
0
10
249.2
20
-115.09
11
263.2
21
-115.09
0
LINE
8
0
10
263.2
20
-115.09
11
263.2
21
-101.09
0
LINE
8
0
10
249.2
20
-101.09
11
263.2
21
-101.09
0
LINE
8
0
10
249.2
20
-115.09
11
249.2
21
-101.09
0
LINE
8
0
10
283.49
20
-176.05
11
297.49
21
-176.05
0
LINE
8
0
10
297.49
20
-176.05
11
297.49
21
-162.05
0
LINE
8
0
10
283.49
20
-162.05
11
297.49
21
-162.05
0
LINE
8
0
10
283.49
20
-176.05
11
283.49
21
-162.05
0
LINE
8
0
10
264.2828144
20
-177.4998571
11
278.2295402
21
-176.2796767
0
LINE
8
0
10
277.0093598
20
-162.3329509
11
278.2295402
21
-176.2796767
0
LINE
8
0
10
263.062634
20
-163.5531313
11
277.0093598
21
-162.3329509
0
LINE
8
0
10
263.062634
20
-163.5531313
11
264.2828144
21
-177.4998571
0
LINE
8
0
10
245.3720486
20
-182.0733389
11
258.8950102
21
-178.4498723
0
LINE
8
0
10
255.2715436
20
-164.9269107
11
258.8950102
21
-178.4498723
0
LINE
8
0
10
241.748582
20
-168.5503773
11
255.2715436
21
-164.9269107
0
LINE
8
0
10
241.748582
20
-168.5503773
11
245.3720486
21
-182.0733389
0
LINE
8
0
10
227.5427567
20
-189.8611593
11
240.2310657
21
-183.9445037
0
LINE
8
0
10
234.3144101
20
-171.2561947
11
240.2310657
21
-183.9445037
0
LINE
8
0
10
221.6261011
20
-177.1728503
11
234.3144101
21
-171.2561947
0
LINE
8
0
10
221.6261011
20
-177.1728503
11
227.5427567
21
-189.8611593
0
LINE
8
0
10
106.385
20
-166.525
11
106.385
21
-178.575
0
ARC
8
0
10
112.385
20
-178.575
40
6
50
180
51
270
0
LINE
8
0
10
112.385
20
-184.575
11
131.1293732
21
-184.575
0
LINE
8
0
10
131.2165289
20
-184.5788053
11
149.2794838
21
-186.1591091
0
LINE
8
0
10
149.4511471
20
-186.189378
11
166.6689282
21
-190.8028684
0
LINE
8
0
10
166.8327275
20
-190.8624864
11
183.5428497
21
-198.6545443
0
ARC
8
0
10
186.0785593
20
-193.2166976
40
6
50
245.012813
51
334.9999999
0
LINE
8
0
10
191.516406
20
-195.7524072
11
199.5672839
21
-178.4872439
0
ARC
8
0
10
194.1294372
20
-175.9515343
40
6
50
334.9999999
51
425.0000001
0
LINE
8
0
10
196.6651468
20
-170.5136875
11
191.3523817
21
-168.0363045
0
LINE
8
0
10
190.775
20
-167.1299967
11
190.775
21
-136.665
0
ARC
8
0
10
184.775
20
-136.665
40
6
50
0
51
90
0
LINE
8
0
10
184.775
20
-130.665
11
172.725
21
-130.665
0
LINE
8
0
10
171.725
20
-129.665
11
171.725
21
-98.565
0
ARC
8
0
10
165.725
20
-98.565
40
6
50
0
51
90
0
LINE
8
0
10
165.725
20
-92.565
11
152.9058828
21
-92.565
0
ARC
8
0
10
146.675
20
-94.755
40
6
50
27.1109019
51
90
0
LINE
8
0
10
146.675
20
-88.755
11
133.8558828
21
-88.755
0
ARC
8
0
10
127.625
20
-90.945
40
6
50
27.1109019
51
90
0
LINE
8
0
10
127.625
20
-84.945
11
108.575
21
-84.945
0
ARC
8
0
10
108.575
20
-90.945
40
6
50
90
51
152.8890981
0
LINE
8
0
10
102.3441172
20
-88.755
11
89.525
21
-88.755
0
ARC
8
0
10
89.525
20
-94.755
40
6
50
90
51
180
0
LINE
8
0
10
83.525
20
-94.755
11
83.525
21
-95.375
0
LINE
8
0
10
82.525
20
-96.375
11
70.475
21
-96.375
0
ARC
8
0
10
70.475
20
-102.375
40
6
50
90
51
180
0
LINE
8
0
10
64.475
20
-102.375
11
64.475
21
-159.525
0
ARC
8
0
10
70.475
20
-159.525
40
6
50
180
51
270
0
LINE
8
0
10
70.475
20
-165.525
11
105.385
21
-165.525
0
ARC
8
0
10
131.1293732
20
-185.575
40
1
50
85.0000024
51
90
0
ARC
8
0
10
149.1923281
20
-187.1553038
40
1
50
75.0000021
51
85.0000024
0
ARC
8
0
10
166.4101092
20
-191.7687942
40
1
50
64.9999983
51
75.0000021
0
ARC
8
0
10
190.6100982
20
-195.3297889
40
1
50
334.9999983
51
334.9999999
0
ARC
8
0
10
198.6609761
20
-178.0646256
40
1
50
334.9999983
51
334.9999999
0
ARC
8
0
10
191.775
20
-167.1299967
40
1
50
180
51
244.9999983
0
ARC
8
0
10
172.725
20
-129.665
40
1
50
180
51
270
0
ARC
8
0
10
152.9058828
20
-91.565
40
1
50
207.1109019
51
270
0
ARC
8
0
10
133.8558828
20
-87.755
40
1
50
207.1109019
51
270
0
ARC
8
0
10
102.3441172
20
-87.755
40
1
50
270
51
332.8890981
0
ARC
8
0
10
82.525
20
-95.375
40
1
50
270
51
0
0
ARC
8
0
10
105.385
20
-166.525
40
1
50
0
51
90
0
LINE
8
0
10
304.015
20
-163.525
11
304.015
21
-178.575
0
ARC
8
0
10
300.015
20
-178.575
40
4
50
270
51
360
0
LINE
8
0
10
300.015
20
-182.575
11
281.1396439
21
-182.575
0
LINE
8
0
10
281.1396439
20
-182.575
11
262.6847373
21
-184.1895951
0
LINE
8
0
10
262.6847373
20
-184.1895951
11
244.9599104
21
-188.9389481
0
LINE
8
0
10
244.9599104
20
-188.9389481
11
228.0119137
21
-196.8419287
0
ARC
8
0
10
226.3214407
20
-193.2166976
40
4
50
204.9999991
51
294.987187
0
LINE
8
0
10
222.6962095
20
-194.9071706
11
214.6453316
21
-177.6420073
0
ARC
8
0
10
218.2705628
20
-175.9515343
40
4
50
114.9999991
51
205.0000001
0
LINE
8
0
10
216.5800898
20
-172.3263031
11
223.4869923
21
-169.1055616
0
LINE
8
0
10
223.4869923
20
-169.1055616
11
223.625
21
-168.5556962
0
LINE
8
0
10
223.625
20
-168.5556962
11
223.625
21
-136.665
0
ARC
8
0
10
227.625
20
-136.665
40
4
50
90
51
180
0
LINE
8
0
10
227.625
20
-132.665
11
242.675
21
-132.665
0
LINE
8
0
10
242.675
20
-132.665
11
242.675
21
-98.565
0
ARC
8
0
10
246.675
20
-98.565
40
4
50
90
51
180
0
LINE
8
0
10
246.675
20
-94.565
11
261.729515
21
-94.565
0
ARC
8
0
10
265.725
20
-94.755
40
4
50
90
51
177.277426
0
LINE
8
0
10
265.725
20
-90.755
11
280.779515
21
-90.755
0
ARC
8
0
10
284.775
20
-90.945
40
4
50
90
51
177.277426
0
LINE
8
0
10
284.775
20
-86.945
11
303.825
21
-86.945
0
ARC
8
0
10
303.825
20
-90.945
40
4
50
2.722574
51
90
0
LINE
8
0
10
307.820485
20
-90.755
11
322.875
21
-90.755
0
ARC
8
0
10
322.875
20
-94.755
40
4
50
0
51
90
0
LINE
8
0
10
326.875
20
-94.755
11
326.875
21
-98.375
0
LINE
8
0
10
326.875
20
-98.375
11
341.925
21
-98.375
0
ARC
8
0
10
341.925
20
-102.375
40
4
50
0
51
90
0
LINE
8
0
10
345.925
20
-102.375
11
345.925
21
-159.525
0
ARC
8
0
10
341.925
20
-159.525
40
4
50
270
51
360
0
LINE
8
0
10
341.925
20
-163.525
11
304.015
21
-163.525
0
ENDSEC
0
EOF