<svg width="131.654mm" height="110.272mm" viewBox="0 0 131.654 110.272" xmlns="http://www.w3.org/2000/svg"><g id="svgGroup" stroke-linecap="round" fill-rule="evenodd" font-size="9pt" stroke="#000" stroke-width="0.25mm" fill="none" style="stroke:#000;stroke-width:0.25mm;fill:none"><path d="M 89.744 76.58 L 89.744 91.63 A 4 4 0 0 1 85.744 95.63 L 66.869 95.63 L 48.414 97.245 L 30.689 101.994 L 13.741 109.897 A 4 4 0 0 1 8.426 107.962 L 0.375 90.697 A 4 4 0 0 1 2.31 85.381 L 9.216 82.161 L 9.354 81.611 L 9.354 49.72 A 4 4 0 0 1 13.354 45.72 L 28.404 45.72 L 28.404 11.62 A 4 4 0 0 1 32.404 7.62 L 47.459 7.62 A 4 4 0 0 1 51.454 3.81 L 66.509 3.81 A 4 4 0 0 1 70.504 0 L 89.554 0 A 4 4 0 0 1 93.55 3.81 L 108.604 3.81 A 4 4 0 0 1 112.604 7.81 L 112.604 11.43 L 127.654 11.43 A 4 4 0 0 1 131.654 15.43 L 131.654 72.58 A 4 4 0 0 1 127.654 76.58 L 89.744 76.58 Z M 50.012 90.555 L 63.959 89.335 L 62.739 75.388 L 48.792 76.608 L 50.012 90.555 Z M 31.101 95.128 L 44.624 91.505 L 41.001 77.982 L 27.478 81.605 L 31.101 95.128 Z M 111.129 70.055 L 125.129 70.055 L 125.129 56.055 L 111.129 56.055 L 111.129 70.055 Z M 111.129 51.005 L 125.129 51.005 L 125.129 37.005 L 111.129 37.005 L 111.129 51.005 Z M 111.129 31.955 L 125.129 31.955 L 125.129 17.955 L 111.129 17.955 L 111.129 31.955 Z M 92.079 62.435 L 106.079 62.435 L 106.079 48.435 L 92.079 48.435 L 92.079 62.435 Z M 92.079 43.385 L 106.079 43.385 L 106.079 29.385 L 92.079 29.385 L 92.079 43.385 Z M 92.079 24.335 L 106.079 24.335 L 106.079 10.335 L 92.079 10.335 L 92.079 24.335 Z M 73.029 58.625 L 87.029 58.625 L 87.029 44.625 L 73.029 44.625 L 73.029 58.625 Z M 73.029 39.575 L 87.029 39.575 L 87.029 25.575 L 73.029 25.575 L 73.029 39.575 Z M 73.029 20.525 L 87.029 20.525 L 87.029 6.525 L 73.029 6.525 L 73.029 20.525 Z M 53.979 62.435 L 67.979 62.435 L 67.979 48.435 L 53.979 48.435 L 53.979 62.435 Z M 53.979 43.385 L 67.979 43.385 L 67.979 29.385 L 53.979 29.385 L 53.979 43.385 Z M 53.979 24.335 L 67.979 24.335 L 67.979 10.335 L 53.979 10.335 L 53.979 24.335 Z M 34.929 66.245 L 48.929 66.245 L 48.929 52.245 L 34.929 52.245 L 34.929 66.245 Z M 34.929 47.195 L 48.929 47.195 L 48.929 33.195 L 34.929 33.195 L 34.929 47.195 Z M 34.929 28.145 L 48.929 28.145 L 48.929 14.145 L 34.929 14.145 L 34.929 28.145 Z M 69.219 89.105 L 83.219 89.105 L 83.219 75.105 L 69.219 75.105 L 69.219 89.105 Z M 13.272 102.916 L 25.961 97 L 20.044 84.311 L 7.356 90.228 L 13.272 102.916 Z" vector-effect="non-scaling-stroke"/></g></svg>