0
SECTION
2
HEADER
9
$INSUNITS
70
4
0
ENDSEC
0
SECTION
2
TABLES
0
TABLE
2
LTYPE
0
LTYPE
72
65
70
64
2
CONTINUOUS
3
______
73
0
40
0
0
ENDTAB
0
TABLE
2
LAYER
0
ENDTAB
0
ENDSEC
0
SECTION
2
ENTITIES
0
LINE
8
0
10
304.015
20
-163.525
11
304.015
21
-178.575
0
ARC
8
0
10
300.015
20
-178.575
40
4
50
270
51
360
0
LINE
8
0
10
300.015
20
-182.575
11
281.1396439
21
-182.575
0
LINE
8
0
10
281.1396439
20
-182.575
11
262.6847373
21
-184.1895951
0
LINE
8
0
10
262.6847373
20
-184.1895951
11
244.9599104
21
-188.9389481
0
LINE
8
0
10
244.9599104
20
-188.9389481
11
228.0119137
21
-196.8419287
0
ARC
8
0
10
226.3214407
20
-193.2166976
40
4
50
204.9999991
51
294.987187
0
LINE
8
0
10
222.6962095
20
-194.9071706
11
214.6453316
21
-177.6420073
0
ARC
8
0
10
218.2705628
20
-175.9515343
40
4
50
114.9999991
51
205.0000001
0
LINE
8
0
10
216.5800898
20
-172.3263031
11
223.4869923
21
-169.1055616
0
LINE
8
0
10
223.4869923
20
-169.1055616
11
223.625
21
-168.5556962
0
LINE
8
0
10
223.625
20
-168.5556962
11
223.625
21
-136.665
0
ARC
8
0
10
227.625
20
-136.665
40
4
50
90
51
180
0
LINE
8
0
10
227.625
20
-132.665
11
242.675
21
-132.665
0
LINE
8
0
10
242.675
20
-132.665
11
242.675
21
-98.565
0
ARC
8
0
10
246.675
20
-98.565
40
4
50
90
51
180
0
LINE
8
0
10
246.675
20
-94.565
11
261.729515
21
-94.565
0
ARC
8
0
10
265.725
20
-94.755
40
4
50
90
51
177.277426
0
LINE
8
0
10
265.725
20
-90.755
11
280.779515
21
-90.755
0
ARC
8
0
10
284.775
20
-90.945
40
4
50
90
51
177.277426
0
LINE
8
0
10
284.775
20
-86.945
11
303.825
21
-86.945
0
ARC
8
0
10
303.825
20
-90.945
40
4
50
2.722574
51
90
0
LINE
8
0
10
307.820485
20
-90.755
11
322.875
21
-90.755
0
ARC
8
0
10
322.875
20
-94.755
40
4
50
0
51
90
0
LINE
8
0
10
326.875
20
-94.755
11
326.875
21
-98.375
0
LINE
8
0
10
326.875
20
-98.375
11
341.925
21
-98.375
0
ARC
8
0
10
341.925
20
-102.375
40
4
50
0
51
90
0
LINE
8
0
10
345.925
20
-102.375
11
345.925
21
-159.525
0
ARC
8
0
10
341.925
20
-159.525
40
4
50
270
51
360
0
LINE
8
0
10
341.925
20
-163.525
11
304.015
21
-163.525
0
LINE
8
0
10
325.4
20
-157
11
339.4
21
-157
0
LINE
8
0
10
339.4
20
-157
11
339.4
21
-143
0
LINE
8
0
10
339.4
20
-143
11
325.4
21
-143
0
LINE
8
0
10
325.4
20
-143
11
325.4
21
-157
0
LINE
8
0
10
325.4
20
-137.95
11
339.4
21
-137.95
0
LINE
8
0
10
339.4
20
-137.95
11
339.4
21
-123.95
0
LINE
8
0
10
339.4
20
-123.95
11
325.4
21
-123.95
0
LINE
8
0
10
325.4
20
-123.95
11
325.4
21
-137.95
0
LINE
8
0
10
325.4
20
-118.9
11
339.4
21
-118.9
0
LINE
8
0
10
339.4
20
-118.9
11
339.4
21
-104.9
0
LINE
8
0
10
339.4
20
-104.9
11
325.4
21
-104.9
0
LINE
8
0
10
325.4
20
-104.9
11
325.4
21
-118.9
0
LINE
8
0
10
306.35
20
-149.38
11
320.35
21
-149.38
0
LINE
8
0
10
320.35
20
-149.38
11
320.35
21
-135.38
0
LINE
8
0
10
320.35
20
-135.38
11
306.35
21
-135.38
0
LINE
8
0
10
306.35
20
-135.38
11
306.35
21
-149.38
0
LINE
8
0
10
306.35
20
-130.33
11
320.35
21
-130.33
0
LINE
8
0
10
320.35
20
-130.33
11
320.35
21
-116.33
0
LINE
8
0
10
320.35
20
-116.33
11
306.35
21
-116.33
0
LINE
8
0
10
306.35
20
-116.33
11
306.35
21
-130.33
0
LINE
8
0
10
306.35
20
-111.28
11
320.35
21
-111.28
0
LINE
8
0
10
320.35
20
-111.28
11
320.35
21
-97.28
0
LINE
8
0
10
320.35
20
-97.28
11
306.35
21
-97.28
0
LINE
8
0
10
306.35
20
-97.28
11
306.35
21
-111.28
0
LINE
8
0
10
287.3
20
-145.57
11
301.3
21
-145.57
0
LINE
8
0
10
301.3
20
-145.57
11
301.3
21
-131.57
0
LINE
8
0
10
301.3
20
-131.57
11
287.3
21
-131.57
0
LINE
8
0
10
287.3
20
-131.57
11
287.3
21
-145.57
0
LINE
8
0
10
287.3
20
-126.52
11
301.3
21
-126.52
0
LINE
8
0
10
301.3
20
-126.52
11
301.3
21
-112.52
0
LINE
8
0
10
301.3
20
-112.52
11
287.3
21
-112.52
0
LINE
8
0
10
287.3
20
-112.52
11
287.3
21
-126.52
0
LINE
8
0
10
287.3
20
-107.47
11
301.3
21
-107.47
0
LINE
8
0
10
301.3
20
-107.47
11
301.3
21
-93.47
0
LINE
8
0
10
301.3
20
-93.47
11
287.3
21
-93.47
0
LINE
8
0
10
287.3
20
-93.47
11
287.3
21
-107.47
0
LINE
8
0
10
268.25
20
-149.38
11
282.25
21
-149.38
0
LINE
8
0
10
282.25
20
-149.38
11
282.25
21
-135.38
0
LINE
8
0
10
282.25
20
-135.38
11
268.25
21
-135.38
0
LINE
8
0
10
268.25
20
-135.38
11
268.25
21
-149.38
0
LINE
8
0
10
268.25
20
-130.33
11
282.25
21
-130.33
0
LINE
8
0
10
282.25
20
-130.33
11
282.25
21
-116.33
0
LINE
8
0
10
282.25
20
-116.33
11
268.25
21
-116.33
0
LINE
8
0
10
268.25
20
-116.33
11
268.25
21
-130.33
0
LINE
8
0
10
268.25
20
-111.28
11
282.25
21
-111.28
0
LINE
8
0
10
282.25
20
-111.28
11
282.25
21
-97.28
0
LINE
8
0
10
282.25
20
-97.28
11
268.25
21
-97.28
0
LINE
8
0
10
268.25
20
-97.28
11
268.25
21
-111.28
0
LINE
8
0
10
249.2
20
-153.19
11
263.2
21
-153.19
0
LINE
8
0
10
263.2
20
-153.19
11
263.2
21
-139.19
0
LINE
8
0
10
263.2
20
-139.19
11
249.2
21
-139.19
0
LINE
8
0
10
249.2
20
-139.19
11
249.2
21
-153.19
0
LINE
8
0
10
249.2
20
-134.14
11
263.2
21
-134.14
0
LINE
8
0
10
263.2
20
-134.14
11
263.2
21
-120.14
0
LINE
8
0
10
263.2
20
-120.14
11
249.2
21
-120.14
0
LINE
8
0
10
249.2
20
-120.14
11
249.2
21
-134.14
0
LINE
8
0
10
249.2
20
-115.09
11
263.2
21
-115.09
0
LINE
8
0
10
263.2
20
-115.09
11
263.2
21
-101.09
0
LINE
8
0
10
263.2
20
-101.09
11
249.2
21
-101.09
0
LINE
8
0
10
249.2
20
-101.09
11
249.2
21
-115.09
0
LINE
8
0
10
283.49
20
-176.05
11
297.49
21
-176.05
0
LINE
8
0
10
297.49
20
-176.05
11
297.49
21
-162.05
0
LINE
8
0
10
297.49
20
-162.05
11
283.49
21
-162.05
0
LINE
8
0
10
283.49
20
-162.05
11
283.49
21
-176.05
0
LINE
8
0
10
264.2828144
20
-177.4998571
11
278.2295402
21
-176.2796767
0
LINE
8
0
10
278.2295402
20
-176.2796767
11
277.0093598
21
-162.3329509
0
LINE
8
0
10
277.0093598
20
-162.3329509
11
263.062634
21
-163.5531313
0
LINE
8
0
10
263.062634
20
-163.5531313
11
264.2828144
21
-177.4998571
0
LINE
8
0
10
245.3720486
20
-182.0733389
11
258.8950102
21
-178.4498723
0
LINE
8
0
10
258.8950102
20
-178.4498723
11
255.2715436
21
-164.9269107
0
LINE
8
0
10
255.2715436
20
-164.9269107
11
241.748582
21
-168.5503773
0
LINE
8
0
10
241.748582
20
-168.5503773
11
245.3720486
21
-182.0733389
0
LINE
8
0
10
227.5427567
20
-189.8611593
11
240.2310657
21
-183.9445037
0
LINE
8
0
10
240.2310657
20
-183.9445037
11
234.3144101
21
-171.2561947
0
LINE
8
0
10
234.3144101
20
-171.2561947
11
221.6261011
21
-177.1728503
0
LINE
8
0
10
221.6261011
20
-177.1728503
11
227.5427567
21
-189.8611593
0
ENDSEC
0
EOF