<svg width="135.654mm" height="114.272mm" viewBox="0 0 135.654 114.272" xmlns="http://www.w3.org/2000/svg"><g id="svgGroup" stroke-linecap="round" fill-rule="evenodd" font-size="9pt" stroke="#000" stroke-width="0.25mm" fill="none" style="stroke:#000;stroke-width:0.25mm;fill:none"><path d="M 41.91 81.58 L 41.91 93.63 A 6 6 0 0 0 47.91 99.63 L 66.654 99.63 A 1 1 0 0 1 66.742 99.634 L 84.804 101.214 A 1 1 0 0 1 84.976 101.244 L 102.194 105.858 A 1 1 0 0 1 102.358 105.917 L 119.068 113.71 A 6 6 0 0 0 127.041 110.807 L 135.092 93.542 A 6 6 0 0 0 132.19 85.569 L 126.877 83.091 A 1 1 0 0 1 126.3 82.185 L 126.3 51.72 A 6 6 0 0 0 120.3 45.72 L 108.25 45.72 A 1 1 0 0 1 107.25 44.72 L 107.25 13.62 A 6 6 0 0 0 101.25 7.62 L 88.431 7.62 A 1 1 0 0 1 87.541 7.076 A 6 6 0 0 0 82.2 3.81 L 69.381 3.81 A 1 1 0 0 1 68.491 3.266 A 6 6 0 0 0 63.15 0 L 44.1 0 A 6 6 0 0 0 38.759 3.266 A 1 1 0 0 1 37.869 3.81 L 25.05 3.81 A 6 6 0 0 0 19.05 9.81 L 19.05 10.43 A 1 1 0 0 1 18.05 11.43 L 6 11.43 A 6 6 0 0 0 0 17.43 L 0 74.58 A 6 6 0 0 0 6 80.58 L 40.91 80.58 A 1 1 0 0 1 41.91 81.58 Z M 69.695 91.335 L 83.642 92.555 L 84.862 78.608 L 70.916 77.388 L 69.695 91.335 Z M 89.03 93.505 L 102.553 97.128 L 106.176 83.605 L 92.653 79.982 L 89.03 93.505 Z M 8.525 72.055 L 22.525 72.055 L 22.525 58.055 L 8.525 58.055 L 8.525 72.055 Z M 8.525 53.005 L 22.525 53.005 L 22.525 39.005 L 8.525 39.005 L 8.525 53.005 Z M 8.525 33.955 L 22.525 33.955 L 22.525 19.955 L 8.525 19.955 L 8.525 33.955 Z M 27.575 64.435 L 41.575 64.435 L 41.575 50.435 L 27.575 50.435 L 27.575 64.435 Z M 27.575 45.385 L 41.575 45.385 L 41.575 31.385 L 27.575 31.385 L 27.575 45.385 Z M 27.575 26.335 L 41.575 26.335 L 41.575 12.335 L 27.575 12.335 L 27.575 26.335 Z M 46.625 60.625 L 60.625 60.625 L 60.625 46.625 L 46.625 46.625 L 46.625 60.625 Z M 46.625 41.575 L 60.625 41.575 L 60.625 27.575 L 46.625 27.575 L 46.625 41.575 Z M 46.625 22.525 L 60.625 22.525 L 60.625 8.525 L 46.625 8.525 L 46.625 22.525 Z M 65.675 64.435 L 79.675 64.435 L 79.675 50.435 L 65.675 50.435 L 65.675 64.435 Z M 65.675 45.385 L 79.675 45.385 L 79.675 31.385 L 65.675 31.385 L 65.675 45.385 Z M 65.675 26.335 L 79.675 26.335 L 79.675 12.335 L 65.675 12.335 L 65.675 26.335 Z M 84.725 68.245 L 98.725 68.245 L 98.725 54.245 L 84.725 54.245 L 84.725 68.245 Z M 84.725 49.195 L 98.725 49.195 L 98.725 35.195 L 84.725 35.195 L 84.725 49.195 Z M 84.725 30.145 L 98.725 30.145 L 98.725 16.145 L 84.725 16.145 L 84.725 30.145 Z M 50.435 91.105 L 64.435 91.105 L 64.435 77.105 L 50.435 77.105 L 50.435 91.105 Z M 107.694 99 L 120.382 104.916 L 126.299 92.228 L 113.611 86.311 L 107.694 99 Z" vector-effect="non-scaling-stroke"/></g></svg>