0
SECTION
2
HEADER
9
$INSUNITS
70
4
0
ENDSEC
0
SECTION
2
TABLES
0
TABLE
2
LTYPE
0
LTYPE
72
65
70
64
2
CONTINUOUS
3
______
73
0
40
0
0
ENDTAB
0
TABLE
2
LAYER
0
ENDTAB
0
ENDSEC
0
SECTION
2
ENTITIES
0
LINE
8
0
10
106.385
20
-166.525
11
106.385
21
-178.575
0
ARC
8
0
10
112.385
20
-178.575
40
6
50
180
51
270
0
LINE
8
0
10
112.385
20
-184.575
11
131.1293732
21
-184.575
0
LINE
8
0
10
131.2165289
20
-184.5788053
11
149.2794838
21
-186.1591091
0
LINE
8
0
10
149.4511471
20
-186.189378
11
166.6689282
21
-190.8028684
0
LINE
8
0
10
166.8327275
20
-190.8624864
11
183.5428497
21
-198.6545443
0
ARC
8
0
10
186.0785593
20
-193.2166976
40
6
50
245.012813
51
334.9999999
0
LINE
8
0
10
191.516406
20
-195.7524072
11
199.5672839
21
-178.4872439
0
ARC
8
0
10
194.1294372
20
-175.9515343
40
6
50
334.9999999
51
425.0000001
0
LINE
8
0
10
196.6651468
20
-170.5136875
11
191.3523817
21
-168.0363045
0
LINE
8
0
10
190.775
20
-167.1299967
11
190.775
21
-136.665
0
ARC
8
0
10
184.775
20
-136.665
40
6
50
0
51
90
0
LINE
8
0
10
184.775
20
-130.665
11
172.725
21
-130.665
0
LINE
8
0
10
171.725
20
-129.665
11
171.725
21
-98.565
0
ARC
8
0
10
165.725
20
-98.565
40
6
50
0
51
90
0
LINE
8
0
10
165.725
20
-92.565
11
152.9058828
21
-92.565
0
ARC
8
0
10
146.675
20
-94.755
40
6
50
27.1109019
51
90
0
LINE
8
0
10
146.675
20
-88.755
11
133.8558828
21
-88.755
0
ARC
8
0
10
127.625
20
-90.945
40
6
50
27.1109019
51
90
0
LINE
8
0
10
127.625
20
-84.945
11
108.575
21
-84.945
0
ARC
8
0
10
108.575
20
-90.945
40
6
50
90
51
152.8890981
0
LINE
8
0
10
102.3441172
20
-88.755
11
89.525
21
-88.755
0
ARC
8
0
10
89.525
20
-94.755
40
6
50
90
51
180
0
LINE
8
0
10
83.525
20
-94.755
11
83.525
21
-95.375
0
LINE
8
0
10
82.525
20
-96.375
11
70.475
21
-96.375
0
ARC
8
0
10
70.475
20
-102.375
40
6
50
90
51
180
0
LINE
8
0
10
64.475
20
-102.375
11
64.475
21
-159.525
0
ARC
8
0
10
70.475
20
-159.525
40
6
50
180
51
270
0
LINE
8
0
10
70.475
20
-165.525
11
105.385
21
-165.525
0
ARC
8
0
10
131.1293732
20
-185.575
40
1
50
85.0000024
51
90
0
ARC
8
0
10
149.1923281
20
-187.1553038
40
1
50
75.0000021
51
85.0000024
0
ARC
8
0
10
166.4101092
20
-191.7687942
40
1
50
64.9999983
51
75.0000021
0
ARC
8
0
10
190.6100982
20
-195.3297889
40
1
50
334.9999983
51
334.9999999
0
ARC
8
0
10
198.6609761
20
-178.0646256
40
1
50
334.9999983
51
334.9999999
0
ARC
8
0
10
191.775
20
-167.1299967
40
1
50
180
51
244.9999983
0
ARC
8
0
10
172.725
20
-129.665
40
1
50
180
51
270
0
ARC
8
0
10
152.9058828
20
-91.565
40
1
50
207.1109019
51
270
0
ARC
8
0
10
133.8558828
20
-87.755
40
1
50
207.1109019
51
270
0
ARC
8
0
10
102.3441172
20
-87.755
40
1
50
270
51
332.8890981
0
ARC
8
0
10
82.525
20
-95.375
40
1
50
270
51
0
0
ARC
8
0
10
105.385
20
-166.525
40
1
50
0
51
90
0
LINE
8
0
10
73
20
-157
11
87
21
-157
0
LINE
8
0
10
87
20
-157
11
87
21
-143
0
LINE
8
0
10
87
20
-143
11
73
21
-143
0
LINE
8
0
10
73
20
-143
11
73
21
-157
0
LINE
8
0
10
73
20
-137.95
11
87
21
-137.95
0
LINE
8
0
10
87
20
-137.95
11
87
21
-123.95
0
LINE
8
0
10
87
20
-123.95
11
73
21
-123.95
0
LINE
8
0
10
73
20
-123.95
11
73
21
-137.95
0
LINE
8
0
10
73
20
-118.9
11
87
21
-118.9
0
LINE
8
0
10
87
20
-118.9
11
87
21
-104.9
0
LINE
8
0
10
87
20
-104.9
11
73
21
-104.9
0
LINE
8
0
10
73
20
-104.9
11
73
21
-118.9
0
LINE
8
0
10
92.05
20
-149.38
11
106.05
21
-149.38
0
LINE
8
0
10
106.05
20
-149.38
11
106.05
21
-135.38
0
LINE
8
0
10
106.05
20
-135.38
11
92.05
21
-135.38
0
LINE
8
0
10
92.05
20
-135.38
11
92.05
21
-149.38
0
LINE
8
0
10
92.05
20
-130.33
11
106.05
21
-130.33
0
LINE
8
0
10
106.05
20
-130.33
11
106.05
21
-116.33
0
LINE
8
0
10
106.05
20
-116.33
11
92.05
21
-116.33
0
LINE
8
0
10
92.05
20
-116.33
11
92.05
21
-130.33
0
LINE
8
0
10
92.05
20
-111.28
11
106.05
21
-111.28
0
LINE
8
0
10
106.05
20
-111.28
11
106.05
21
-97.28
0
LINE
8
0
10
106.05
20
-97.28
11
92.05
21
-97.28
0
LINE
8
0
10
92.05
20
-97.28
11
92.05
21
-111.28
0
LINE
8
0
10
111.1
20
-145.57
11
125.1
21
-145.57
0
LINE
8
0
10
125.1
20
-145.57
11
125.1
21
-131.57
0
LINE
8
0
10
125.1
20
-131.57
11
111.1
21
-131.57
0
LINE
8
0
10
111.1
20
-131.57
11
111.1
21
-145.57
0
LINE
8
0
10
111.1
20
-126.52
11
125.1
21
-126.52
0
LINE
8
0
10
125.1
20
-126.52
11
125.1
21
-112.52
0
LINE
8
0
10
125.1
20
-112.52
11
111.1
21
-112.52
0
LINE
8
0
10
111.1
20
-112.52
11
111.1
21
-126.52
0
LINE
8
0
10
111.1
20
-107.47
11
125.1
21
-107.47
0
LINE
8
0
10
125.1
20
-107.47
11
125.1
21
-93.47
0
LINE
8
0
10
125.1
20
-93.47
11
111.1
21
-93.47
0
LINE
8
0
10
111.1
20
-93.47
11
111.1
21
-107.47
0
LINE
8
0
10
130.15
20
-149.38
11
144.15
21
-149.38
0
LINE
8
0
10
144.15
20
-149.38
11
144.15
21
-135.38
0
LINE
8
0
10
144.15
20
-135.38
11
130.15
21
-135.38
0
LINE
8
0
10
130.15
20
-135.38
11
130.15
21
-149.38
0
LINE
8
0
10
130.15
20
-130.33
11
144.15
21
-130.33
0
LINE
8
0
10
144.15
20
-130.33
11
144.15
21
-116.33
0
LINE
8
0
10
144.15
20
-116.33
11
130.15
21
-116.33
0
LINE
8
0
10
130.15
20
-116.33
11
130.15
21
-130.33
0
LINE
8
0
10
130.15
20
-111.28
11
144.15
21
-111.28
0
LINE
8
0
10
144.15
20
-111.28
11
144.15
21
-97.28
0
LINE
8
0
10
144.15
20
-97.28
11
130.15
21
-97.28
0
LINE
8
0
10
130.15
20
-97.28
11
130.15
21
-111.28
0
LINE
8
0
10
149.2
20
-153.19
11
163.2
21
-153.19
0
LINE
8
0
10
163.2
20
-153.19
11
163.2
21
-139.19
0
LINE
8
0
10
163.2
20
-139.19
11
149.2
21
-139.19
0
LINE
8
0
10
149.2
20
-139.19
11
149.2
21
-153.19
0
LINE
8
0
10
149.2
20
-134.14
11
163.2
21
-134.14
0
LINE
8
0
10
163.2
20
-134.14
11
163.2
21
-120.14
0
LINE
8
0
10
163.2
20
-120.14
11
149.2
21
-120.14
0
LINE
8
0
10
149.2
20
-120.14
11
149.2
21
-134.14
0
LINE
8
0
10
149.2
20
-115.09
11
163.2
21
-115.09
0
LINE
8
0
10
163.2
20
-115.09
11
163.2
21
-101.09
0
LINE
8
0
10
163.2
20
-101.09
11
149.2
21
-101.09
0
LINE
8
0
10
149.2
20
-101.09
11
149.2
21
-115.09
0
LINE
8
0
10
114.91
20
-176.05
11
128.91
21
-176.05
0
LINE
8
0
10
128.91
20
-176.05
11
128.91
21
-162.05
0
LINE
8
0
10
128.91
20
-162.05
11
114.91
21
-162.05
0
LINE
8
0
10
114.91
20
-162.05
11
114.91
21
-176.05
0
LINE
8
0
10
134.1704598
20
-176.2796767
11
148.1171856
21
-177.4998571
0
LINE
8
0
10
148.1171856
20
-177.4998571
11
149.337366
21
-163.5531313
0
LINE
8
0
10
149.337366
20
-163.5531313
11
135.3906402
21
-162.3329509
0
LINE
8
0
10
135.3906402
20
-162.3329509
11
134.1704598
21
-176.2796767
0
LINE
8
0
10
153.5049898
20
-178.4498723
11
167.0279514
21
-182.0733389
0
LINE
8
0
10
167.0279514
20
-182.0733389
11
170.651418
21
-168.5503773
0
LINE
8
0
10
170.651418
20
-168.5503773
11
157.1284564
21
-164.9269107
0
LINE
8
0
10
157.1284564
20
-164.9269107
11
153.5049898
21
-178.4498723
0
LINE
8
0
10
172.1689343
20
-183.9445037
11
184.8572433
21
-189.8611593
0
LINE
8
0
10
184.8572433
20
-189.8611593
11
190.7738989
21
-177.1728503
0
LINE
8
0
10
190.7738989
20
-177.1728503
11
178.0855899
21
-171.2561947
0
LINE
8
0
10
178.0855899
20
-171.2561947
11
172.1689343
21
-183.9445037
0
ENDSEC
0
EOF