0
SECTION
2
HEADER
9
$INSUNITS
70
4
0
ENDSEC
0
SECTION
2
TABLES
0
TABLE
2
LTYPE
0
LTYPE
72
65
70
64
2
CONTINUOUS
3
______
73
0
40
0
0
ENDTAB
0
TABLE
2
LAYER
0
ENDTAB
0
ENDSEC
0
SECTION
2
ENTITIES
0
LINE
8
0
10
73
20
-157
11
87
21
-157
0
LINE
8
0
10
87
20
-157
11
87
21
-143
0
LINE
8
0
10
87
20
-143
11
73
21
-143
0
LINE
8
0
10
73
20
-143
11
73
21
-157
0
LINE
8
0
10
73
20
-137.95
11
87
21
-137.95
0
LINE
8
0
10
87
20
-137.95
11
87
21
-123.95
0
LINE
8
0
10
87
20
-123.95
11
73
21
-123.95
0
LINE
8
0
10
73
20
-123.95
11
73
21
-137.95
0
LINE
8
0
10
73
20
-118.9
11
87
21
-118.9
0
LINE
8
0
10
87
20
-118.9
11
87
21
-104.9
0
LINE
8
0
10
87
20
-104.9
11
73
21
-104.9
0
LINE
8
0
10
73
20
-104.9
11
73
21
-118.9
0
LINE
8
0
10
92.05
20
-149.38
11
106.05
21
-149.38
0
LINE
8
0
10
106.05
20
-149.38
11
106.05
21
-135.38
0
LINE
8
0
10
106.05
20
-135.38
11
92.05
21
-135.38
0
LINE
8
0
10
92.05
20
-135.38
11
92.05
21
-149.38
0
LINE
8
0
10
92.05
20
-130.33
11
106.05
21
-130.33
0
LINE
8
0
10
106.05
20
-130.33
11
106.05
21
-116.33
0
LINE
8
0
10
106.05
20
-116.33
11
92.05
21
-116.33
0
LINE
8
0
10
92.05
20
-116.33
11
92.05
21
-130.33
0
LINE
8
0
10
92.05
20
-111.28
11
106.05
21
-111.28
0
LINE
8
0
10
106.05
20
-111.28
11
106.05
21
-97.28
0
LINE
8
0
10
106.05
20
-97.28
11
92.05
21
-97.28
0
LINE
8
0
10
92.05
20
-97.28
11
92.05
21
-111.28
0
LINE
8
0
10
111.1
20
-145.57
11
125.1
21
-145.57
0
LINE
8
0
10
125.1
20
-145.57
11
125.1
21
-131.57
0
LINE
8
0
10
125.1
20
-131.57
11
111.1
21
-131.57
0
LINE
8
0
10
111.1
20
-131.57
11
111.1
21
-145.57
0
LINE
8
0
10
111.1
20
-126.52
11
125.1
21
-126.52
0
LINE
8
0
10
125.1
20
-126.52
11
125.1
21
-112.52
0
LINE
8
0
10
125.1
20
-112.52
11
111.1
21
-112.52
0
LINE
8
0
10
111.1
20
-112.52
11
111.1
21
-126.52
0
LINE
8
0
10
111.1
20
-107.47
11
125.1
21
-107.47
0
LINE
8
0
10
125.1
20
-107.47
11
125.1
21
-93.47
0
LINE
8
0
10
125.1
20
-93.47
11
111.1
21
-93.47
0
LINE
8
0
10
111.1
20
-93.47
11
111.1
21
-107.47
0
LINE
8
0
10
130.15
20
-149.38
11
144.15
21
-149.38
0
LINE
8
0
10
144.15
20
-149.38
11
144.15
21
-135.38
0
LINE
8
0
10
144.15
20
-135.38
11
130.15
21
-135.38
0
LINE
8
0
10
130.15
20
-135.38
11
130.15
21
-149.38
0
LINE
8
0
10
130.15
20
-130.33
11
144.15
21
-130.33
0
LINE
8
0
10
144.15
20
-130.33
11
144.15
21
-116.33
0
LINE
8
0
10
144.15
20
-116.33
11
130.15
21
-116.33
0
LINE
8
0
10
130.15
20
-116.33
11
130.15
21
-130.33
0
LINE
8
0
10
130.15
20
-111.28
11
144.15
21
-111.28
0
LINE
8
0
10
144.15
20
-111.28
11
144.15
21
-97.28
0
LINE
8
0
10
144.15
20
-97.28
11
130.15
21
-97.28
0
LINE
8
0
10
130.15
20
-97.28
11
130.15
21
-111.28
0
LINE
8
0
10
149.2
20
-153.19
11
163.2
21
-153.19
0
LINE
8
0
10
163.2
20
-153.19
11
163.2
21
-139.19
0
LINE
8
0
10
163.2
20
-139.19
11
149.2
21
-139.19
0
LINE
8
0
10
149.2
20
-139.19
11
149.2
21
-153.19
0
LINE
8
0
10
149.2
20
-134.14
11
163.2
21
-134.14
0
LINE
8
0
10
163.2
20
-134.14
11
163.2
21
-120.14
0
LINE
8
0
10
163.2
20
-120.14
11
149.2
21
-120.14
0
LINE
8
0
10
149.2
20
-120.14
11
149.2
21
-134.14
0
LINE
8
0
10
149.2
20
-115.09
11
163.2
21
-115.09
0
LINE
8
0
10
163.2
20
-115.09
11
163.2
21
-101.09
0
LINE
8
0
10
163.2
20
-101.09
11
149.2
21
-101.09
0
LINE
8
0
10
149.2
20
-101.09
11
149.2
21
-115.09
0
LINE
8
0
10
114.91
20
-176.05
11
128.91
21
-176.05
0
LINE
8
0
10
128.91
20
-176.05
11
128.91
21
-162.05
0
LINE
8
0
10
128.91
20
-162.05
11
114.91
21
-162.05
0
LINE
8
0
10
114.91
20
-162.05
11
114.91
21
-176.05
0
LINE
8
0
10
134.1704598
20
-176.2796767
11
148.1171856
21
-177.4998571
0
LINE
8
0
10
148.1171856
20
-177.4998571
11
149.337366
21
-163.5531313
0
LINE
8
0
10
149.337366
20
-163.5531313
11
135.3906402
21
-162.3329509
0
LINE
8
0
10
135.3906402
20
-162.3329509
11
134.1704598
21
-176.2796767
0
LINE
8
0
10
153.5049898
20
-178.4498723
11
167.0279514
21
-182.0733389
0
LINE
8
0
10
167.0279514
20
-182.0733389
11
170.651418
21
-168.5503773
0
LINE
8
0
10
170.651418
20
-168.5503773
11
157.1284564
21
-164.9269107
0
LINE
8
0
10
157.1284564
20
-164.9269107
11
153.5049898
21
-178.4498723
0
LINE
8
0
10
172.1689343
20
-183.9445037
11
184.8572433
21
-189.8611593
0
LINE
8
0
10
184.8572433
20
-189.8611593
11
190.7738989
21
-177.1728503
0
LINE
8
0
10
190.7738989
20
-177.1728503
11
178.0855899
21
-171.2561947
0
LINE
8
0
10
178.0855899
20
-171.2561947
11
172.1689343
21
-183.9445037
0
LINE
8
0
10
325.4
20
-157
11
339.4
21
-157
0
LINE
8
0
10
339.4
20
-157
11
339.4
21
-143
0
LINE
8
0
10
339.4
20
-143
11
325.4
21
-143
0
LINE
8
0
10
325.4
20
-143
11
325.4
21
-157
0
LINE
8
0
10
325.4
20
-137.95
11
339.4
21
-137.95
0
LINE
8
0
10
339.4
20
-137.95
11
339.4
21
-123.95
0
LINE
8
0
10
339.4
20
-123.95
11
325.4
21
-123.95
0
LINE
8
0
10
325.4
20
-123.95
11
325.4
21
-137.95
0
LINE
8
0
10
325.4
20
-118.9
11
339.4
21
-118.9
0
LINE
8
0
10
339.4
20
-118.9
11
339.4
21
-104.9
0
LINE
8
0
10
339.4
20
-104.9
11
325.4
21
-104.9
0
LINE
8
0
10
325.4
20
-104.9
11
325.4
21
-118.9
0
LINE
8
0
10
306.35
20
-149.38
11
320.35
21
-149.38
0
LINE
8
0
10
320.35
20
-149.38
11
320.35
21
-135.38
0
LINE
8
0
10
320.35
20
-135.38
11
306.35
21
-135.38
0
LINE
8
0
10
306.35
20
-135.38
11
306.35
21
-149.38
0
LINE
8
0
10
306.35
20
-130.33
11
320.35
21
-130.33
0
LINE
8
0
10
320.35
20
-130.33
11
320.35
21
-116.33
0
LINE
8
0
10
320.35
20
-116.33
11
306.35
21
-116.33
0
LINE
8
0
10
306.35
20
-116.33
11
306.35
21
-130.33
0
LINE
8
0
10
306.35
20
-111.28
11
320.35
21
-111.28
0
LINE
8
0
10
320.35
20
-111.28
11
320.35
21
-97.28
0
LINE
8
0
10
320.35
20
-97.28
11
306.35
21
-97.28
0
LINE
8
0
10
306.35
20
-97.28
11
306.35
21
-111.28
0
LINE
8
0
10
287.3
20
-145.57
11
301.3
21
-145.57
0
LINE
8
0
10
301.3
20
-145.57
11
301.3
21
-131.57
0
LINE
8
0
10
301.3
20
-131.57
11
287.3
21
-131.57
0
LINE
8
0
10
287.3
20
-131.57
11
287.3
21
-145.57
0
LINE
8
0
10
287.3
20
-126.52
11
301.3
21
-126.52
0
LINE
8
0
10
301.3
20
-126.52
11
301.3
21
-112.52
0
LINE
8
0
10
301.3
20
-112.52
11
287.3
21
-112.52
0
LINE
8
0
10
287.3
20
-112.52
11
287.3
21
-126.52
0
LINE
8
0
10
287.3
20
-107.47
11
301.3
21
-107.47
0
LINE
8
0
10
301.3
20
-107.47
11
301.3
21
-93.47
0
LINE
8
0
10
301.3
20
-93.47
11
287.3
21
-93.47
0
LINE
8
0
10
287.3
20
-93.47
11
287.3
21
-107.47
0
LINE
8
0
10
268.25
20
-149.38
11
282.25
21
-149.38
0
LINE
8
0
10
282.25
20
-149.38
11
282.25
21
-135.38
0
LINE
8
0
10
282.25
20
-135.38
11
268.25
21
-135.38
0
LINE
8
0
10
268.25
20
-135.38
11
268.25
21
-149.38
0
LINE
8
0
10
268.25
20
-130.33
11
282.25
21
-130.33
0
LINE
8
0
10
282.25
20
-130.33
11
282.25
21
-116.33
0
LINE
8
0
10
282.25
20
-116.33
11
268.25
21
-116.33
0
LINE
8
0
10
268.25
20
-116.33
11
268.25
21
-130.33
0
LINE
8
0
10
268.25
20
-111.28
11
282.25
21
-111.28
0
LINE
8
0
10
282.25
20
-111.28
11
282.25
21
-97.28
0
LINE
8
0
10
282.25
20
-97.28
11
268.25
21
-97.28
0
LINE
8
0
10
268.25
20
-97.28
11
268.25
21
-111.28
0
LINE
8
0
10
249.2
20
-153.19
11
263.2
21
-153.19
0
LINE
8
0
10
263.2
20
-153.19
11
263.2
21
-139.19
0
LINE
8
0
10
263.2
20
-139.19
11
249.2
21
-139.19
0
LINE
8
0
10
249.2
20
-139.19
11
249.2
21
-153.19
0
LINE
8
0
10
249.2
20
-134.14
11
263.2
21
-134.14
0
LINE
8
0
10
263.2
20
-134.14
11
263.2
21
-120.14
0
LINE
8
0
10
263.2
20
-120.14
11
249.2
21
-120.14
0
LINE
8
0
10
249.2
20
-120.14
11
249.2
21
-134.14
0
LINE
8
0
10
249.2
20
-115.09
11
263.2
21
-115.09
0
LINE
8
0
10
263.2
20
-115.09
11
263.2
21
-101.09
0
LINE
8
0
10
263.2
20
-101.09
11
249.2
21
-101.09
0
LINE
8
0
10
249.2
20
-101.09
11
249.2
21
-115.09
0
LINE
8
0
10
283.49
20
-176.05
11
297.49
21
-176.05
0
LINE
8
0
10
297.49
20
-176.05
11
297.49
21
-162.05
0
LINE
8
0
10
297.49
20
-162.05
11
283.49
21
-162.05
0
LINE
8
0
10
283.49
20
-162.05
11
283.49
21
-176.05
0
LINE
8
0
10
264.2828144
20
-177.4998571
11
278.2295402
21
-176.2796767
0
LINE
8
0
10
278.2295402
20
-176.2796767
11
277.0093598
21
-162.3329509
0
LINE
8
0
10
277.0093598
20
-162.3329509
11
263.062634
21
-163.5531313
0
LINE
8
0
10
263.062634
20
-163.5531313
11
264.2828144
21
-177.4998571
0
LINE
8
0
10
245.3720486
20
-182.0733389
11
258.8950102
21
-178.4498723
0
LINE
8
0
10
258.8950102
20
-178.4498723
11
255.2715436
21
-164.9269107
0
LINE
8
0
10
255.2715436
20
-164.9269107
11
241.748582
21
-168.5503773
0
LINE
8
0
10
241.748582
20
-168.5503773
11
245.3720486
21
-182.0733389
0
LINE
8
0
10
227.5427567
20
-189.8611593
11
240.2310657
21
-183.9445037
0
LINE
8
0
10
240.2310657
20
-183.9445037
11
234.3144101
21
-171.2561947
0
LINE
8
0
10
234.3144101
20
-171.2561947
11
221.6261011
21
-177.1728503
0
LINE
8
0
10
221.6261011
20
-177.1728503
11
227.5427567
21
-189.8611593
0
ENDSEC
0
EOF