<svg width="266.4mm" height="96.391mm" viewBox="0 0 266.4 96.391" xmlns="http://www.w3.org/2000/svg"><g id="svgGroup" stroke-linecap="round" fill-rule="evenodd" font-size="9pt" stroke="#000" stroke-width="0.25mm" fill="none" style="stroke:#000;stroke-width:0.25mm;fill:none"><path d="M 61.17 82.81 L 75.117 84.03 L 76.337 70.083 L 62.391 68.863 L 61.17 82.81 Z M 191.283 84.03 L 205.23 82.81 L 204.009 68.863 L 190.063 70.083 L 191.283 84.03 Z M 80.505 84.98 L 94.028 88.603 L 97.651 75.08 L 84.128 71.457 L 80.505 84.98 Z M 172.372 88.603 L 185.895 84.98 L 182.272 71.457 L 168.749 75.08 L 172.372 88.603 Z M 0 63.53 L 14 63.53 L 14 49.53 L 0 49.53 L 0 63.53 Z M 0 44.48 L 14 44.48 L 14 30.48 L 0 30.48 L 0 44.48 Z M 0 25.43 L 14 25.43 L 14 11.43 L 0 11.43 L 0 25.43 Z M 19.05 55.91 L 33.05 55.91 L 33.05 41.91 L 19.05 41.91 L 19.05 55.91 Z M 19.05 36.86 L 33.05 36.86 L 33.05 22.86 L 19.05 22.86 L 19.05 36.86 Z M 19.05 17.81 L 33.05 17.81 L 33.05 3.81 L 19.05 3.81 L 19.05 17.81 Z M 38.1 52.1 L 52.1 52.1 L 52.1 38.1 L 38.1 38.1 L 38.1 52.1 Z M 38.1 33.05 L 52.1 33.05 L 52.1 19.05 L 38.1 19.05 L 38.1 33.05 Z M 38.1 14 L 52.1 14 L 52.1 0 L 38.1 0 L 38.1 14 Z M 57.15 55.91 L 71.15 55.91 L 71.15 41.91 L 57.15 41.91 L 57.15 55.91 Z M 57.15 36.86 L 71.15 36.86 L 71.15 22.86 L 57.15 22.86 L 57.15 36.86 Z M 57.15 17.81 L 71.15 17.81 L 71.15 3.81 L 57.15 3.81 L 57.15 17.81 Z M 76.2 59.72 L 90.2 59.72 L 90.2 45.72 L 76.2 45.72 L 76.2 59.72 Z M 76.2 40.67 L 90.2 40.67 L 90.2 26.67 L 76.2 26.67 L 76.2 40.67 Z M 76.2 21.62 L 90.2 21.62 L 90.2 7.62 L 76.2 7.62 L 76.2 21.62 Z M 41.91 82.58 L 55.91 82.58 L 55.91 68.58 L 41.91 68.58 L 41.91 82.58 Z M 252.4 63.53 L 266.4 63.53 L 266.4 49.53 L 252.4 49.53 L 252.4 63.53 Z M 252.4 44.48 L 266.4 44.48 L 266.4 30.48 L 252.4 30.48 L 252.4 44.48 Z M 252.4 25.43 L 266.4 25.43 L 266.4 11.43 L 252.4 11.43 L 252.4 25.43 Z M 233.35 55.91 L 247.35 55.91 L 247.35 41.91 L 233.35 41.91 L 233.35 55.91 Z M 233.35 36.86 L 247.35 36.86 L 247.35 22.86 L 233.35 22.86 L 233.35 36.86 Z M 233.35 17.81 L 247.35 17.81 L 247.35 3.81 L 233.35 3.81 L 233.35 17.81 Z M 214.3 52.1 L 228.3 52.1 L 228.3 38.1 L 214.3 38.1 L 214.3 52.1 Z M 214.3 33.05 L 228.3 33.05 L 228.3 19.05 L 214.3 19.05 L 214.3 33.05 Z M 214.3 14 L 228.3 14 L 228.3 0 L 214.3 0 L 214.3 14 Z M 195.25 55.91 L 209.25 55.91 L 209.25 41.91 L 195.25 41.91 L 195.25 55.91 Z M 195.25 36.86 L 209.25 36.86 L 209.25 22.86 L 195.25 22.86 L 195.25 36.86 Z M 195.25 17.81 L 209.25 17.81 L 209.25 3.81 L 195.25 3.81 L 195.25 17.81 Z M 176.2 59.72 L 190.2 59.72 L 190.2 45.72 L 176.2 45.72 L 176.2 59.72 Z M 176.2 40.67 L 190.2 40.67 L 190.2 26.67 L 176.2 26.67 L 176.2 40.67 Z M 176.2 21.62 L 190.2 21.62 L 190.2 7.62 L 176.2 7.62 L 176.2 21.62 Z M 210.49 82.58 L 224.49 82.58 L 224.49 68.58 L 210.49 68.58 L 210.49 82.58 Z M 99.169 90.475 L 111.857 96.391 L 117.774 83.703 L 105.086 77.786 L 99.169 90.475 Z M 154.543 96.391 L 167.231 90.475 L 161.314 77.786 L 148.626 83.703 L 154.543 96.391 Z" vector-effect="non-scaling-stroke"/></g></svg>